<svg width="1440" height="200" viewBox="0 0 1440 200" fill="none" xmlns="http://www.w3.org/2000/svg">
<rect width="1440" height="200" fill="#F1F1F1"/>
<path d="M284.481 116.477C288.037 116.477 290.92 113.595 290.92 110.039C290.92 106.483 288.037 103.601 284.481 103.601C280.926 103.601 278.043 106.483 278.043 110.039C278.043 113.595 280.926 116.477 284.481 116.477Z" stroke="#295E4D" stroke-width="3.80282" stroke-linecap="round" stroke-linejoin="round"/>
<path d="M238.783 116.477C242.339 116.477 245.221 113.595 245.221 110.039C245.221 106.483 242.339 103.601 238.783 103.601C235.227 103.601 232.345 106.483 232.345 110.039C232.345 113.595 235.227 116.477 238.783 116.477Z" stroke="#295E4D" stroke-width="3.80282" stroke-linecap="round" stroke-linejoin="round"/>
<path d="M292.985 100.688H228.854V49.3611L217.015 37.5229" stroke="#295E4D" stroke-width="3.80282" stroke-linecap="round" stroke-linejoin="round"/>
<path d="M262.307 76.0874H237.707V100.688H262.307V76.0874Z" stroke="#295E4D" stroke-width="3.80282" stroke-linecap="round" stroke-linejoin="round"/>
<path d="M286.908 76.0874H262.307V100.688H286.908V76.0874Z" stroke="#295E4D" stroke-width="3.80282" stroke-linecap="round" stroke-linejoin="round"/>
<path d="M274.605 55.4153H250.005V76.0874H274.605V55.4153Z" stroke="#295E4D" stroke-width="3.80282" stroke-linecap="round" stroke-linejoin="round"/>
<path d="M160.781 147L164.977 135.797H167.07L171.234 147H169.195L168.234 144.297H163.742L162.812 147H160.781ZM164.227 142.766H167.734L166.18 138.312C166.143 138.198 166.112 138.083 166.086 137.969C166.06 137.849 166.034 137.703 166.008 137.531H165.961C165.935 137.688 165.906 137.826 165.875 137.945C165.849 138.065 165.815 138.182 165.773 138.297L164.227 142.766ZM174.43 146.016H174.398V147H172.578V135.156H174.398V140.312H174.43C174.737 139.812 175.115 139.438 175.562 139.188C176.01 138.938 176.529 138.812 177.117 138.812C178.148 138.812 178.948 139.169 179.516 139.883C180.089 140.591 180.375 141.552 180.375 142.766C180.375 144.104 180.047 145.177 179.391 145.984C178.74 146.786 177.859 147.188 176.75 147.188C176.24 147.188 175.789 147.091 175.398 146.898C175.013 146.701 174.69 146.406 174.43 146.016ZM174.375 142.656V143.633C174.375 144.232 174.56 144.734 174.93 145.141C175.299 145.542 175.771 145.742 176.344 145.742C177.026 145.742 177.557 145.482 177.938 144.961C178.318 144.44 178.508 143.711 178.508 142.773C178.508 141.982 178.331 141.365 177.977 140.922C177.622 140.479 177.135 140.258 176.516 140.258C175.88 140.258 175.365 140.484 174.969 140.938C174.573 141.385 174.375 141.958 174.375 142.656ZM188.312 147H186.555V145.797H186.523C186.253 146.26 185.917 146.609 185.516 146.844C185.115 147.073 184.654 147.188 184.133 147.188C183.409 147.188 182.807 146.974 182.328 146.547C181.849 146.115 181.609 145.526 181.609 144.781C181.609 144.073 181.849 143.492 182.328 143.039C182.807 142.581 183.518 142.284 184.461 142.148L186.562 141.867V141.703C186.562 141.161 186.422 140.768 186.141 140.523C185.859 140.279 185.479 140.156 185 140.156C184.62 140.156 184.232 140.224 183.836 140.359C183.445 140.495 183.065 140.706 182.695 140.992L181.906 139.906C182.396 139.531 182.901 139.255 183.422 139.078C183.943 138.901 184.516 138.812 185.141 138.812C186.214 138.812 187.01 139.078 187.531 139.609C188.052 140.135 188.312 140.927 188.312 141.984V147ZM186.562 143.75V143.07L184.852 143.297C184.346 143.37 183.966 143.508 183.711 143.711C183.461 143.909 183.336 144.201 183.336 144.586C183.336 144.977 183.456 145.281 183.695 145.5C183.935 145.719 184.242 145.828 184.617 145.828C185.206 145.828 185.677 145.633 186.031 145.242C186.385 144.846 186.562 144.349 186.562 143.75ZM189.789 146.359L190.578 145.078C190.891 145.297 191.221 145.474 191.57 145.609C191.924 145.74 192.307 145.805 192.719 145.805C193.167 145.805 193.513 145.724 193.758 145.562C194.008 145.396 194.133 145.148 194.133 144.82C194.133 144.56 194.029 144.344 193.82 144.172C193.617 143.995 193.268 143.849 192.773 143.734C191.773 143.5 191.07 143.19 190.664 142.805C190.263 142.419 190.062 141.911 190.062 141.281C190.062 140.557 190.344 139.966 190.906 139.508C191.469 139.044 192.206 138.812 193.117 138.812C193.57 138.812 194.003 138.872 194.414 138.992C194.826 139.107 195.227 139.292 195.617 139.547L194.883 140.797C194.539 140.578 194.224 140.422 193.938 140.328C193.651 140.234 193.357 140.188 193.055 140.188C192.628 140.188 192.294 140.268 192.055 140.43C191.82 140.586 191.703 140.805 191.703 141.086C191.703 141.383 191.823 141.604 192.062 141.75C192.307 141.891 192.716 142.029 193.289 142.164C194.154 142.372 194.786 142.674 195.188 143.07C195.589 143.461 195.789 143.984 195.789 144.641C195.789 145.417 195.505 146.036 194.938 146.5C194.375 146.958 193.612 147.188 192.648 147.188C192.128 147.188 191.628 147.12 191.148 146.984C190.674 146.844 190.221 146.635 189.789 146.359ZM201.828 146.891C201.594 146.99 201.349 147.062 201.094 147.109C200.839 147.156 200.565 147.18 200.273 147.18C199.534 147.18 198.964 146.984 198.562 146.594C198.167 146.198 197.969 145.609 197.969 144.828V140.422H196.625V139H197.969V137.055L199.781 136.508V139H201.695V140.422H199.781V144.68C199.781 145.07 199.852 145.352 199.992 145.523C200.138 145.695 200.362 145.781 200.664 145.781C200.81 145.781 200.948 145.766 201.078 145.734C201.214 145.698 201.333 145.654 201.438 145.602L201.828 146.891ZM210.023 143.477H204.562C204.594 144.232 204.812 144.807 205.219 145.203C205.625 145.594 206.193 145.789 206.922 145.789C207.219 145.789 207.557 145.729 207.938 145.609C208.318 145.49 208.693 145.297 209.062 145.031L209.883 146.164C209.388 146.523 208.885 146.784 208.375 146.945C207.865 147.107 207.302 147.188 206.688 147.188C205.443 147.188 204.474 146.831 203.781 146.117C203.089 145.398 202.74 144.396 202.734 143.109C202.734 141.828 203.091 140.792 203.805 140C204.523 139.208 205.443 138.812 206.562 138.812C207.635 138.812 208.479 139.151 209.094 139.828C209.714 140.5 210.023 141.453 210.023 142.688V143.477ZM208.266 142.219C208.266 141.531 208.115 141.016 207.812 140.672C207.516 140.323 207.094 140.148 206.547 140.148C206.031 140.148 205.591 140.336 205.227 140.711C204.867 141.081 204.646 141.583 204.562 142.219H208.266ZM217.742 146.508C217.346 146.747 216.953 146.919 216.562 147.023C216.172 147.133 215.747 147.188 215.289 147.188C214.06 147.188 213.076 146.828 212.336 146.109C211.602 145.391 211.234 144.414 211.234 143.18C211.234 141.852 211.615 140.792 212.375 140C213.141 139.208 214.172 138.812 215.469 138.812C215.922 138.812 216.333 138.862 216.703 138.961C217.078 139.055 217.458 139.211 217.844 139.43L217.133 140.695C216.862 140.544 216.596 140.435 216.336 140.367C216.076 140.294 215.792 140.258 215.484 140.258C214.719 140.258 214.128 140.51 213.711 141.016C213.294 141.521 213.086 142.19 213.086 143.023C213.086 143.898 213.31 144.57 213.758 145.039C214.211 145.508 214.779 145.742 215.461 145.742C215.669 145.742 215.909 145.706 216.18 145.633C216.451 145.555 216.724 145.432 217 145.266L217.742 146.508ZM220.203 137.453C219.87 137.453 219.594 137.346 219.375 137.133C219.156 136.919 219.047 136.656 219.047 136.344C219.047 136.021 219.156 135.755 219.375 135.547C219.594 135.339 219.87 135.234 220.203 135.234C220.542 135.234 220.82 135.339 221.039 135.547C221.258 135.755 221.367 136.021 221.367 136.344C221.367 136.661 221.258 136.927 221.039 137.141C220.82 137.349 220.542 137.453 220.203 137.453ZM221.102 147H219.281V139H221.102V147ZM235.445 147H233.633V142.422C233.633 141.672 233.508 141.125 233.258 140.781C233.013 140.432 232.617 140.258 232.07 140.258C231.586 140.258 231.18 140.474 230.852 140.906C230.529 141.333 230.367 141.857 230.367 142.477V147H228.555V142.312C228.555 141.625 228.422 141.112 228.156 140.773C227.896 140.43 227.505 140.258 226.984 140.258C226.484 140.258 226.078 140.464 225.766 140.875C225.453 141.281 225.297 141.82 225.297 142.492V147H223.477V139H225.297V140.258H225.328C225.599 139.799 225.951 139.445 226.383 139.195C226.82 138.94 227.312 138.812 227.859 138.812C228.411 138.812 228.885 138.951 229.281 139.227C229.682 139.503 229.971 139.891 230.148 140.391C230.451 139.865 230.823 139.471 231.266 139.211C231.708 138.945 232.227 138.812 232.82 138.812C233.695 138.812 234.352 139.083 234.789 139.625C235.227 140.161 235.445 140.969 235.445 142.047V147ZM238.562 137.453C238.229 137.453 237.953 137.346 237.734 137.133C237.516 136.919 237.406 136.656 237.406 136.344C237.406 136.021 237.516 135.755 237.734 135.547C237.953 135.339 238.229 135.234 238.562 135.234C238.901 135.234 239.18 135.339 239.398 135.547C239.617 135.755 239.727 136.021 239.727 136.344C239.727 136.661 239.617 136.927 239.398 137.141C239.18 137.349 238.901 137.453 238.562 137.453ZM239.461 147H237.641V139H239.461V147ZM248.602 143.477H243.141C243.172 144.232 243.391 144.807 243.797 145.203C244.203 145.594 244.771 145.789 245.5 145.789C245.797 145.789 246.135 145.729 246.516 145.609C246.896 145.49 247.271 145.297 247.641 145.031L248.461 146.164C247.966 146.523 247.464 146.784 246.953 146.945C246.443 147.107 245.88 147.188 245.266 147.188C244.021 147.188 243.052 146.831 242.359 146.117C241.667 145.398 241.318 144.396 241.312 143.109C241.312 141.828 241.669 140.792 242.383 140C243.102 139.208 244.021 138.812 245.141 138.812C246.214 138.812 247.057 139.151 247.672 139.828C248.292 140.5 248.602 141.453 248.602 142.688V143.477ZM246.844 142.219C246.844 141.531 246.693 141.016 246.391 140.672C246.094 140.323 245.672 140.148 245.125 140.148C244.609 140.148 244.169 140.336 243.805 140.711C243.445 141.081 243.224 141.583 243.141 142.219H246.844ZM257.461 147H255.648V142.492C255.648 141.747 255.513 141.19 255.242 140.82C254.971 140.445 254.565 140.258 254.023 140.258C253.482 140.258 253.034 140.464 252.68 140.875C252.326 141.286 252.148 141.807 252.148 142.438V147H250.328V139H252.148V140.297H252.18C252.477 139.802 252.841 139.432 253.273 139.188C253.706 138.938 254.208 138.812 254.781 138.812C255.656 138.812 256.32 139.091 256.773 139.648C257.232 140.206 257.461 141.026 257.461 142.109V147ZM264.031 146.891C263.797 146.99 263.552 147.062 263.297 147.109C263.042 147.156 262.768 147.18 262.477 147.18C261.737 147.18 261.167 146.984 260.766 146.594C260.37 146.198 260.172 145.609 260.172 144.828V140.422H258.828V139H260.172V137.055L261.984 136.508V139H263.898V140.422H261.984V144.68C261.984 145.07 262.055 145.352 262.195 145.523C262.341 145.695 262.565 145.781 262.867 145.781C263.013 145.781 263.151 145.766 263.281 145.734C263.417 145.698 263.536 145.654 263.641 145.602L264.031 146.891ZM269.008 147.188C267.758 147.188 266.766 146.815 266.031 146.07C265.302 145.32 264.938 144.318 264.938 143.062C264.943 141.734 265.323 140.695 266.078 139.945C266.833 139.19 267.862 138.812 269.164 138.812C270.419 138.807 271.398 139.177 272.102 139.922C272.81 140.661 273.164 141.664 273.164 142.93C273.164 144.232 272.789 145.268 272.039 146.039C271.294 146.805 270.284 147.188 269.008 147.188ZM269.094 145.742C269.818 145.742 270.367 145.505 270.742 145.031C271.122 144.557 271.312 143.872 271.312 142.977C271.312 142.091 271.122 141.417 270.742 140.953C270.362 140.49 269.81 140.258 269.086 140.258C268.372 140.258 267.81 140.503 267.398 140.992C266.992 141.482 266.789 142.159 266.789 143.023C266.789 143.893 266.992 144.565 267.398 145.039C267.805 145.508 268.37 145.742 269.094 145.742ZM285.414 146.508C285.018 146.747 284.625 146.919 284.234 147.023C283.844 147.133 283.419 147.188 282.961 147.188C281.732 147.188 280.747 146.828 280.008 146.109C279.273 145.391 278.906 144.414 278.906 143.18C278.906 141.852 279.286 140.792 280.047 140C280.812 139.208 281.844 138.812 283.141 138.812C283.594 138.812 284.005 138.862 284.375 138.961C284.75 139.055 285.13 139.211 285.516 139.43L284.805 140.695C284.534 140.544 284.268 140.435 284.008 140.367C283.747 140.294 283.464 140.258 283.156 140.258C282.391 140.258 281.799 140.51 281.383 141.016C280.966 141.521 280.758 142.19 280.758 143.023C280.758 143.898 280.982 144.57 281.43 145.039C281.883 145.508 282.451 145.742 283.133 145.742C283.341 145.742 283.581 145.706 283.852 145.633C284.122 145.555 284.396 145.432 284.672 145.266L285.414 146.508ZM290.508 147.188C289.258 147.188 288.266 146.815 287.531 146.07C286.802 145.32 286.438 144.318 286.438 143.062C286.443 141.734 286.823 140.695 287.578 139.945C288.333 139.19 289.362 138.812 290.664 138.812C291.919 138.807 292.898 139.177 293.602 139.922C294.31 140.661 294.664 141.664 294.664 142.93C294.664 144.232 294.289 145.268 293.539 146.039C292.794 146.805 291.784 147.188 290.508 147.188ZM290.594 145.742C291.318 145.742 291.867 145.505 292.242 145.031C292.622 144.557 292.812 143.872 292.812 142.977C292.812 142.091 292.622 141.417 292.242 140.953C291.862 140.49 291.31 140.258 290.586 140.258C289.872 140.258 289.31 140.503 288.898 140.992C288.492 141.482 288.289 142.159 288.289 143.023C288.289 143.893 288.492 144.565 288.898 145.039C289.305 145.508 289.87 145.742 290.594 145.742ZM303.648 147H301.836V142.492C301.836 141.747 301.701 141.19 301.43 140.82C301.159 140.445 300.753 140.258 300.211 140.258C299.669 140.258 299.221 140.464 298.867 140.875C298.513 141.286 298.336 141.807 298.336 142.438V147H296.516V139H298.336V140.297H298.367C298.664 139.802 299.029 139.432 299.461 139.188C299.893 138.938 300.396 138.812 300.969 138.812C301.844 138.812 302.508 139.091 302.961 139.648C303.419 140.206 303.648 141.026 303.648 142.109V147ZM305.086 146.359L305.875 145.078C306.188 145.297 306.518 145.474 306.867 145.609C307.221 145.74 307.604 145.805 308.016 145.805C308.464 145.805 308.81 145.724 309.055 145.562C309.305 145.396 309.43 145.148 309.43 144.82C309.43 144.56 309.326 144.344 309.117 144.172C308.914 143.995 308.565 143.849 308.07 143.734C307.07 143.5 306.367 143.19 305.961 142.805C305.56 142.419 305.359 141.911 305.359 141.281C305.359 140.557 305.641 139.966 306.203 139.508C306.766 139.044 307.503 138.812 308.414 138.812C308.867 138.812 309.299 138.872 309.711 138.992C310.122 139.107 310.523 139.292 310.914 139.547L310.18 140.797C309.836 140.578 309.521 140.422 309.234 140.328C308.948 140.234 308.654 140.188 308.352 140.188C307.924 140.188 307.591 140.268 307.352 140.43C307.117 140.586 307 140.805 307 141.086C307 141.383 307.12 141.604 307.359 141.75C307.604 141.891 308.013 142.029 308.586 142.164C309.451 142.372 310.083 142.674 310.484 143.07C310.885 143.461 311.086 143.984 311.086 144.641C311.086 145.417 310.802 146.036 310.234 146.5C309.672 146.958 308.909 147.188 307.945 147.188C307.424 147.188 306.924 147.12 306.445 146.984C305.971 146.844 305.518 146.635 305.086 146.359ZM317.125 146.891C316.891 146.99 316.646 147.062 316.391 147.109C316.135 147.156 315.862 147.18 315.57 147.18C314.831 147.18 314.26 146.984 313.859 146.594C313.464 146.198 313.266 145.609 313.266 144.828V140.422H311.922V139H313.266V137.055L315.078 136.508V139H316.992V140.422H315.078V144.68C315.078 145.07 315.148 145.352 315.289 145.523C315.435 145.695 315.659 145.781 315.961 145.781C316.107 145.781 316.245 145.766 316.375 145.734C316.51 145.698 316.63 145.654 316.734 145.602L317.125 146.891ZM324.656 147H322.898V145.797H322.867C322.596 146.26 322.26 146.609 321.859 146.844C321.458 147.073 320.997 147.188 320.477 147.188C319.753 147.188 319.151 146.974 318.672 146.547C318.193 146.115 317.953 145.526 317.953 144.781C317.953 144.073 318.193 143.492 318.672 143.039C319.151 142.581 319.862 142.284 320.805 142.148L322.906 141.867V141.703C322.906 141.161 322.766 140.768 322.484 140.523C322.203 140.279 321.823 140.156 321.344 140.156C320.964 140.156 320.576 140.224 320.18 140.359C319.789 140.495 319.409 140.706 319.039 140.992L318.25 139.906C318.74 139.531 319.245 139.255 319.766 139.078C320.286 138.901 320.859 138.812 321.484 138.812C322.557 138.812 323.354 139.078 323.875 139.609C324.396 140.135 324.656 140.927 324.656 141.984V147ZM322.906 143.75V143.07L321.195 143.297C320.69 143.37 320.31 143.508 320.055 143.711C319.805 143.909 319.68 144.201 319.68 144.586C319.68 144.977 319.799 145.281 320.039 145.5C320.279 145.719 320.586 145.828 320.961 145.828C321.549 145.828 322.021 145.633 322.375 145.242C322.729 144.846 322.906 144.349 322.906 143.75ZM334.039 147H332.227V142.492C332.227 141.747 332.091 141.19 331.82 140.82C331.549 140.445 331.143 140.258 330.602 140.258C330.06 140.258 329.612 140.464 329.258 140.875C328.904 141.286 328.727 141.807 328.727 142.438V147H326.906V139H328.727V140.297H328.758C329.055 139.802 329.419 139.432 329.852 139.188C330.284 138.938 330.786 138.812 331.359 138.812C332.234 138.812 332.898 139.091 333.352 139.648C333.81 140.206 334.039 141.026 334.039 142.109V147ZM340.609 146.891C340.375 146.99 340.13 147.062 339.875 147.109C339.62 147.156 339.346 147.18 339.055 147.18C338.315 147.18 337.745 146.984 337.344 146.594C336.948 146.198 336.75 145.609 336.75 144.828V140.422H335.406V139H336.75V137.055L338.562 136.508V139H340.477V140.422H338.562V144.68C338.562 145.07 338.633 145.352 338.773 145.523C338.919 145.695 339.143 145.781 339.445 145.781C339.591 145.781 339.729 145.766 339.859 145.734C339.995 145.698 340.115 145.654 340.219 145.602L340.609 146.891ZM348.805 143.477H343.344C343.375 144.232 343.594 144.807 344 145.203C344.406 145.594 344.974 145.789 345.703 145.789C346 145.789 346.339 145.729 346.719 145.609C347.099 145.49 347.474 145.297 347.844 145.031L348.664 146.164C348.169 146.523 347.667 146.784 347.156 146.945C346.646 147.107 346.083 147.188 345.469 147.188C344.224 147.188 343.255 146.831 342.562 146.117C341.87 145.398 341.521 144.396 341.516 143.109C341.516 141.828 341.872 140.792 342.586 140C343.305 139.208 344.224 138.812 345.344 138.812C346.417 138.812 347.26 139.151 347.875 139.828C348.495 140.5 348.805 141.453 348.805 142.688V143.477ZM347.047 142.219C347.047 141.531 346.896 141.016 346.594 140.672C346.297 140.323 345.875 140.148 345.328 140.148C344.812 140.148 344.372 140.336 344.008 140.711C343.648 141.081 343.427 141.583 343.344 142.219H347.047ZM223.422 160L219.742 169.508C219.456 170.242 219.065 170.802 218.57 171.188C218.081 171.573 217.495 171.766 216.812 171.766C216.615 171.766 216.427 171.753 216.25 171.727C216.078 171.706 215.909 171.674 215.742 171.633L216.062 170.219C216.172 170.255 216.273 170.281 216.367 170.297C216.461 170.312 216.562 170.32 216.672 170.32C216.969 170.32 217.221 170.245 217.43 170.094C217.638 169.943 217.805 169.719 217.93 169.422L218.539 167.984L215.359 160H217.375L219.234 165.57C219.26 165.659 219.289 165.773 219.32 165.914C219.352 166.049 219.385 166.208 219.422 166.391H219.461C219.482 166.286 219.508 166.169 219.539 166.039C219.57 165.904 219.612 165.753 219.664 165.586L221.594 160H223.422ZM235.031 167.508C234.635 167.747 234.242 167.919 233.852 168.023C233.461 168.133 233.036 168.188 232.578 168.188C231.349 168.188 230.365 167.828 229.625 167.109C228.891 166.391 228.523 165.414 228.523 164.18C228.523 162.852 228.904 161.792 229.664 161C230.43 160.208 231.461 159.812 232.758 159.812C233.211 159.812 233.622 159.862 233.992 159.961C234.367 160.055 234.747 160.211 235.133 160.43L234.422 161.695C234.151 161.544 233.885 161.435 233.625 161.367C233.365 161.294 233.081 161.258 232.773 161.258C232.008 161.258 231.417 161.51 231 162.016C230.583 162.521 230.375 163.19 230.375 164.023C230.375 164.898 230.599 165.57 231.047 166.039C231.5 166.508 232.068 166.742 232.75 166.742C232.958 166.742 233.198 166.706 233.469 166.633C233.74 166.555 234.013 166.432 234.289 166.266L235.031 167.508ZM240.125 168.188C238.875 168.188 237.883 167.815 237.148 167.07C236.419 166.32 236.055 165.318 236.055 164.062C236.06 162.734 236.44 161.695 237.195 160.945C237.951 160.19 238.979 159.812 240.281 159.812C241.536 159.807 242.516 160.177 243.219 160.922C243.927 161.661 244.281 162.664 244.281 163.93C244.281 165.232 243.906 166.268 243.156 167.039C242.411 167.805 241.401 168.188 240.125 168.188ZM240.211 166.742C240.935 166.742 241.484 166.505 241.859 166.031C242.24 165.557 242.43 164.872 242.43 163.977C242.43 163.091 242.24 162.417 241.859 161.953C241.479 161.49 240.927 161.258 240.203 161.258C239.49 161.258 238.927 161.503 238.516 161.992C238.109 162.482 237.906 163.159 237.906 164.023C237.906 164.893 238.109 165.565 238.516 166.039C238.922 166.508 239.487 166.742 240.211 166.742ZM253.266 168H251.453V163.492C251.453 162.747 251.318 162.19 251.047 161.82C250.776 161.445 250.37 161.258 249.828 161.258C249.286 161.258 248.839 161.464 248.484 161.875C248.13 162.286 247.953 162.807 247.953 163.438V168H246.133V160H247.953V161.297H247.984C248.281 160.802 248.646 160.432 249.078 160.188C249.51 159.938 250.013 159.812 250.586 159.812C251.461 159.812 252.125 160.091 252.578 160.648C253.036 161.206 253.266 162.026 253.266 163.109V168ZM259.805 157.586C259.659 157.529 259.526 157.49 259.406 157.469C259.286 157.443 259.156 157.43 259.016 157.43C258.63 157.43 258.339 157.542 258.141 157.766C257.948 157.984 257.852 158.302 257.852 158.719V160H259.703V161.422H257.852V168H256.039V161.422H254.68V160H256.039V158.625C256.039 157.812 256.299 157.169 256.82 156.695C257.346 156.216 258.042 155.977 258.906 155.977C259.177 155.977 259.411 155.995 259.609 156.031C259.807 156.068 260.013 156.12 260.227 156.188L259.805 157.586ZM261.914 158.453C261.581 158.453 261.305 158.346 261.086 158.133C260.867 157.919 260.758 157.656 260.758 157.344C260.758 157.021 260.867 156.755 261.086 156.547C261.305 156.339 261.581 156.234 261.914 156.234C262.253 156.234 262.531 156.339 262.75 156.547C262.969 156.755 263.078 157.021 263.078 157.344C263.078 157.661 262.969 157.927 262.75 158.141C262.531 158.349 262.253 158.453 261.914 158.453ZM262.812 168H260.992V160H262.812V168ZM271.289 168H269.531V166.797H269.5C269.229 167.26 268.893 167.609 268.492 167.844C268.091 168.073 267.63 168.188 267.109 168.188C266.385 168.188 265.784 167.974 265.305 167.547C264.826 167.115 264.586 166.526 264.586 165.781C264.586 165.073 264.826 164.492 265.305 164.039C265.784 163.581 266.495 163.284 267.438 163.148L269.539 162.867V162.703C269.539 162.161 269.398 161.768 269.117 161.523C268.836 161.279 268.456 161.156 267.977 161.156C267.596 161.156 267.208 161.224 266.812 161.359C266.422 161.495 266.042 161.706 265.672 161.992L264.883 160.906C265.372 160.531 265.878 160.255 266.398 160.078C266.919 159.901 267.492 159.812 268.117 159.812C269.19 159.812 269.987 160.078 270.508 160.609C271.029 161.135 271.289 161.927 271.289 162.984V168ZM269.539 164.75V164.07L267.828 164.297C267.323 164.37 266.943 164.508 266.688 164.711C266.438 164.909 266.312 165.201 266.312 165.586C266.312 165.977 266.432 166.281 266.672 166.5C266.911 166.719 267.219 166.828 267.594 166.828C268.182 166.828 268.654 166.633 269.008 166.242C269.362 165.846 269.539 165.349 269.539 164.75ZM275.391 167.016H275.359V168H273.539V156.156H275.359V161.312H275.391C275.698 160.812 276.076 160.438 276.523 160.188C276.971 159.938 277.49 159.812 278.078 159.812C279.109 159.812 279.909 160.169 280.477 160.883C281.049 161.591 281.336 162.552 281.336 163.766C281.336 165.104 281.008 166.177 280.352 166.984C279.701 167.786 278.82 168.188 277.711 168.188C277.201 168.188 276.75 168.091 276.359 167.898C275.974 167.701 275.651 167.406 275.391 167.016ZM275.336 163.656V164.633C275.336 165.232 275.521 165.734 275.891 166.141C276.26 166.542 276.732 166.742 277.305 166.742C277.987 166.742 278.518 166.482 278.898 165.961C279.279 165.44 279.469 164.711 279.469 163.773C279.469 162.982 279.292 162.365 278.938 161.922C278.583 161.479 278.096 161.258 277.477 161.258C276.841 161.258 276.326 161.484 275.93 161.938C275.534 162.385 275.336 162.958 275.336 163.656ZM283.18 168V156.156H285V168H283.18ZM294.141 164.477H288.68C288.711 165.232 288.93 165.807 289.336 166.203C289.742 166.594 290.31 166.789 291.039 166.789C291.336 166.789 291.674 166.729 292.055 166.609C292.435 166.49 292.81 166.297 293.18 166.031L294 167.164C293.505 167.523 293.003 167.784 292.492 167.945C291.982 168.107 291.419 168.188 290.805 168.188C289.56 168.188 288.591 167.831 287.898 167.117C287.206 166.398 286.857 165.396 286.852 164.109C286.852 162.828 287.208 161.792 287.922 161C288.641 160.208 289.56 159.812 290.68 159.812C291.753 159.812 292.596 160.151 293.211 160.828C293.831 161.5 294.141 162.453 294.141 163.688V164.477ZM292.383 163.219C292.383 162.531 292.232 162.016 291.93 161.672C291.633 161.323 291.211 161.148 290.664 161.148C290.148 161.148 289.708 161.336 289.344 161.711C288.984 162.081 288.763 162.583 288.68 163.219H292.383Z" fill="#585857"/>
<path d="M541.514 74.4664C552.291 74.4664 561.027 65.7298 561.027 54.9528C561.027 44.1757 552.291 35.4392 541.514 35.4392C530.737 35.4392 522 44.1757 522 54.9528C522 65.7298 530.737 74.4664 541.514 74.4664Z" stroke="#295E4D" stroke-width="3.8" stroke-linecap="round" stroke-linejoin="round"/>
<mask id="path-9-inside-1_284_934" fill="white">
<path d="M534.369 54.997C532.95 54.997 531.813 54.5469 530.945 53.6508C530.081 52.7547 529.647 51.5451 529.647 50.0262C529.647 48.3706 530.109 47.0565 531.029 46.0841C531.95 45.1116 533.179 44.6254 534.714 44.6254C536.249 44.6254 537.334 45.0634 538.166 45.9434C538.994 46.8235 539.408 48.0571 539.408 49.6524C539.408 51.2478 538.95 52.5939 538.034 53.5544C537.117 54.5188 535.896 54.997 534.369 54.997ZM548.755 44.9026L535.856 64.814H532.496L545.395 44.9026H548.755ZM534.63 47.1248C533.955 47.1248 533.449 47.3499 533.111 47.7999C532.773 48.25 532.605 48.9452 532.605 49.8895C532.605 50.7776 532.765 51.4366 533.091 51.8626C533.416 52.2885 533.895 52.5015 534.534 52.5015C535.172 52.5015 535.683 52.2805 536.012 51.8345C536.342 51.3884 536.507 50.7053 536.507 49.777C536.507 48.8488 536.35 48.2018 536.04 47.7718C535.731 47.3418 535.261 47.1248 534.63 47.1248ZM546.492 65.0953C545.074 65.0953 543.937 64.6453 543.069 63.7492C542.205 62.853 541.771 61.6435 541.771 60.1245C541.771 58.4689 542.233 57.1509 543.153 56.1824C544.073 55.21 545.303 54.7237 546.838 54.7237C548.373 54.7237 549.47 55.1577 550.294 56.0297C551.118 56.9017 551.532 58.1314 551.532 59.7227C551.532 61.314 551.073 62.6682 550.157 63.6366C549.241 64.6091 548.019 65.0953 546.492 65.0953ZM546.713 57.2192C546.046 57.2192 545.544 57.4442 545.207 57.8943C544.869 58.3443 544.7 59.0395 544.7 59.9839C544.7 60.8719 544.865 61.531 545.194 61.9569C545.524 62.3829 546.01 62.5959 546.661 62.5959C547.312 62.5959 547.81 62.3748 548.14 61.9288C548.469 61.4827 548.634 60.7996 548.634 59.8754C548.634 59.0154 548.457 58.3564 548.108 57.9023C547.758 57.4482 547.292 57.2232 546.717 57.2232L546.713 57.2192Z"/>
</mask>
<path d="M534.369 54.997C532.95 54.997 531.813 54.5469 530.945 53.6508C530.081 52.7547 529.647 51.5451 529.647 50.0262C529.647 48.3706 530.109 47.0565 531.029 46.0841C531.95 45.1116 533.179 44.6254 534.714 44.6254C536.249 44.6254 537.334 45.0634 538.166 45.9434C538.994 46.8235 539.408 48.0571 539.408 49.6524C539.408 51.2478 538.95 52.5939 538.034 53.5544C537.117 54.5188 535.896 54.997 534.369 54.997ZM548.755 44.9026L535.856 64.814H532.496L545.395 44.9026H548.755ZM534.63 47.1248C533.955 47.1248 533.449 47.3499 533.111 47.7999C532.773 48.25 532.605 48.9452 532.605 49.8895C532.605 50.7776 532.765 51.4366 533.091 51.8626C533.416 52.2885 533.895 52.5015 534.534 52.5015C535.172 52.5015 535.683 52.2805 536.012 51.8345C536.342 51.3884 536.507 50.7053 536.507 49.777C536.507 48.8488 536.35 48.2018 536.04 47.7718C535.731 47.3418 535.261 47.1248 534.63 47.1248ZM546.492 65.0953C545.074 65.0953 543.937 64.6453 543.069 63.7492C542.205 62.853 541.771 61.6435 541.771 60.1245C541.771 58.4689 542.233 57.1509 543.153 56.1824C544.073 55.21 545.303 54.7237 546.838 54.7237C548.373 54.7237 549.47 55.1577 550.294 56.0297C551.118 56.9017 551.532 58.1314 551.532 59.7227C551.532 61.314 551.073 62.6682 550.157 63.6366C549.241 64.6091 548.019 65.0953 546.492 65.0953ZM546.713 57.2192C546.046 57.2192 545.544 57.4442 545.207 57.8943C544.869 58.3443 544.7 59.0395 544.7 59.9839C544.7 60.8719 544.865 61.531 545.194 61.9569C545.524 62.3829 546.01 62.5959 546.661 62.5959C547.312 62.5959 547.81 62.3748 548.14 61.9288C548.469 61.4827 548.634 60.7996 548.634 59.8754C548.634 59.0154 548.457 58.3564 548.108 57.9023C547.758 57.4482 547.292 57.2232 546.717 57.2232L546.713 57.2192Z" fill="#2B2B2B"/>
<path d="M530.945 53.6508L528.209 56.2883L528.216 56.2946L530.945 53.6508ZM538.166 45.9434L540.934 43.3398L540.928 43.3331L538.166 45.9434ZM538.034 53.5544L535.284 50.9314L535.279 50.9371L538.034 53.5544ZM548.755 44.9026L551.944 46.9687L555.744 41.1026H548.755V44.9026ZM535.856 64.814V68.614H537.922L539.045 66.8801L535.856 64.814ZM532.496 64.814L529.307 62.748L525.507 68.614H532.496V64.814ZM545.395 44.9026V41.1026H543.329L542.206 42.8365L545.395 44.9026ZM543.069 63.7492L540.333 66.3866L540.339 66.393L543.069 63.7492ZM543.153 56.1824L545.908 58.8L545.913 58.7943L543.153 56.1824ZM550.157 63.6366L547.397 61.0251L547.391 61.0308L550.157 63.6366ZM546.713 57.2192L549.4 54.5317L548.287 53.4192H546.713V57.2192ZM546.717 57.2232L544.031 59.9107L545.144 61.0232H546.717V57.2232ZM534.369 54.997V51.197C533.835 51.197 533.732 51.0664 533.675 51.007L530.945 53.6508L528.216 56.2946C529.894 58.0275 532.066 58.797 534.369 58.797V54.997ZM530.945 53.6508L533.681 51.0133C533.642 50.9733 533.447 50.7879 533.447 50.0262H529.647H525.847C525.847 52.3023 526.52 54.5361 528.209 56.2883L530.945 53.6508ZM529.647 50.0262H533.447C533.447 49.1046 533.684 48.8072 533.79 48.6959L531.029 46.0841L528.269 43.4722C526.534 45.3058 525.847 47.6365 525.847 50.0262H529.647ZM531.029 46.0841L533.79 48.6959C533.884 48.5966 534.054 48.4254 534.714 48.4254V44.6254V40.8254C532.304 40.8254 530.016 41.6266 528.269 43.4722L531.029 46.0841ZM534.714 44.6254V48.4254C535.123 48.4254 535.295 48.4838 535.332 48.4982C535.351 48.5055 535.356 48.5094 535.357 48.5097C535.358 48.5105 535.374 48.5209 535.405 48.5537L538.166 45.9434L540.928 43.3331C539.242 41.55 537.079 40.8254 534.714 40.8254V44.6254ZM538.166 45.9434L535.398 48.547C535.408 48.5573 535.448 48.5987 535.494 48.7366C535.546 48.8897 535.608 49.1768 535.608 49.6524H539.408H543.208C543.208 47.4049 542.613 45.125 540.934 43.3398L538.166 45.9434ZM539.408 49.6524H535.608C535.608 50.5302 535.366 50.8454 535.284 50.9314L538.034 53.5544L540.783 56.1773C542.534 54.3425 543.208 51.9653 543.208 49.6524H539.408ZM538.034 53.5544L535.279 50.9371C535.193 51.027 535.031 51.197 534.369 51.197V54.997V58.797C536.76 58.797 539.042 58.0106 540.789 56.1716L538.034 53.5544ZM548.755 44.9026L545.566 42.8365L532.666 62.748L535.856 64.814L539.045 66.8801L551.944 46.9687L548.755 44.9026ZM535.856 64.814V61.014H532.496V64.814V68.614H535.856V64.814ZM532.496 64.814L535.685 66.8801L548.585 46.9687L545.395 44.9026L542.206 42.8365L529.307 62.748L532.496 64.814ZM545.395 44.9026V48.7026H548.755V44.9026V41.1026H545.395V44.9026ZM534.63 47.1248V43.3248C533.028 43.3248 531.274 43.9166 530.071 45.5199L533.111 47.7999L536.151 50.0799C535.937 50.3652 535.636 50.6111 535.287 50.7661C534.961 50.9113 534.711 50.9248 534.63 50.9248V47.1248ZM533.111 47.7999L530.071 45.5199C529.005 46.9408 528.805 48.627 528.805 49.8895H532.605H536.405C536.405 49.7651 536.41 49.6757 536.416 49.6169C536.422 49.5577 536.428 49.5396 536.424 49.5547C536.419 49.5768 536.363 49.7969 536.151 50.0799L533.111 47.7999ZM532.605 49.8895H528.805C528.805 51.0988 528.998 52.7651 530.072 54.1698L533.091 51.8626L536.11 49.5553C536.339 49.8542 536.404 50.0959 536.416 50.1423C536.427 50.1869 536.405 50.1186 536.405 49.8895H532.605ZM533.091 51.8626L530.072 54.1698C531.253 55.7159 532.956 56.3015 534.534 56.3015V52.5015V48.7015C534.633 48.7015 534.898 48.7185 535.235 48.8681C535.593 49.0269 535.896 49.275 536.11 49.5553L533.091 51.8626ZM534.534 52.5015V56.3015C536.097 56.3015 537.871 55.7142 539.069 54.0924L536.012 51.8345L532.956 49.5765C533.186 49.2647 533.499 49.0177 533.84 48.8654C534.162 48.7214 534.419 48.7015 534.534 48.7015V52.5015ZM536.012 51.8345L539.069 54.0924C540.109 52.6845 540.307 51.0258 540.307 49.777H536.507H532.707C532.707 49.8982 532.701 49.9847 532.695 50.0411C532.69 50.0979 532.684 50.1143 532.688 50.0981C532.694 50.073 532.749 49.856 532.956 49.5765L536.012 51.8345ZM536.507 49.777H540.307C540.307 48.5385 540.12 46.9351 539.125 45.5522L536.04 47.7718L532.956 49.9914C532.757 49.7144 532.699 49.4953 532.69 49.4563C532.685 49.4359 532.69 49.4493 532.696 49.5057C532.701 49.5618 532.707 49.6503 532.707 49.777H536.507ZM536.04 47.7718L539.125 45.5522C537.965 43.9402 536.229 43.3248 534.63 43.3248V47.1248V50.9248C534.513 50.9248 534.227 50.9044 533.869 50.7401C533.49 50.566 533.175 50.2953 532.956 49.9914L536.04 47.7718ZM546.492 65.0953V61.2953C545.958 61.2953 545.856 61.1647 545.798 61.1053L543.069 63.7492L540.339 66.393C542.018 68.1258 544.19 68.8953 546.492 68.8953V65.0953ZM543.069 63.7492L545.804 61.1117C545.766 61.0717 545.571 60.8863 545.571 60.1245H541.771H537.971C537.971 62.4007 538.644 64.6344 540.333 66.3866L543.069 63.7492ZM541.771 60.1245H545.571C545.571 59.1979 545.81 58.9024 545.908 58.8L543.153 56.1824L540.398 53.5649C538.655 55.3993 537.971 57.7399 537.971 60.1245H541.771ZM543.153 56.1824L545.913 58.7943C546.007 58.695 546.178 58.5237 546.838 58.5237V54.7237V50.9237C544.428 50.9237 542.139 51.7249 540.393 53.5706L543.153 56.1824ZM546.838 54.7237V58.5237C547.251 58.5237 547.432 58.5824 547.476 58.5993C547.488 58.604 547.495 58.6073 547.497 58.6085C547.5 58.6098 547.501 58.6103 547.501 58.6104C547.501 58.6105 547.503 58.6117 547.507 58.6153C547.511 58.6189 547.519 58.6263 547.532 58.6393L550.294 56.0297L553.056 53.4202C551.364 51.6286 549.176 50.9237 546.838 50.9237V54.7237ZM550.294 56.0297L547.532 58.6393C547.536 58.6437 547.574 58.6801 547.619 58.8152C547.669 58.9652 547.732 59.2497 547.732 59.7227H551.532H555.332C555.332 57.48 554.737 55.1997 553.056 53.4202L550.294 56.0297ZM551.532 59.7227H547.732C547.732 60.5964 547.489 60.9273 547.397 61.0251L550.157 63.6366L552.918 66.2482C554.658 64.4091 555.332 62.0316 555.332 59.7227H551.532ZM550.157 63.6366L547.391 61.0308C547.299 61.1294 547.136 61.2953 546.492 61.2953V65.0953V68.8953C548.902 68.8953 551.184 68.0888 552.923 66.2424L550.157 63.6366ZM546.713 57.2192V53.4192C545.101 53.4192 543.36 54.0232 542.167 55.6143L545.207 57.8943L548.247 60.1743C548.038 60.4529 547.74 60.6988 547.39 60.8558C547.06 61.0036 546.804 61.0192 546.713 61.0192V57.2192ZM545.207 57.8943L542.167 55.6143C541.101 57.0351 540.9 58.7213 540.9 59.9839H544.7H548.5C548.5 59.8595 548.506 59.7701 548.512 59.7113C548.518 59.652 548.523 59.6339 548.52 59.649C548.514 59.6712 548.459 59.8913 548.247 60.1743L545.207 57.8943ZM544.7 59.9839H540.9C540.9 61.2099 541.104 62.8792 542.189 64.282L545.194 61.9569L548.2 59.6318C548.429 59.9277 548.497 60.1691 548.51 60.2207C548.522 60.27 548.5 60.2069 548.5 59.9839H544.7ZM545.194 61.9569L542.189 64.282C543.386 65.8293 545.099 66.3959 546.661 66.3959V62.5959V58.7959C546.746 58.7959 546.998 58.8098 547.327 58.9531C547.677 59.1058 547.981 59.3485 548.2 59.6318L545.194 61.9569ZM546.661 62.5959V66.3959C548.251 66.3959 550.005 65.7992 551.196 64.1867L548.14 61.9288L545.084 59.6709C545.302 59.3753 545.609 59.1228 545.964 58.9632C546.298 58.8132 546.56 58.7959 546.661 58.7959V62.5959ZM548.14 61.9288L551.196 64.1867C552.236 62.7799 552.434 61.1223 552.434 59.8754H548.634H544.834C544.834 59.995 544.829 60.0805 544.823 60.1361C544.817 60.1921 544.812 60.2081 544.816 60.1917C544.822 60.1666 544.877 59.95 545.084 59.6709L548.14 61.9288ZM548.634 59.8754H552.434C552.434 58.5703 552.177 56.9586 551.119 55.5841L548.108 57.9023L545.097 60.2205C544.914 59.983 544.849 59.7848 544.831 59.7175C544.815 59.657 544.834 59.6958 544.834 59.8754H548.634ZM548.108 57.9023L551.119 55.5841C550.036 54.1773 548.448 53.4232 546.717 53.4232V57.2232V61.0232C546.498 61.0232 546.179 60.977 545.833 60.8089C545.486 60.6397 545.244 60.411 545.097 60.2205L548.108 57.9023ZM546.717 57.2232L549.404 54.5357L549.4 54.5317L546.713 57.2192L544.027 59.9067L544.031 59.9107L546.717 57.2232Z" fill="#295E4D" mask="url(#path-9-inside-1_284_934)"/>
<path d="M565.046 118.561C575.168 118.561 585.001 109.583 582.767 98.5087C580.533 87.4338 564.708 65.5654 564.708 65.5654C564.708 65.5654 548.883 87.4338 546.649 98.5087C544.415 109.583 554.252 118.561 564.371 118.561H565.042H565.046Z" stroke="#295E4D" stroke-width="3.8" stroke-linecap="round" stroke-linejoin="round"/>
<path d="M586.448 107.414C594.754 105.26 601.577 97.3595 599.681 87.9443C597.446 76.8695 581.622 55.0011 581.622 55.0011C581.622 55.0011 577.234 61.0649 572.749 68.4267" stroke="#295E4D" stroke-width="3.8" stroke-linecap="round" stroke-linejoin="round"/>
<path d="M553.01 101.828C553.01 101.828 553.653 108.559 561.316 111.641" stroke="#295E4D" stroke-width="3.8" stroke-linecap="round" stroke-linejoin="round"/>
<path d="M499.414 146.445C498.852 146.706 498.305 146.893 497.773 147.008C497.242 147.128 496.664 147.188 496.039 147.188C494.326 147.188 492.984 146.688 492.016 145.688C491.047 144.682 490.562 143.312 490.562 141.578C490.562 139.807 491.096 138.37 492.164 137.266C493.237 136.161 494.641 135.609 496.375 135.609C496.932 135.609 497.443 135.656 497.906 135.75C498.375 135.839 498.859 135.984 499.359 136.188L498.758 137.703C498.362 137.542 497.977 137.424 497.602 137.352C497.232 137.279 496.831 137.242 496.398 137.242C495.263 137.242 494.331 137.62 493.602 138.375C492.878 139.13 492.516 140.156 492.516 141.453C492.516 142.719 492.852 143.719 493.523 144.453C494.195 145.182 495.096 145.547 496.227 145.547C496.596 145.547 496.992 145.5 497.414 145.406C497.836 145.312 498.271 145.159 498.719 144.945L499.414 146.445ZM504.562 147.188C503.312 147.188 502.32 146.815 501.586 146.07C500.857 145.32 500.492 144.318 500.492 143.062C500.497 141.734 500.878 140.695 501.633 139.945C502.388 139.19 503.417 138.812 504.719 138.812C505.974 138.807 506.953 139.177 507.656 139.922C508.365 140.661 508.719 141.664 508.719 142.93C508.719 144.232 508.344 145.268 507.594 146.039C506.849 146.805 505.839 147.188 504.562 147.188ZM504.648 145.742C505.372 145.742 505.922 145.505 506.297 145.031C506.677 144.557 506.867 143.872 506.867 142.977C506.867 142.091 506.677 141.417 506.297 140.953C505.917 140.49 505.365 140.258 504.641 140.258C503.927 140.258 503.365 140.503 502.953 140.992C502.547 141.482 502.344 142.159 502.344 143.023C502.344 143.893 502.547 144.565 502.953 145.039C503.359 145.508 503.924 145.742 504.648 145.742ZM517.703 147H515.891V142.492C515.891 141.747 515.755 141.19 515.484 140.82C515.214 140.445 514.807 140.258 514.266 140.258C513.724 140.258 513.276 140.464 512.922 140.875C512.568 141.286 512.391 141.807 512.391 142.438V147H510.57V139H512.391V140.297H512.422C512.719 139.802 513.083 139.432 513.516 139.188C513.948 138.938 514.451 138.812 515.023 138.812C515.898 138.812 516.562 139.091 517.016 139.648C517.474 140.206 517.703 141.026 517.703 142.109V147ZM524.273 146.891C524.039 146.99 523.794 147.062 523.539 147.109C523.284 147.156 523.01 147.18 522.719 147.18C521.979 147.18 521.409 146.984 521.008 146.594C520.612 146.198 520.414 145.609 520.414 144.828V140.422H519.07V139H520.414V137.055L522.227 136.508V139H524.141V140.422H522.227V144.68C522.227 145.07 522.297 145.352 522.438 145.523C522.583 145.695 522.807 145.781 523.109 145.781C523.255 145.781 523.393 145.766 523.523 145.734C523.659 145.698 523.779 145.654 523.883 145.602L524.273 146.891ZM530.148 140.523C530.049 140.497 529.953 140.479 529.859 140.469C529.771 140.453 529.667 140.445 529.547 140.445C528.896 140.445 528.396 140.685 528.047 141.164C527.698 141.643 527.523 142.268 527.523 143.039V147H525.703V139H527.523V140.539H527.555C527.742 139.987 528.018 139.57 528.383 139.289C528.747 139.003 529.177 138.859 529.672 138.859C529.812 138.859 529.938 138.867 530.047 138.883C530.161 138.898 530.271 138.922 530.375 138.953L530.148 140.523ZM535.172 147.188C533.922 147.188 532.93 146.815 532.195 146.07C531.466 145.32 531.102 144.318 531.102 143.062C531.107 141.734 531.487 140.695 532.242 139.945C532.997 139.19 534.026 138.812 535.328 138.812C536.583 138.807 537.562 139.177 538.266 139.922C538.974 140.661 539.328 141.664 539.328 142.93C539.328 144.232 538.953 145.268 538.203 146.039C537.458 146.805 536.448 147.188 535.172 147.188ZM535.258 145.742C535.982 145.742 536.531 145.505 536.906 145.031C537.286 144.557 537.477 143.872 537.477 142.977C537.477 142.091 537.286 141.417 536.906 140.953C536.526 140.49 535.974 140.258 535.25 140.258C534.536 140.258 533.974 140.503 533.562 140.992C533.156 141.482 532.953 142.159 532.953 143.023C532.953 143.893 533.156 144.565 533.562 145.039C533.969 145.508 534.534 145.742 535.258 145.742ZM541.18 147V135.156H543V147H541.18ZM555.203 145.758C554.917 146.237 554.555 146.596 554.117 146.836C553.68 147.07 553.167 147.188 552.578 147.188C551.578 147.188 550.773 146.833 550.164 146.125C549.56 145.411 549.258 144.432 549.258 143.188C549.258 141.865 549.591 140.805 550.258 140.008C550.93 139.211 551.815 138.812 552.914 138.812C553.451 138.812 553.909 138.914 554.289 139.117C554.669 139.315 554.974 139.617 555.203 140.023H555.234V135.156H557.055V147H555.234V145.758H555.203ZM551.109 143.117C551.109 143.94 551.294 144.583 551.664 145.047C552.034 145.51 552.536 145.742 553.172 145.742C553.792 145.742 554.294 145.51 554.68 145.047C555.065 144.583 555.258 143.987 555.258 143.258V142.344C555.258 141.75 555.073 141.255 554.703 140.859C554.333 140.458 553.859 140.258 553.281 140.258C552.604 140.258 552.073 140.513 551.688 141.023C551.302 141.529 551.109 142.227 551.109 143.117ZM566.188 143.477H560.727C560.758 144.232 560.977 144.807 561.383 145.203C561.789 145.594 562.357 145.789 563.086 145.789C563.383 145.789 563.721 145.729 564.102 145.609C564.482 145.49 564.857 145.297 565.227 145.031L566.047 146.164C565.552 146.523 565.049 146.784 564.539 146.945C564.029 147.107 563.466 147.188 562.852 147.188C561.607 147.188 560.638 146.831 559.945 146.117C559.253 145.398 558.904 144.396 558.898 143.109C558.898 141.828 559.255 140.792 559.969 140C560.688 139.208 561.607 138.812 562.727 138.812C563.799 138.812 564.643 139.151 565.258 139.828C565.878 140.5 566.188 141.453 566.188 142.688V143.477ZM564.43 142.219C564.43 141.531 564.279 141.016 563.977 140.672C563.68 140.323 563.258 140.148 562.711 140.148C562.195 140.148 561.755 140.336 561.391 140.711C561.031 141.081 560.81 141.583 560.727 142.219H564.43ZM579.43 147H577.617V142.422C577.617 141.698 577.484 141.156 577.219 140.797C576.953 140.438 576.552 140.258 576.016 140.258C575.479 140.258 575.031 140.464 574.672 140.875C574.318 141.286 574.141 141.812 574.141 142.453V147H572.32V135.156H574.141V140.266H574.172C574.474 139.776 574.839 139.411 575.266 139.172C575.693 138.932 576.177 138.812 576.719 138.812C577.62 138.812 578.297 139.086 578.75 139.633C579.203 140.174 579.43 140.99 579.43 142.078V147ZM588.617 147H586.797V145.758H586.766C586.484 146.232 586.138 146.589 585.727 146.828C585.315 147.068 584.841 147.188 584.305 147.188C583.367 147.188 582.661 146.906 582.188 146.344C581.719 145.781 581.484 144.935 581.484 143.805V139H583.289V143.594C583.289 144.312 583.427 144.852 583.703 145.211C583.984 145.565 584.404 145.742 584.961 145.742C585.503 145.742 585.943 145.547 586.281 145.156C586.625 144.766 586.797 144.245 586.797 143.594V139H588.617V147ZM602.953 147H601.141V142.422C601.141 141.672 601.016 141.125 600.766 140.781C600.521 140.432 600.125 140.258 599.578 140.258C599.094 140.258 598.688 140.474 598.359 140.906C598.036 141.333 597.875 141.857 597.875 142.477V147H596.062V142.312C596.062 141.625 595.93 141.112 595.664 140.773C595.404 140.43 595.013 140.258 594.492 140.258C593.992 140.258 593.586 140.464 593.273 140.875C592.961 141.281 592.805 141.82 592.805 142.492V147H590.984V139H592.805V140.258H592.836C593.107 139.799 593.458 139.445 593.891 139.195C594.328 138.94 594.82 138.812 595.367 138.812C595.919 138.812 596.393 138.951 596.789 139.227C597.19 139.503 597.479 139.891 597.656 140.391C597.958 139.865 598.331 139.471 598.773 139.211C599.216 138.945 599.734 138.812 600.328 138.812C601.203 138.812 601.859 139.083 602.297 139.625C602.734 140.161 602.953 140.969 602.953 142.047V147ZM611.922 143.477H606.461C606.492 144.232 606.711 144.807 607.117 145.203C607.523 145.594 608.091 145.789 608.82 145.789C609.117 145.789 609.456 145.729 609.836 145.609C610.216 145.49 610.591 145.297 610.961 145.031L611.781 146.164C611.286 146.523 610.784 146.784 610.273 146.945C609.763 147.107 609.201 147.188 608.586 147.188C607.341 147.188 606.372 146.831 605.68 146.117C604.987 145.398 604.638 144.396 604.633 143.109C604.633 141.828 604.99 140.792 605.703 140C606.422 139.208 607.341 138.812 608.461 138.812C609.534 138.812 610.378 139.151 610.992 139.828C611.612 140.5 611.922 141.453 611.922 142.688V143.477ZM610.164 142.219C610.164 141.531 610.013 141.016 609.711 140.672C609.414 140.323 608.992 140.148 608.445 140.148C607.93 140.148 607.49 140.336 607.125 140.711C606.766 141.081 606.544 141.583 606.461 142.219H610.164ZM619.078 145.758C618.792 146.237 618.43 146.596 617.992 146.836C617.555 147.07 617.042 147.188 616.453 147.188C615.453 147.188 614.648 146.833 614.039 146.125C613.435 145.411 613.133 144.432 613.133 143.188C613.133 141.865 613.466 140.805 614.133 140.008C614.805 139.211 615.69 138.812 616.789 138.812C617.326 138.812 617.784 138.914 618.164 139.117C618.544 139.315 618.849 139.617 619.078 140.023H619.109V135.156H620.93V147H619.109V145.758H619.078ZM614.984 143.117C614.984 143.94 615.169 144.583 615.539 145.047C615.909 145.51 616.411 145.742 617.047 145.742C617.667 145.742 618.169 145.51 618.555 145.047C618.94 144.583 619.133 143.987 619.133 143.258V142.344C619.133 141.75 618.948 141.255 618.578 140.859C618.208 140.458 617.734 140.258 617.156 140.258C616.479 140.258 615.948 140.513 615.562 141.023C615.177 141.529 614.984 142.227 614.984 143.117ZM629.398 147H627.641V145.797H627.609C627.339 146.26 627.003 146.609 626.602 146.844C626.201 147.073 625.74 147.188 625.219 147.188C624.495 147.188 623.893 146.974 623.414 146.547C622.935 146.115 622.695 145.526 622.695 144.781C622.695 144.073 622.935 143.492 623.414 143.039C623.893 142.581 624.604 142.284 625.547 142.148L627.648 141.867V141.703C627.648 141.161 627.508 140.768 627.227 140.523C626.945 140.279 626.565 140.156 626.086 140.156C625.706 140.156 625.318 140.224 624.922 140.359C624.531 140.495 624.151 140.706 623.781 140.992L622.992 139.906C623.482 139.531 623.987 139.255 624.508 139.078C625.029 138.901 625.602 138.812 626.227 138.812C627.299 138.812 628.096 139.078 628.617 139.609C629.138 140.135 629.398 140.927 629.398 141.984V147ZM627.648 143.75V143.07L625.938 143.297C625.432 143.37 625.052 143.508 624.797 143.711C624.547 143.909 624.422 144.201 624.422 144.586C624.422 144.977 624.542 145.281 624.781 145.5C625.021 145.719 625.328 145.828 625.703 145.828C626.292 145.828 626.763 145.633 627.117 145.242C627.471 144.846 627.648 144.349 627.648 143.75ZM637.078 145.758C636.792 146.237 636.43 146.596 635.992 146.836C635.555 147.07 635.042 147.188 634.453 147.188C633.453 147.188 632.648 146.833 632.039 146.125C631.435 145.411 631.133 144.432 631.133 143.188C631.133 141.865 631.466 140.805 632.133 140.008C632.805 139.211 633.69 138.812 634.789 138.812C635.326 138.812 635.784 138.914 636.164 139.117C636.544 139.315 636.849 139.617 637.078 140.023H637.109V135.156H638.93V147H637.109V145.758H637.078ZM632.984 143.117C632.984 143.94 633.169 144.583 633.539 145.047C633.909 145.51 634.411 145.742 635.047 145.742C635.667 145.742 636.169 145.51 636.555 145.047C636.94 144.583 637.133 143.987 637.133 143.258V142.344C637.133 141.75 636.948 141.255 636.578 140.859C636.208 140.458 635.734 140.258 635.156 140.258C634.479 140.258 633.948 140.513 633.562 141.023C633.177 141.529 632.984 142.227 632.984 143.117Z" fill="#585857"/>
<path d="M909.412 37H852.135C849.042 37 846.534 39.5211 846.534 42.6311V100.223C846.534 103.333 849.042 105.854 852.135 105.854H909.412C912.505 105.854 915.012 103.333 915.012 100.223V42.6311C915.012 39.5211 912.505 37 909.412 37Z" stroke="#295E4D" stroke-width="4" stroke-linecap="round" stroke-linejoin="round"/>
<path d="M895.496 117H840.588C837.495 117 834.988 114.478 834.988 111.369V55.7267" stroke="#295E4D" stroke-width="4" stroke-linecap="round" stroke-linejoin="round"/>
<path d="M867.954 73.8682L875.7 83.8897L894.26 58.8361" stroke="#295E4D" stroke-width="6.07462" stroke-linecap="round" stroke-linejoin="round"/>
<path d="M860.633 147H858.789V139.852C858.789 139.529 858.797 139.177 858.812 138.797C858.833 138.411 858.859 138.003 858.891 137.57H858.844C858.781 137.867 858.721 138.122 858.664 138.336C858.612 138.544 858.56 138.711 858.508 138.836L855.219 147H853.938L850.633 138.906C850.591 138.792 850.539 138.622 850.477 138.398C850.419 138.174 850.357 137.898 850.289 137.57H850.242C850.273 137.945 850.294 138.344 850.305 138.766C850.315 139.182 850.32 139.622 850.32 140.086V147H848.602V135.797H851.227L854.141 143.078C854.255 143.354 854.349 143.609 854.422 143.844C854.5 144.073 854.56 144.286 854.602 144.484H854.648C854.742 144.188 854.831 143.919 854.914 143.68C854.997 143.44 855.076 143.232 855.148 143.055L858.102 135.797H860.633V147ZM869.297 147H867.539V145.797H867.508C867.237 146.26 866.901 146.609 866.5 146.844C866.099 147.073 865.638 147.188 865.117 147.188C864.393 147.188 863.792 146.974 863.312 146.547C862.833 146.115 862.594 145.526 862.594 144.781C862.594 144.073 862.833 143.492 863.312 143.039C863.792 142.581 864.503 142.284 865.445 142.148L867.547 141.867V141.703C867.547 141.161 867.406 140.768 867.125 140.523C866.844 140.279 866.464 140.156 865.984 140.156C865.604 140.156 865.216 140.224 864.82 140.359C864.43 140.495 864.049 140.706 863.68 140.992L862.891 139.906C863.38 139.531 863.885 139.255 864.406 139.078C864.927 138.901 865.5 138.812 866.125 138.812C867.198 138.812 867.995 139.078 868.516 139.609C869.036 140.135 869.297 140.927 869.297 141.984V147ZM867.547 143.75V143.07L865.836 143.297C865.331 143.37 864.951 143.508 864.695 143.711C864.445 143.909 864.32 144.201 864.32 144.586C864.32 144.977 864.44 145.281 864.68 145.5C864.919 145.719 865.227 145.828 865.602 145.828C866.19 145.828 866.661 145.633 867.016 145.242C867.37 144.846 867.547 144.349 867.547 143.75ZM876.977 145.758C876.69 146.237 876.328 146.596 875.891 146.836C875.453 147.07 874.94 147.188 874.352 147.188C873.352 147.188 872.547 146.833 871.938 146.125C871.333 145.411 871.031 144.432 871.031 143.188C871.031 141.865 871.365 140.805 872.031 140.008C872.703 139.211 873.589 138.812 874.688 138.812C875.224 138.812 875.682 138.914 876.062 139.117C876.443 139.315 876.747 139.617 876.977 140.023H877.008V135.156H878.828V147H877.008V145.758H876.977ZM872.883 143.117C872.883 143.94 873.068 144.583 873.438 145.047C873.807 145.51 874.31 145.742 874.945 145.742C875.565 145.742 876.068 145.51 876.453 145.047C876.839 144.583 877.031 143.987 877.031 143.258V142.344C877.031 141.75 876.846 141.255 876.477 140.859C876.107 140.458 875.633 140.258 875.055 140.258C874.378 140.258 873.846 140.513 873.461 141.023C873.076 141.529 872.883 142.227 872.883 143.117ZM887.961 143.477H882.5C882.531 144.232 882.75 144.807 883.156 145.203C883.562 145.594 884.13 145.789 884.859 145.789C885.156 145.789 885.495 145.729 885.875 145.609C886.255 145.49 886.63 145.297 887 145.031L887.82 146.164C887.326 146.523 886.823 146.784 886.312 146.945C885.802 147.107 885.24 147.188 884.625 147.188C883.38 147.188 882.411 146.831 881.719 146.117C881.026 145.398 880.677 144.396 880.672 143.109C880.672 141.828 881.029 140.792 881.742 140C882.461 139.208 883.38 138.812 884.5 138.812C885.573 138.812 886.417 139.151 887.031 139.828C887.651 140.5 887.961 141.453 887.961 142.688V143.477ZM886.203 142.219C886.203 141.531 886.052 141.016 885.75 140.672C885.453 140.323 885.031 140.148 884.484 140.148C883.969 140.148 883.529 140.336 883.164 140.711C882.805 141.081 882.583 141.583 882.5 142.219H886.203ZM894.141 140.523C894.042 140.497 893.945 140.479 893.852 140.469C893.763 140.453 893.659 140.445 893.539 140.445C892.888 140.445 892.388 140.685 892.039 141.164C891.69 141.643 891.516 142.268 891.516 143.039V147H889.695V139H891.516V140.539H891.547C891.734 139.987 892.01 139.57 892.375 139.289C892.74 139.003 893.169 138.859 893.664 138.859C893.805 138.859 893.93 138.867 894.039 138.883C894.154 138.898 894.263 138.922 894.367 138.953L894.141 140.523ZM901.719 147H899.961V145.797H899.93C899.659 146.26 899.323 146.609 898.922 146.844C898.521 147.073 898.06 147.188 897.539 147.188C896.815 147.188 896.214 146.974 895.734 146.547C895.255 146.115 895.016 145.526 895.016 144.781C895.016 144.073 895.255 143.492 895.734 143.039C896.214 142.581 896.924 142.284 897.867 142.148L899.969 141.867V141.703C899.969 141.161 899.828 140.768 899.547 140.523C899.266 140.279 898.885 140.156 898.406 140.156C898.026 140.156 897.638 140.224 897.242 140.359C896.852 140.495 896.471 140.706 896.102 140.992L895.312 139.906C895.802 139.531 896.307 139.255 896.828 139.078C897.349 138.901 897.922 138.812 898.547 138.812C899.62 138.812 900.417 139.078 900.938 139.609C901.458 140.135 901.719 140.927 901.719 141.984V147ZM899.969 143.75V143.07L898.258 143.297C897.753 143.37 897.372 143.508 897.117 143.711C896.867 143.909 896.742 144.201 896.742 144.586C896.742 144.977 896.862 145.281 897.102 145.5C897.341 145.719 897.648 145.828 898.023 145.828C898.612 145.828 899.083 145.633 899.438 145.242C899.792 144.846 899.969 144.349 899.969 143.75ZM812.312 168H810.5V158.883C810.266 159.06 809.935 159.245 809.508 159.438C809.081 159.625 808.669 159.776 808.273 159.891L807.773 158.383C808.424 158.206 809.078 157.951 809.734 157.617C810.391 157.279 810.938 156.922 811.375 156.547H812.312V168ZM818.492 168.195C817.263 168.195 816.339 167.719 815.719 166.766C815.099 165.812 814.789 164.424 814.789 162.602C814.789 160.654 815.12 159.169 815.781 158.148C816.443 157.122 817.388 156.609 818.617 156.609C819.909 156.609 820.849 157.086 821.438 158.039C822.026 158.992 822.32 160.424 822.32 162.336C822.32 164.227 821.992 165.677 821.336 166.688C820.68 167.693 819.732 168.195 818.492 168.195ZM818.586 158.055C817.919 158.055 817.427 158.43 817.109 159.18C816.797 159.924 816.641 161.044 816.641 162.539C816.641 163.94 816.797 164.992 817.109 165.695C817.427 166.393 817.911 166.742 818.562 166.742C819.229 166.742 819.711 166.385 820.008 165.672C820.31 164.953 820.461 163.875 820.461 162.438C820.461 160.979 820.31 159.885 820.008 159.156C819.711 158.422 819.237 158.055 818.586 158.055ZM827.383 168.195C826.154 168.195 825.229 167.719 824.609 166.766C823.99 165.812 823.68 164.424 823.68 162.602C823.68 160.654 824.01 159.169 824.672 158.148C825.333 157.122 826.279 156.609 827.508 156.609C828.799 156.609 829.74 157.086 830.328 158.039C830.917 158.992 831.211 160.424 831.211 162.336C831.211 164.227 830.883 165.677 830.227 166.688C829.57 167.693 828.622 168.195 827.383 168.195ZM827.477 158.055C826.81 158.055 826.318 158.43 826 159.18C825.688 159.924 825.531 161.044 825.531 162.539C825.531 163.94 825.688 164.992 826 165.695C826.318 166.393 826.802 166.742 827.453 166.742C828.12 166.742 828.602 166.385 828.898 165.672C829.201 164.953 829.352 163.875 829.352 162.438C829.352 160.979 829.201 159.885 828.898 159.156C828.602 158.422 828.128 158.055 827.477 158.055ZM835.141 162.445C834.354 162.445 833.727 162.193 833.258 161.688C832.789 161.177 832.555 160.497 832.555 159.648C832.555 158.716 832.802 157.982 833.297 157.445C833.797 156.904 834.469 156.633 835.312 156.633C836.125 156.633 836.755 156.88 837.203 157.375C837.656 157.87 837.883 158.565 837.883 159.461C837.883 160.367 837.63 161.091 837.125 161.633C836.625 162.174 835.964 162.445 835.141 162.445ZM835.266 157.727C834.823 157.727 834.479 157.888 834.234 158.211C833.995 158.529 833.875 158.982 833.875 159.57C833.875 160.143 833.992 160.583 834.227 160.891C834.461 161.193 834.794 161.344 835.227 161.344C835.659 161.344 835.992 161.185 836.227 160.867C836.461 160.549 836.578 160.096 836.578 159.508C836.578 158.935 836.464 158.495 836.234 158.188C836.01 157.88 835.688 157.727 835.266 157.727ZM842.938 156.789L835.719 168.039H834.242L841.461 156.789H842.938ZM841.945 168.164C841.164 168.164 840.536 167.911 840.062 167.406C839.594 166.896 839.359 166.216 839.359 165.367C839.359 164.44 839.609 163.706 840.109 163.164C840.615 162.617 841.286 162.344 842.125 162.344C842.932 162.344 843.562 162.591 844.016 163.086C844.469 163.581 844.695 164.279 844.695 165.18C844.695 166.086 844.443 166.81 843.938 167.352C843.438 167.893 842.773 168.164 841.945 168.164ZM842.062 163.453C841.62 163.453 841.276 163.612 841.031 163.93C840.792 164.247 840.672 164.703 840.672 165.297C840.672 165.865 840.792 166.302 841.031 166.609C841.271 166.911 841.604 167.062 842.031 167.062C842.469 167.062 842.805 166.904 843.039 166.586C843.273 166.268 843.391 165.815 843.391 165.227C843.391 164.659 843.271 164.221 843.031 163.914C842.792 163.607 842.469 163.453 842.062 163.453ZM850.156 167.359L850.945 166.078C851.258 166.297 851.589 166.474 851.938 166.609C852.292 166.74 852.674 166.805 853.086 166.805C853.534 166.805 853.88 166.724 854.125 166.562C854.375 166.396 854.5 166.148 854.5 165.82C854.5 165.56 854.396 165.344 854.188 165.172C853.984 164.995 853.635 164.849 853.141 164.734C852.141 164.5 851.438 164.19 851.031 163.805C850.63 163.419 850.43 162.911 850.43 162.281C850.43 161.557 850.711 160.966 851.273 160.508C851.836 160.044 852.573 159.812 853.484 159.812C853.938 159.812 854.37 159.872 854.781 159.992C855.193 160.107 855.594 160.292 855.984 160.547L855.25 161.797C854.906 161.578 854.591 161.422 854.305 161.328C854.018 161.234 853.724 161.188 853.422 161.188C852.995 161.188 852.661 161.268 852.422 161.43C852.188 161.586 852.07 161.805 852.07 162.086C852.07 162.383 852.19 162.604 852.43 162.75C852.674 162.891 853.083 163.029 853.656 163.164C854.521 163.372 855.154 163.674 855.555 164.07C855.956 164.461 856.156 164.984 856.156 165.641C856.156 166.417 855.872 167.036 855.305 167.5C854.742 167.958 853.979 168.188 853.016 168.188C852.495 168.188 851.995 168.12 851.516 167.984C851.042 167.844 850.589 167.635 850.156 167.359ZM864.609 164.477H859.148C859.18 165.232 859.398 165.807 859.805 166.203C860.211 166.594 860.779 166.789 861.508 166.789C861.805 166.789 862.143 166.729 862.523 166.609C862.904 166.49 863.279 166.297 863.648 166.031L864.469 167.164C863.974 167.523 863.471 167.784 862.961 167.945C862.451 168.107 861.888 168.188 861.273 168.188C860.029 168.188 859.06 167.831 858.367 167.117C857.674 166.398 857.326 165.396 857.32 164.109C857.32 162.828 857.677 161.792 858.391 161C859.109 160.208 860.029 159.812 861.148 159.812C862.221 159.812 863.065 160.151 863.68 160.828C864.299 161.5 864.609 162.453 864.609 163.688V164.477ZM862.852 163.219C862.852 162.531 862.701 162.016 862.398 161.672C862.102 161.323 861.68 161.148 861.133 161.148C860.617 161.148 860.177 161.336 859.812 161.711C859.453 162.081 859.232 162.583 859.148 163.219H862.852ZM866.336 168V156.156H868.156V168H866.336ZM877.297 164.477H871.836C871.867 165.232 872.086 165.807 872.492 166.203C872.898 166.594 873.466 166.789 874.195 166.789C874.492 166.789 874.831 166.729 875.211 166.609C875.591 166.49 875.966 166.297 876.336 166.031L877.156 167.164C876.661 167.523 876.159 167.784 875.648 167.945C875.138 168.107 874.576 168.188 873.961 168.188C872.716 168.188 871.747 167.831 871.055 167.117C870.362 166.398 870.013 165.396 870.008 164.109C870.008 162.828 870.365 161.792 871.078 161C871.797 160.208 872.716 159.812 873.836 159.812C874.909 159.812 875.753 160.151 876.367 160.828C876.987 161.5 877.297 162.453 877.297 163.688V164.477ZM875.539 163.219C875.539 162.531 875.388 162.016 875.086 161.672C874.789 161.323 874.367 161.148 873.82 161.148C873.305 161.148 872.865 161.336 872.5 161.711C872.141 162.081 871.919 162.583 871.836 163.219H875.539ZM885.016 167.508C884.62 167.747 884.227 167.919 883.836 168.023C883.445 168.133 883.021 168.188 882.562 168.188C881.333 168.188 880.349 167.828 879.609 167.109C878.875 166.391 878.508 165.414 878.508 164.18C878.508 162.852 878.888 161.792 879.648 161C880.414 160.208 881.445 159.812 882.742 159.812C883.195 159.812 883.607 159.862 883.977 159.961C884.352 160.055 884.732 160.211 885.117 160.43L884.406 161.695C884.135 161.544 883.87 161.435 883.609 161.367C883.349 161.294 883.065 161.258 882.758 161.258C881.992 161.258 881.401 161.51 880.984 162.016C880.568 162.521 880.359 163.19 880.359 164.023C880.359 164.898 880.583 165.57 881.031 166.039C881.484 166.508 882.052 166.742 882.734 166.742C882.943 166.742 883.182 166.706 883.453 166.633C883.724 166.555 883.997 166.432 884.273 166.266L885.016 167.508ZM892.547 167.508C892.151 167.747 891.758 167.919 891.367 168.023C890.977 168.133 890.552 168.188 890.094 168.188C888.865 168.188 887.88 167.828 887.141 167.109C886.406 166.391 886.039 165.414 886.039 164.18C886.039 162.852 886.419 161.792 887.18 161C887.945 160.208 888.977 159.812 890.273 159.812C890.727 159.812 891.138 159.862 891.508 159.961C891.883 160.055 892.263 160.211 892.648 160.43L891.938 161.695C891.667 161.544 891.401 161.435 891.141 161.367C890.88 161.294 890.596 161.258 890.289 161.258C889.523 161.258 888.932 161.51 888.516 162.016C888.099 162.521 887.891 163.19 887.891 164.023C887.891 164.898 888.115 165.57 888.562 166.039C889.016 166.508 889.583 166.742 890.266 166.742C890.474 166.742 890.714 166.706 890.984 166.633C891.255 166.555 891.529 166.432 891.805 166.266L892.547 167.508ZM895.008 158.453C894.674 158.453 894.398 158.346 894.18 158.133C893.961 157.919 893.852 157.656 893.852 157.344C893.852 157.021 893.961 156.755 894.18 156.547C894.398 156.339 894.674 156.234 895.008 156.234C895.346 156.234 895.625 156.339 895.844 156.547C896.062 156.755 896.172 157.021 896.172 157.344C896.172 157.661 896.062 157.927 895.844 158.141C895.625 158.349 895.346 158.453 895.008 158.453ZM895.906 168H894.086V160H895.906V168ZM901.828 168.188C900.578 168.188 899.586 167.815 898.852 167.07C898.122 166.32 897.758 165.318 897.758 164.062C897.763 162.734 898.143 161.695 898.898 160.945C899.654 160.19 900.682 159.812 901.984 159.812C903.24 159.807 904.219 160.177 904.922 160.922C905.63 161.661 905.984 162.664 905.984 163.93C905.984 165.232 905.609 166.268 904.859 167.039C904.115 167.805 903.104 168.188 901.828 168.188ZM901.914 166.742C902.638 166.742 903.188 166.505 903.562 166.031C903.943 165.557 904.133 164.872 904.133 163.977C904.133 163.091 903.943 162.417 903.562 161.953C903.182 161.49 902.63 161.258 901.906 161.258C901.193 161.258 900.63 161.503 900.219 161.992C899.812 162.482 899.609 163.159 899.609 164.023C899.609 164.893 899.812 165.565 900.219 166.039C900.625 166.508 901.19 166.742 901.914 166.742ZM914.969 168H913.156V163.492C913.156 162.747 913.021 162.19 912.75 161.82C912.479 161.445 912.073 161.258 911.531 161.258C910.99 161.258 910.542 161.464 910.188 161.875C909.833 162.286 909.656 162.807 909.656 163.438V168H907.836V160H909.656V161.297H909.688C909.984 160.802 910.349 160.432 910.781 160.188C911.214 159.938 911.716 159.812 912.289 159.812C913.164 159.812 913.828 160.091 914.281 160.648C914.74 161.206 914.969 162.026 914.969 163.109V168ZM923.289 168H921.531V166.797H921.5C921.229 167.26 920.893 167.609 920.492 167.844C920.091 168.073 919.63 168.188 919.109 168.188C918.385 168.188 917.784 167.974 917.305 167.547C916.826 167.115 916.586 166.526 916.586 165.781C916.586 165.073 916.826 164.492 917.305 164.039C917.784 163.581 918.495 163.284 919.438 163.148L921.539 162.867V162.703C921.539 162.161 921.398 161.768 921.117 161.523C920.836 161.279 920.456 161.156 919.977 161.156C919.596 161.156 919.208 161.224 918.812 161.359C918.422 161.495 918.042 161.706 917.672 161.992L916.883 160.906C917.372 160.531 917.878 160.255 918.398 160.078C918.919 159.901 919.492 159.812 920.117 159.812C921.19 159.812 921.987 160.078 922.508 160.609C923.029 161.135 923.289 161.927 923.289 162.984V168ZM921.539 164.75V164.07L919.828 164.297C919.323 164.37 918.943 164.508 918.688 164.711C918.438 164.909 918.312 165.201 918.312 165.586C918.312 165.977 918.432 166.281 918.672 166.5C918.911 166.719 919.219 166.828 919.594 166.828C920.182 166.828 920.654 166.633 921.008 166.242C921.362 165.846 921.539 165.349 921.539 164.75ZM930.969 166.758C930.682 167.237 930.32 167.596 929.883 167.836C929.445 168.07 928.932 168.188 928.344 168.188C927.344 168.188 926.539 167.833 925.93 167.125C925.326 166.411 925.023 165.432 925.023 164.188C925.023 162.865 925.357 161.805 926.023 161.008C926.695 160.211 927.581 159.812 928.68 159.812C929.216 159.812 929.674 159.914 930.055 160.117C930.435 160.315 930.74 160.617 930.969 161.023H931V156.156H932.82V168H931V166.758H930.969ZM926.875 164.117C926.875 164.94 927.06 165.583 927.43 166.047C927.799 166.51 928.302 166.742 928.938 166.742C929.557 166.742 930.06 166.51 930.445 166.047C930.831 165.583 931.023 164.987 931.023 164.258V163.344C931.023 162.75 930.839 162.255 930.469 161.859C930.099 161.458 929.625 161.258 929.047 161.258C928.37 161.258 927.839 161.513 927.453 162.023C927.068 162.529 926.875 163.227 926.875 164.117ZM941.289 168H939.531V166.797H939.5C939.229 167.26 938.893 167.609 938.492 167.844C938.091 168.073 937.63 168.188 937.109 168.188C936.385 168.188 935.784 167.974 935.305 167.547C934.826 167.115 934.586 166.526 934.586 165.781C934.586 165.073 934.826 164.492 935.305 164.039C935.784 163.581 936.495 163.284 937.438 163.148L939.539 162.867V162.703C939.539 162.161 939.398 161.768 939.117 161.523C938.836 161.279 938.456 161.156 937.977 161.156C937.596 161.156 937.208 161.224 936.812 161.359C936.422 161.495 936.042 161.706 935.672 161.992L934.883 160.906C935.372 160.531 935.878 160.255 936.398 160.078C936.919 159.901 937.492 159.812 938.117 159.812C939.19 159.812 939.987 160.078 940.508 160.609C941.029 161.135 941.289 161.927 941.289 162.984V168ZM939.539 164.75V164.07L937.828 164.297C937.323 164.37 936.943 164.508 936.688 164.711C936.438 164.909 936.312 165.201 936.312 165.586C936.312 165.977 936.432 166.281 936.672 166.5C936.911 166.719 937.219 166.828 937.594 166.828C938.182 166.828 938.654 166.633 939.008 166.242C939.362 165.846 939.539 165.349 939.539 164.75Z" fill="#585857"/>
<path d="M1163.53 33.8733H1142.05V102.124H1163.53V33.8733Z" stroke="#295E4D" stroke-width="3.8" stroke-linecap="round" stroke-linejoin="round"/>
<path d="M1185 44.7043H1163.53V120.127H1185V44.7043Z" stroke="#295E4D" stroke-width="3.8" stroke-linecap="round" stroke-linejoin="round"/>
<path d="M1206.47 33.8733H1185V102.124H1206.47V33.8733Z" stroke="#295E4D" stroke-width="3.8" stroke-linecap="round" stroke-linejoin="round"/>
<path d="M1227.95 44.7043H1206.47V120.127H1227.95V44.7043Z" stroke="#295E4D" stroke-width="3.8" stroke-linecap="round" stroke-linejoin="round"/>
<path d="M1148.16 39.7341V58.058" stroke="#295E4D" stroke-width="2.28195" stroke-linecap="round" stroke-linejoin="round"/>
<path d="M1179.66 48.7588V72.4483" stroke="#295E4D" stroke-width="2.28195" stroke-linecap="round" stroke-linejoin="round"/>
<path d="M1153.28 44.184V53.0878" stroke="#295E4D" stroke-width="2.28195" stroke-linecap="round" stroke-linejoin="round"/>
<path d="M1153.28 67.9984V76.9023" stroke="#295E4D" stroke-width="2.28195" stroke-linecap="round" stroke-linejoin="round"/>
<path d="M1174.26 58.7991V67.7029" stroke="#295E4D" stroke-width="2.28195" stroke-linecap="round" stroke-linejoin="round"/>
<path d="M1169.06 76.9022V93.5943" stroke="#295E4D" stroke-width="2.28195" stroke-linecap="round" stroke-linejoin="round"/>
<path d="M1174.26 87.4586V109.766" stroke="#295E4D" stroke-width="2.28195" stroke-linecap="round" stroke-linejoin="round"/>
<path d="M1153.28 87.4586V91.9126" stroke="#295E4D" stroke-width="2.28195" stroke-linecap="round" stroke-linejoin="round"/>
<path d="M1190.61 67.8986V91.588" stroke="#295E4D" stroke-width="2.28195" stroke-linecap="round" stroke-linejoin="round"/>
<path d="M1201.11 53.5833V81.5727" stroke="#295E4D" stroke-width="2.28195" stroke-linecap="round" stroke-linejoin="round"/>
<path d="M1195.73 39.089V48.2634" stroke="#295E4D" stroke-width="2.28195" stroke-linecap="round" stroke-linejoin="round"/>
<path d="M1195.73 58.0581V62.6453" stroke="#295E4D" stroke-width="2.28195" stroke-linecap="round" stroke-linejoin="round"/>
<path d="M1211.43 58.0581V62.6453" stroke="#295E4D" stroke-width="2.28195" stroke-linecap="round" stroke-linejoin="round"/>
<path d="M1211.43 97.2283V115.032" stroke="#295E4D" stroke-width="2.28195" stroke-linecap="round" stroke-linejoin="round"/>
<path d="M1217.21 87.4586V105.262" stroke="#295E4D" stroke-width="2.28195" stroke-linecap="round" stroke-linejoin="round"/>
<path d="M1221.93 67.578V82.4136" stroke="#295E4D" stroke-width="2.28195" stroke-linecap="round" stroke-linejoin="round"/>
<path d="M1163.51 137.375H1160.3V147H1158.43V137.375H1155.23V135.797H1163.51V137.375ZM1170.17 143.477H1164.71C1164.74 144.232 1164.96 144.807 1165.37 145.203C1165.77 145.594 1166.34 145.789 1167.07 145.789C1167.37 145.789 1167.71 145.729 1168.09 145.609C1168.47 145.49 1168.84 145.297 1169.21 145.031L1170.03 146.164C1169.54 146.523 1169.03 146.784 1168.52 146.945C1168.01 147.107 1167.45 147.188 1166.84 147.188C1165.59 147.188 1164.62 146.831 1163.93 146.117C1163.24 145.398 1162.89 144.396 1162.88 143.109C1162.88 141.828 1163.24 140.792 1163.95 140C1164.67 139.208 1165.59 138.812 1166.71 138.812C1167.78 138.812 1168.63 139.151 1169.24 139.828C1169.86 140.5 1170.17 141.453 1170.17 142.688V143.477ZM1168.41 142.219C1168.41 141.531 1168.26 141.016 1167.96 140.672C1167.66 140.323 1167.24 140.148 1166.7 140.148C1166.18 140.148 1165.74 140.336 1165.38 140.711C1165.02 141.081 1164.79 141.583 1164.71 142.219H1168.41ZM1178.59 139L1175.93 142.969L1178.56 147H1176.46L1175.08 144.602C1175.03 144.518 1174.97 144.422 1174.91 144.312C1174.86 144.203 1174.79 144.081 1174.73 143.945H1174.7C1174.67 144.003 1174.63 144.086 1174.57 144.195C1174.52 144.305 1174.45 144.438 1174.35 144.594L1172.95 147H1170.86L1173.58 143.047L1171 139H1173.11L1174.47 141.516C1174.54 141.641 1174.6 141.76 1174.65 141.875C1174.7 141.984 1174.75 142.091 1174.8 142.195H1174.83C1174.88 142.081 1174.94 141.966 1175 141.852C1175.06 141.737 1175.12 141.622 1175.19 141.508L1176.6 139H1178.59ZM1184.27 146.891C1184.04 146.99 1183.79 147.062 1183.54 147.109C1183.28 147.156 1183.01 147.18 1182.72 147.18C1181.98 147.18 1181.41 146.984 1181.01 146.594C1180.61 146.198 1180.41 145.609 1180.41 144.828V140.422H1179.07V139H1180.41V137.055L1182.23 136.508V139H1184.14V140.422H1182.23V144.68C1182.23 145.07 1182.3 145.352 1182.44 145.523C1182.58 145.695 1182.81 145.781 1183.11 145.781C1183.26 145.781 1183.39 145.766 1183.52 145.734C1183.66 145.698 1183.78 145.654 1183.88 145.602L1184.27 146.891ZM1192.68 147H1190.86V145.758H1190.83C1190.55 146.232 1190.2 146.589 1189.79 146.828C1189.38 147.068 1188.9 147.188 1188.37 147.188C1187.43 147.188 1186.72 146.906 1186.25 146.344C1185.78 145.781 1185.55 144.935 1185.55 143.805V139H1187.35V143.594C1187.35 144.312 1187.49 144.852 1187.77 145.211C1188.05 145.565 1188.47 145.742 1189.02 145.742C1189.57 145.742 1190.01 145.547 1190.34 145.156C1190.69 144.766 1190.86 144.245 1190.86 143.594V139H1192.68V147ZM1199.49 140.523C1199.39 140.497 1199.3 140.479 1199.2 140.469C1199.11 140.453 1199.01 140.445 1198.89 140.445C1198.24 140.445 1197.74 140.685 1197.39 141.164C1197.04 141.643 1196.87 142.268 1196.87 143.039V147H1195.05V139H1196.87V140.539H1196.9C1197.09 139.987 1197.36 139.57 1197.73 139.289C1198.09 139.003 1198.52 138.859 1199.02 138.859C1199.16 138.859 1199.28 138.867 1199.39 138.883C1199.51 138.898 1199.61 138.922 1199.72 138.953L1199.49 140.523ZM1207.07 147H1205.31V145.797H1205.28C1205.01 146.26 1204.67 146.609 1204.27 146.844C1203.87 147.073 1203.41 147.188 1202.89 147.188C1202.17 147.188 1201.57 146.974 1201.09 146.547C1200.61 146.115 1200.37 145.526 1200.37 144.781C1200.37 144.073 1200.61 143.492 1201.09 143.039C1201.57 142.581 1202.28 142.284 1203.22 142.148L1205.32 141.867V141.703C1205.32 141.161 1205.18 140.768 1204.9 140.523C1204.62 140.279 1204.24 140.156 1203.76 140.156C1203.38 140.156 1202.99 140.224 1202.59 140.359C1202.2 140.495 1201.82 140.706 1201.45 140.992L1200.66 139.906C1201.15 139.531 1201.66 139.255 1202.18 139.078C1202.7 138.901 1203.27 138.812 1203.9 138.812C1204.97 138.812 1205.77 139.078 1206.29 139.609C1206.81 140.135 1207.07 140.927 1207.07 141.984V147ZM1205.32 143.75V143.07L1203.61 143.297C1203.1 143.37 1202.72 143.508 1202.47 143.711C1202.22 143.909 1202.09 144.201 1202.09 144.586C1202.09 144.977 1202.21 145.281 1202.45 145.5C1202.69 145.719 1203 145.828 1203.38 145.828C1203.96 145.828 1204.43 145.633 1204.79 145.242C1205.14 144.846 1205.32 144.349 1205.32 143.75ZM1208.55 146.359L1209.34 145.078C1209.65 145.297 1209.98 145.474 1210.33 145.609C1210.68 145.74 1211.07 145.805 1211.48 145.805C1211.92 145.805 1212.27 145.724 1212.52 145.562C1212.77 145.396 1212.89 145.148 1212.89 144.82C1212.89 144.56 1212.79 144.344 1212.58 144.172C1212.38 143.995 1212.03 143.849 1211.53 143.734C1210.53 143.5 1209.83 143.19 1209.42 142.805C1209.02 142.419 1208.82 141.911 1208.82 141.281C1208.82 140.557 1209.1 139.966 1209.66 139.508C1210.23 139.044 1210.96 138.812 1211.88 138.812C1212.33 138.812 1212.76 138.872 1213.17 138.992C1213.58 139.107 1213.98 139.292 1214.38 139.547L1213.64 140.797C1213.3 140.578 1212.98 140.422 1212.7 140.328C1212.41 140.234 1212.11 140.188 1211.81 140.188C1211.39 140.188 1211.05 140.268 1210.81 140.43C1210.58 140.586 1210.46 140.805 1210.46 141.086C1210.46 141.383 1210.58 141.604 1210.82 141.75C1211.07 141.891 1211.47 142.029 1212.05 142.164C1212.91 142.372 1213.54 142.674 1213.95 143.07C1214.35 143.461 1214.55 143.984 1214.55 144.641C1214.55 145.417 1214.26 146.036 1213.7 146.5C1213.13 146.958 1212.37 147.188 1211.41 147.188C1210.89 147.188 1210.39 147.12 1209.91 146.984C1209.43 146.844 1208.98 146.635 1208.55 146.359ZM1134.92 168H1133.11V163.492C1133.11 162.747 1132.97 162.19 1132.7 161.82C1132.43 161.445 1132.03 161.258 1131.48 161.258C1130.94 161.258 1130.49 161.464 1130.14 161.875C1129.79 162.286 1129.61 162.807 1129.61 163.438V168H1127.79V160H1129.61V161.297H1129.64C1129.94 160.802 1130.3 160.432 1130.73 160.188C1131.17 159.938 1131.67 159.812 1132.24 159.812C1133.12 159.812 1133.78 160.091 1134.23 160.648C1134.69 161.206 1134.92 162.026 1134.92 163.109V168ZM1143.24 168H1141.48V166.797H1141.45C1141.18 167.26 1140.85 167.609 1140.45 167.844C1140.04 168.073 1139.58 168.188 1139.06 168.188C1138.34 168.188 1137.74 167.974 1137.26 167.547C1136.78 167.115 1136.54 166.526 1136.54 165.781C1136.54 165.073 1136.78 164.492 1137.26 164.039C1137.74 163.581 1138.45 163.284 1139.39 163.148L1141.49 162.867V162.703C1141.49 162.161 1141.35 161.768 1141.07 161.523C1140.79 161.279 1140.41 161.156 1139.93 161.156C1139.55 161.156 1139.16 161.224 1138.77 161.359C1138.38 161.495 1137.99 161.706 1137.62 161.992L1136.84 160.906C1137.33 160.531 1137.83 160.255 1138.35 160.078C1138.87 159.901 1139.45 159.812 1140.07 159.812C1141.14 159.812 1141.94 160.078 1142.46 160.609C1142.98 161.135 1143.24 161.927 1143.24 162.984V168ZM1141.49 164.75V164.07L1139.78 164.297C1139.28 164.37 1138.9 164.508 1138.64 164.711C1138.39 164.909 1138.27 165.201 1138.27 165.586C1138.27 165.977 1138.39 166.281 1138.62 166.5C1138.86 166.719 1139.17 166.828 1139.55 166.828C1140.14 166.828 1140.61 166.633 1140.96 166.242C1141.32 165.846 1141.49 165.349 1141.49 164.75ZM1149.85 167.891C1149.62 167.99 1149.37 168.062 1149.12 168.109C1148.86 168.156 1148.59 168.18 1148.3 168.18C1147.56 168.18 1146.99 167.984 1146.59 167.594C1146.19 167.198 1145.99 166.609 1145.99 165.828V161.422H1144.65V160H1145.99V158.055L1147.8 157.508V160H1149.72V161.422H1147.8V165.68C1147.8 166.07 1147.88 166.352 1148.02 166.523C1148.16 166.695 1148.39 166.781 1148.69 166.781C1148.83 166.781 1148.97 166.766 1149.1 166.734C1149.24 166.698 1149.36 166.654 1149.46 166.602L1149.85 167.891ZM1158.26 168H1156.44V166.758H1156.41C1156.12 167.232 1155.78 167.589 1155.37 167.828C1154.96 168.068 1154.48 168.188 1153.95 168.188C1153.01 168.188 1152.3 167.906 1151.83 167.344C1151.36 166.781 1151.12 165.935 1151.12 164.805V160H1152.93V164.594C1152.93 165.312 1153.07 165.852 1153.34 166.211C1153.62 166.565 1154.04 166.742 1154.6 166.742C1155.14 166.742 1155.58 166.547 1155.92 166.156C1156.27 165.766 1156.44 165.245 1156.44 164.594V160H1158.26V168ZM1165.07 161.523C1164.97 161.497 1164.88 161.479 1164.78 161.469C1164.69 161.453 1164.59 161.445 1164.47 161.445C1163.82 161.445 1163.32 161.685 1162.97 162.164C1162.62 162.643 1162.45 163.268 1162.45 164.039V168H1160.62V160H1162.45V161.539H1162.48C1162.66 160.987 1162.94 160.57 1163.3 160.289C1163.67 160.003 1164.1 159.859 1164.59 159.859C1164.73 159.859 1164.86 159.867 1164.97 159.883C1165.08 159.898 1165.19 159.922 1165.3 159.953L1165.07 161.523ZM1172.65 168H1170.89V166.797H1170.86C1170.59 167.26 1170.25 167.609 1169.85 167.844C1169.45 168.073 1168.99 168.188 1168.47 168.188C1167.74 168.188 1167.14 167.974 1166.66 167.547C1166.18 167.115 1165.95 166.526 1165.95 165.781C1165.95 165.073 1166.18 164.492 1166.66 164.039C1167.14 163.581 1167.85 163.284 1168.8 163.148L1170.9 162.867V162.703C1170.9 162.161 1170.76 161.768 1170.48 161.523C1170.2 161.279 1169.82 161.156 1169.34 161.156C1168.96 161.156 1168.57 161.224 1168.17 161.359C1167.78 161.495 1167.4 161.706 1167.03 161.992L1166.24 160.906C1166.73 160.531 1167.24 160.255 1167.76 160.078C1168.28 159.901 1168.85 159.812 1169.48 159.812C1170.55 159.812 1171.35 160.078 1171.87 160.609C1172.39 161.135 1172.65 161.927 1172.65 162.984V168ZM1170.9 164.75V164.07L1169.19 164.297C1168.68 164.37 1168.3 164.508 1168.05 164.711C1167.8 164.909 1167.67 165.201 1167.67 165.586C1167.67 165.977 1167.79 166.281 1168.03 166.5C1168.27 166.719 1168.58 166.828 1168.95 166.828C1169.54 166.828 1170.01 166.633 1170.37 166.242C1170.72 165.846 1170.9 165.349 1170.9 164.75ZM1174.9 168V156.156H1176.72V168H1174.9ZM1185.86 164.477H1180.4C1180.43 165.232 1180.65 165.807 1181.05 166.203C1181.46 166.594 1182.03 166.789 1182.76 166.789C1183.05 166.789 1183.39 166.729 1183.77 166.609C1184.15 166.49 1184.53 166.297 1184.9 166.031L1185.72 167.164C1185.22 167.523 1184.72 167.784 1184.21 167.945C1183.7 168.107 1183.14 168.188 1182.52 168.188C1181.28 168.188 1180.31 167.831 1179.62 167.117C1178.92 166.398 1178.58 165.396 1178.57 164.109C1178.57 162.828 1178.93 161.792 1179.64 161C1180.36 160.208 1181.28 159.812 1182.4 159.812C1183.47 159.812 1184.32 160.151 1184.93 160.828C1185.55 161.5 1185.86 162.453 1185.86 163.688V164.477ZM1184.1 163.219C1184.1 162.531 1183.95 162.016 1183.65 161.672C1183.35 161.323 1182.93 161.148 1182.38 161.148C1181.87 161.148 1181.43 161.336 1181.06 161.711C1180.7 162.081 1180.48 162.583 1180.4 163.219H1184.1ZM1186.81 167.359L1187.6 166.078C1187.91 166.297 1188.24 166.474 1188.59 166.609C1188.95 166.74 1189.33 166.805 1189.74 166.805C1190.19 166.805 1190.54 166.724 1190.78 166.562C1191.03 166.396 1191.16 166.148 1191.16 165.82C1191.16 165.56 1191.05 165.344 1190.84 165.172C1190.64 164.995 1190.29 164.849 1189.8 164.734C1188.8 164.5 1188.09 164.19 1187.69 163.805C1187.29 163.419 1187.09 162.911 1187.09 162.281C1187.09 161.557 1187.37 160.966 1187.93 160.508C1188.49 160.044 1189.23 159.812 1190.14 159.812C1190.59 159.812 1191.03 159.872 1191.44 159.992C1191.85 160.107 1192.25 160.292 1192.64 160.547L1191.91 161.797C1191.56 161.578 1191.25 161.422 1190.96 161.328C1190.67 161.234 1190.38 161.188 1190.08 161.188C1189.65 161.188 1189.32 161.268 1189.08 161.43C1188.84 161.586 1188.73 161.805 1188.73 162.086C1188.73 162.383 1188.85 162.604 1189.09 162.75C1189.33 162.891 1189.74 163.029 1190.31 163.164C1191.18 163.372 1191.81 163.674 1192.21 164.07C1192.61 164.461 1192.81 164.984 1192.81 165.641C1192.81 166.417 1192.53 167.036 1191.96 167.5C1191.4 167.958 1190.64 168.188 1189.67 168.188C1189.15 168.188 1188.65 168.12 1188.17 167.984C1187.7 167.844 1187.24 167.635 1186.81 167.359ZM1205.88 168H1204.06V166.758H1204.03C1203.75 167.232 1203.4 167.589 1202.99 167.828C1202.58 168.068 1202.11 168.188 1201.57 168.188C1200.63 168.188 1199.93 167.906 1199.45 167.344C1198.98 166.781 1198.75 165.935 1198.75 164.805V160H1200.55V164.594C1200.55 165.312 1200.69 165.852 1200.97 166.211C1201.25 166.565 1201.67 166.742 1202.23 166.742C1202.77 166.742 1203.21 166.547 1203.55 166.156C1203.89 165.766 1204.06 165.245 1204.06 164.594V160H1205.88V168ZM1202.4 158.594H1201.05L1202.93 156.047H1204.63L1202.4 158.594ZM1215.38 168H1213.56V163.492C1213.56 162.747 1213.43 162.19 1213.16 161.82C1212.89 161.445 1212.48 161.258 1211.94 161.258C1211.4 161.258 1210.95 161.464 1210.59 161.875C1210.24 162.286 1210.06 162.807 1210.06 163.438V168H1208.24V160H1210.06V161.297H1210.09C1210.39 160.802 1210.76 160.432 1211.19 160.188C1211.62 159.938 1212.12 159.812 1212.7 159.812C1213.57 159.812 1214.23 160.091 1214.69 160.648C1215.15 161.206 1215.38 162.026 1215.38 163.109V168ZM1218.51 158.453C1218.17 158.453 1217.9 158.346 1217.68 158.133C1217.46 157.919 1217.35 157.656 1217.35 157.344C1217.35 157.021 1217.46 156.755 1217.68 156.547C1217.9 156.339 1218.17 156.234 1218.51 156.234C1218.85 156.234 1219.12 156.339 1219.34 156.547C1219.56 156.755 1219.67 157.021 1219.67 157.344C1219.67 157.661 1219.56 157.927 1219.34 158.141C1219.12 158.349 1218.85 158.453 1218.51 158.453ZM1219.41 168H1217.59V160H1219.41V168ZM1227.77 167.508C1227.37 167.747 1226.98 167.919 1226.59 168.023C1226.2 168.133 1225.77 168.188 1225.31 168.188C1224.08 168.188 1223.1 167.828 1222.36 167.109C1221.62 166.391 1221.26 165.414 1221.26 164.18C1221.26 162.852 1221.64 161.792 1222.4 161C1223.16 160.208 1224.2 159.812 1225.49 159.812C1225.95 159.812 1226.36 159.862 1226.73 159.961C1227.1 160.055 1227.48 160.211 1227.87 160.43L1227.16 161.695C1226.89 161.544 1226.62 161.435 1226.36 161.367C1226.1 161.294 1225.82 161.258 1225.51 161.258C1224.74 161.258 1224.15 161.51 1223.73 162.016C1223.32 162.521 1223.11 163.19 1223.11 164.023C1223.11 164.898 1223.33 165.57 1223.78 166.039C1224.23 166.508 1224.8 166.742 1225.48 166.742C1225.69 166.742 1225.93 166.706 1226.2 166.633C1226.47 166.555 1226.75 166.432 1227.02 166.266L1227.77 167.508ZM1235.41 168H1233.66V166.797H1233.62C1233.35 167.26 1233.02 167.609 1232.62 167.844C1232.22 168.073 1231.76 168.188 1231.23 168.188C1230.51 168.188 1229.91 167.974 1229.43 167.547C1228.95 167.115 1228.71 166.526 1228.71 165.781C1228.71 165.073 1228.95 164.492 1229.43 164.039C1229.91 163.581 1230.62 163.284 1231.56 163.148L1233.66 162.867V162.703C1233.66 162.161 1233.52 161.768 1233.24 161.523C1232.96 161.279 1232.58 161.156 1232.1 161.156C1231.72 161.156 1231.33 161.224 1230.94 161.359C1230.55 161.495 1230.17 161.706 1229.8 161.992L1229.01 160.906C1229.5 160.531 1230 160.255 1230.52 160.078C1231.04 159.901 1231.62 159.812 1232.24 159.812C1233.32 159.812 1234.11 160.078 1234.63 160.609C1235.15 161.135 1235.41 161.927 1235.41 162.984V168ZM1233.66 164.75V164.07L1231.95 164.297C1231.45 164.37 1231.07 164.508 1230.81 164.711C1230.56 164.909 1230.44 165.201 1230.44 165.586C1230.44 165.977 1230.56 166.281 1230.8 166.5C1231.04 166.719 1231.34 166.828 1231.72 166.828C1232.31 166.828 1232.78 166.633 1233.13 166.242C1233.49 165.846 1233.66 165.349 1233.66 164.75ZM1236.89 167.359L1237.68 166.078C1237.99 166.297 1238.32 166.474 1238.67 166.609C1239.03 166.74 1239.41 166.805 1239.82 166.805C1240.27 166.805 1240.61 166.724 1240.86 166.562C1241.11 166.396 1241.23 166.148 1241.23 165.82C1241.23 165.56 1241.13 165.344 1240.92 165.172C1240.72 164.995 1240.37 164.849 1239.88 164.734C1238.88 164.5 1238.17 164.19 1237.77 163.805C1237.36 163.419 1237.16 162.911 1237.16 162.281C1237.16 161.557 1237.45 160.966 1238.01 160.508C1238.57 160.044 1239.31 159.812 1240.22 159.812C1240.67 159.812 1241.1 159.872 1241.52 159.992C1241.93 160.107 1242.33 160.292 1242.72 160.547L1241.98 161.797C1241.64 161.578 1241.33 161.422 1241.04 161.328C1240.75 161.234 1240.46 161.188 1240.16 161.188C1239.73 161.188 1239.4 161.268 1239.16 161.43C1238.92 161.586 1238.8 161.805 1238.8 162.086C1238.8 162.383 1238.92 162.604 1239.16 162.75C1239.41 162.891 1239.82 163.029 1240.39 163.164C1241.26 163.372 1241.89 163.674 1242.29 164.07C1242.69 164.461 1242.89 164.984 1242.89 165.641C1242.89 166.417 1242.61 167.036 1242.04 167.5C1241.48 167.958 1240.71 168.188 1239.75 168.188C1239.23 168.188 1238.73 168.12 1238.25 167.984C1237.78 167.844 1237.32 167.635 1236.89 167.359Z" fill="#585857"/>
</svg>
