<svg width="40" height="660" viewBox="0 0 40 660" fill="none" xmlns="http://www.w3.org/2000/svg">
<g clip-path="url(#clip0_329_1303)">
<path d="M25.3295 271.903L40.0859 286.626L40.0859 257.187L25.3295 271.903Z" fill="#295E4D"/>
<path d="M25.3295 317.223L40.0859 331.94L40.0859 302.5L25.3295 317.223Z" fill="#295E4D"/>
<path d="M25.3295 226.589L40.0859 241.312L40.0859 211.866L25.3295 226.589Z" fill="#295E4D"/>
<path d="M25.3295 362.537L40.0859 377.26L40.0859 347.821L25.3295 362.537Z" fill="#295E4D"/>
<path d="M25.3295 135.948L40.0859 150.671L40.0859 121.232L25.3295 135.948Z" fill="#295E4D"/>
<path d="M25.3295 45.3204L40.0859 60.0433L40.0859 30.5974L25.3295 45.3204Z" fill="#295E4D"/>
<path d="M25.3295 181.268L40.0859 195.991L40.0859 166.552L25.3295 181.268Z" fill="#295E4D"/>
<path d="M25.3295 90.6342L40.0859 105.357L40.0859 75.918L25.3295 90.6342Z" fill="#295E4D"/>
<path d="M0.161837 385.201C0.161837 387.519 2.04132 389.399 4.35979 389.399C6.67825 389.399 8.55774 387.519 8.55774 385.201C8.55774 382.882 6.67825 381.003 4.35979 381.003C2.04132 381.003 0.161837 382.882 0.161837 385.201Z" fill="#295E4D"/>
<path d="M0.161837 339.9C0.161837 342.219 2.04132 344.098 4.35979 344.098C6.67825 344.098 8.55774 342.219 8.55774 339.9C8.55774 337.582 6.67825 335.702 4.35979 335.702C2.04132 335.702 0.161837 337.582 0.161837 339.9Z" fill="#295E4D"/>
<path d="M0.161837 294.6C0.161837 296.918 2.04132 298.798 4.35979 298.798C6.67825 298.798 8.55774 296.918 8.55774 294.6C8.55774 292.281 6.67825 290.402 4.35979 290.402C2.04132 290.402 0.161837 292.281 0.161837 294.6Z" fill="#295E4D"/>
<path d="M0.161837 249.299C0.161837 251.618 2.04132 253.497 4.35979 253.497C6.67825 253.497 8.55774 251.618 8.55774 249.299C8.55774 246.981 6.67825 245.101 4.35979 245.101C2.04132 245.101 0.161837 246.981 0.161837 249.299Z" fill="#295E4D"/>
<path d="M0.161837 203.999C0.161837 206.318 2.04132 208.197 4.35979 208.197C6.67825 208.197 8.55774 206.318 8.55774 203.999C8.55774 201.681 6.67825 199.801 4.35979 199.801C2.04132 199.801 0.161837 201.681 0.161837 203.999Z" fill="#295E4D"/>
<path d="M0.161837 158.692C0.161837 161.01 2.04132 162.89 4.35979 162.89C6.67825 162.89 8.55774 161.01 8.55774 158.692C8.55774 156.374 6.67825 154.494 4.35979 154.494C2.04132 154.494 0.161837 156.374 0.161837 158.692Z" fill="#295E4D"/>
<path d="M0.161837 113.392C0.161837 115.71 2.04132 117.59 4.35979 117.59C6.67825 117.59 8.55774 115.71 8.55774 113.392C8.55774 111.073 6.67825 109.194 4.35979 109.194C2.04132 109.194 0.161837 111.073 0.161837 113.392Z" fill="#295E4D"/>
<path d="M0.161837 68.0913C0.161837 70.4097 2.04132 72.2892 4.35979 72.2892C6.67825 72.2892 8.55774 70.4097 8.55774 68.0913C8.55774 65.7728 6.67825 63.8933 4.35979 63.8933C2.04132 63.8933 0.161837 65.7728 0.161837 68.0913Z" fill="#295E4D"/>
<path d="M0.161837 22.7907C0.161837 25.1092 2.04132 26.9887 4.35979 26.9887C6.67825 26.9887 8.55774 25.1092 8.55774 22.7907C8.55774 20.4723 6.67825 18.5928 4.35979 18.5928C2.04132 18.5928 0.161837 20.4723 0.161837 22.7907Z" fill="#295E4D"/>
<path d="M40.0859 1.74845e-06L25.3295 1.10343e-06L40.0859 14.723L40.0859 1.74845e-06Z" fill="#295E4D"/>
<path d="M40.0859 407.851L40.0859 393.135L25.3295 407.851L40.0859 407.851Z" fill="#295E4D"/>
<path d="M17.3688 407.851L40.0859 385.201L17.3688 362.537L40.0859 339.88L17.3688 317.223L40.0859 294.566L17.3688 271.903L40.0859 249.253L17.3688 226.589L40.0859 203.932L17.3688 181.268L40.0859 158.612L17.3688 135.948L40.0859 113.291L17.3688 90.6342L40.0859 67.9774L17.3688 45.3205L40.0859 22.6636L17.3688 7.55456e-07L11.8184 5.12841e-07L34.5355 22.6636L11.8184 45.3205L34.5355 67.9774L11.8184 90.6342L34.5355 113.291L11.8184 135.948L34.5355 158.612L11.8184 181.268L34.5355 203.932L11.8184 226.589L34.5355 249.253L11.8184 271.903L34.5355 294.566L11.8184 317.223L34.5355 339.88L11.8184 362.537L34.5355 385.201L11.8184 407.851L17.3688 407.851Z" fill="#295E4D"/>
<path d="M5.4645 407.851L28.1883 385.201L5.4645 362.537L28.1883 339.88L5.4645 317.223L28.1883 294.566L5.4645 271.903L28.1883 249.252L5.46451 226.589L28.1883 203.932L5.46451 181.268L28.1883 158.612L5.46451 135.948L28.1884 113.291L5.46451 90.6342L28.1884 67.9773L5.46451 45.3204L28.1884 22.6635L5.46452 -6.028e-05L-0.0858858 -6.05226e-05L22.638 22.6635L-0.0858877 45.3204L22.638 67.9773L-0.0858897 90.6342L22.638 113.291L-0.0858917 135.948L22.6379 158.612L-0.0858937 181.268L22.6379 203.932L-0.0858957 226.589L22.6379 249.252L-0.0858976 271.903L22.6379 294.566L-0.0858996 317.223L22.6379 339.88L-0.0859016 362.537L22.6379 385.201L-0.0859036 407.851L5.4645 407.851Z" fill="#295E4D"/>
<path d="M25.3295 634.44L40.0859 649.163L40.0859 619.723L25.3295 634.44Z" fill="#295E4D"/>
<path d="M25.3295 543.806L40.0859 558.529L40.0859 529.083L25.3295 543.806Z" fill="#295E4D"/>
<path d="M25.3295 453.171L40.0859 467.894L40.0859 438.455L25.3295 453.171Z" fill="#295E4D"/>
<path d="M25.3295 589.119L40.0859 603.842L40.0859 574.403L25.3295 589.119Z" fill="#295E4D"/>
<path d="M25.3295 498.492L40.0859 513.208L40.0859 483.769L25.3295 498.492Z" fill="#295E4D"/>
<path d="M0.161837 657.15C0.161837 659.469 2.04132 661.348 4.35979 661.348C6.67825 661.348 8.55774 659.469 8.55774 657.15C8.55774 654.832 6.67825 652.952 4.35979 652.952C2.04132 652.952 0.161837 654.832 0.161837 657.15Z" fill="#295E4D"/>
<path d="M0.161837 611.85C0.161837 614.168 2.04132 616.048 4.35979 616.048C6.67825 616.048 8.55774 614.168 8.55774 611.85C8.55774 609.531 6.67825 607.652 4.35979 607.652C2.04132 607.652 0.161837 609.531 0.161837 611.85Z" fill="#295E4D"/>
<path d="M0.161837 566.549C0.161837 568.868 2.04132 570.747 4.35979 570.747C6.67825 570.747 8.55774 568.868 8.55774 566.549C8.55774 564.231 6.67825 562.351 4.35979 562.351C2.04132 562.351 0.161837 564.231 0.161837 566.549Z" fill="#295E4D"/>
<path d="M0.161837 521.249C0.161837 523.567 2.04132 525.447 4.35979 525.447C6.67825 525.447 8.55774 523.567 8.55774 521.249C8.55774 518.931 6.67825 517.051 4.35979 517.051C2.04132 517.051 0.161837 518.931 0.161837 521.249Z" fill="#295E4D"/>
<path d="M0.161837 475.949C0.161837 478.267 2.04132 480.147 4.35979 480.147C6.67825 480.147 8.55774 478.267 8.55774 475.949C8.55774 473.63 6.67825 471.751 4.35979 471.751C2.04132 471.751 0.161837 473.63 0.161837 475.949Z" fill="#295E4D"/>
<path d="M0.161837 430.641C0.161837 432.96 2.04132 434.839 4.35979 434.839C6.67825 434.839 8.55774 432.96 8.55774 430.641C8.55774 428.323 6.67825 426.443 4.35979 426.443C2.04132 426.443 0.161837 428.323 0.161837 430.641Z" fill="#295E4D"/>
<path d="M40.0859 407.851L25.3295 407.851L40.0859 422.574L40.0859 407.851Z" fill="#295E4D"/>
<path d="M17.3688 815.708L40.0859 793.051L17.3688 770.394L40.0859 747.738L17.3688 725.074L40.0859 702.417L17.3688 679.753L40.0859 657.103L17.3688 634.44L40.0859 611.783L17.3688 589.119L40.0859 566.462L17.3688 543.805L40.0859 521.149L17.3688 498.492L40.0859 475.835L17.3688 453.171L40.0859 430.514L17.3688 407.851L11.8184 407.851L34.5355 430.514L11.8184 453.171L34.5355 475.835L11.8184 498.492L34.5355 521.149L11.8184 543.805L34.5355 566.462L11.8184 589.119L34.5355 611.783L11.8184 634.44L34.5355 657.103L11.8184 679.753L34.5355 702.417L11.8184 725.074L34.5355 747.738L11.8184 770.394L34.5355 793.051L11.8184 815.708L17.3688 815.708Z" fill="#295E4D"/>
<path d="M5.4645 815.708L28.1883 793.051L5.4645 770.395L28.1883 747.738L5.4645 725.074L28.1883 702.417L5.4645 679.754L28.1883 657.103L5.46451 634.44L28.1883 611.783L5.46451 589.119L28.1883 566.462L5.46451 543.806L28.1884 521.149L5.46451 498.492L28.1884 475.835L5.46451 453.171L28.1884 430.514L5.46452 407.851L-0.0858858 407.851L22.638 430.514L-0.0858877 453.171L22.638 475.835L-0.0858897 498.492L22.638 521.149L-0.0858917 543.806L22.6379 566.462L-0.0858937 589.119L22.6379 611.783L-0.0858957 634.44L22.6379 657.103L-0.0858976 679.754L22.6379 702.417L-0.0858996 725.074L22.6379 747.738L-0.0859016 770.395L22.6379 793.051L-0.0859036 815.708L5.4645 815.708Z" fill="#295E4D"/>
</g>
<defs>
<clipPath id="clip0_329_1303">
<rect width="660" height="40" fill="white" transform="translate(40 1.74845e-06) rotate(90)"/>
</clipPath>
</defs>
</svg>
