<svg width="1440" height="24" viewBox="0 0 1440 24" fill="none" xmlns="http://www.w3.org/2000/svg">
<g opacity="0.4">
<path d="M271.12 0L283.93 10.7944L296.75 0H271.12Z" fill="#F9B122"/>
<path d="M252.1 23.1398H277.91L265.01 12.2725L252.1 23.1398Z" fill="#F9B122"/>
<path d="M214.25 23.1398H240.05L227.15 12.2725L214.25 23.1398Z" fill="#F9B122"/>
<path d="M289.96 23.1398H315.76L302.86 12.2725L289.96 23.1398Z" fill="#F9B122"/>
<path d="M233.26 0L246.07 10.7944L258.89 0H233.26Z" fill="#F9B122"/>
<path d="M195.41 0L208.22 10.7944L221.03 0H195.41Z" fill="#F9B122"/>
<path d="M308.98 0L321.79 10.7944L334.61 0H308.98Z" fill="#F9B122"/>
<path d="M0 23.1398H12.9L0 12.2725V23.1398Z" fill="#F9B122"/>
<path d="M346.84 0L359.65 10.7944L372.46 0H346.84Z" fill="#F9B122"/>
<path d="M327.82 23.1398H353.62L340.72 12.2725L327.82 23.1398Z" fill="#F9B122"/>
<path d="M379.05 12.2725L366.15 23.1398H379.05H391.95L379.05 12.2725Z" fill="#F9B122"/>
<path d="M43.97 0L56.79 10.7944L69.6 0H43.97Z" fill="#F9B122"/>
<path d="M24.96 23.1398H50.76L37.86 12.2725L24.96 23.1398Z" fill="#F9B122"/>
<path d="M176.39 23.1398H202.19L189.29 12.2725L176.39 23.1398Z" fill="#F9B122"/>
<path d="M81.8301 0L94.6401 10.7944L107.46 0H81.8301Z" fill="#F9B122"/>
<path d="M6.12012 0L18.9301 10.7944L31.7401 0H6.12012Z" fill="#F9B122"/>
<path d="M62.8101 23.1398H88.6201L75.7201 12.2725L62.8101 23.1398Z" fill="#F9B122"/>
<path d="M138.53 23.1398H164.33L151.43 12.2725L138.53 23.1398Z" fill="#F9B122"/>
<path d="M157.55 0L170.36 10.7944L183.17 0H157.55Z" fill="#F9B122"/>
<path d="M119.69 0L132.5 10.7944L145.31 0H119.69Z" fill="#F9B122"/>
<path d="M100.67 23.1398H126.47L113.57 12.2725L100.67 23.1398Z" fill="#F9B122"/>
<path d="M650.17 0L662.98 10.7944L675.79 0H650.17Z" fill="#F9B122"/>
<path d="M631.15 23.1398H656.95L644.05 12.2725L631.15 23.1398Z" fill="#F9B122"/>
<path d="M593.29 23.1398H619.09L606.19 12.2725L593.29 23.1398Z" fill="#F9B122"/>
<path d="M669.01 23.1398H694.81L681.91 12.2725L669.01 23.1398Z" fill="#F9B122"/>
<path d="M612.31 0L625.12 10.7944L637.93 0H612.31Z" fill="#F9B122"/>
<path d="M574.45 0L587.26 10.7944L600.08 0H574.45Z" fill="#F9B122"/>
<path d="M688.03 0L700.84 10.7944L713.65 0H688.03Z" fill="#F9B122"/>
<path d="M725.88 0L738.69 10.7944L751.51 0H725.88Z" fill="#F9B122"/>
<path d="M706.87 23.1398H732.67L719.77 12.2725L706.87 23.1398Z" fill="#F9B122"/>
<path d="M758.09 12.2725L745.19 23.1398H758.09H770.99L758.09 12.2725Z" fill="#F9B122"/>
<path d="M423.02 0L435.83 10.7944L448.65 0H423.02Z" fill="#F9B122"/>
<path d="M404 23.1398H429.8L416.9 12.2725L404 23.1398Z" fill="#F9B122"/>
<path d="M555.43 23.1398H581.23L568.33 12.2725L555.43 23.1398Z" fill="#F9B122"/>
<path d="M460.88 0L473.69 10.7944L486.5 0H460.88Z" fill="#F9B122"/>
<path d="M385.17 0L397.97 10.7944L410.79 0H385.17Z" fill="#F9B122"/>
<path d="M441.86 23.1398H467.66L454.76 12.2725L441.86 23.1398Z" fill="#F9B122"/>
<path d="M517.58 23.1398H543.38L530.48 12.2725L517.58 23.1398Z" fill="#F9B122"/>
<path d="M536.59 0L549.41 10.7944L562.22 0H536.59Z" fill="#F9B122"/>
<path d="M498.74 0L511.55 10.7944L524.36 0H498.74Z" fill="#F9B122"/>
<path d="M479.72 23.1398H505.52L492.62 12.2725L479.72 23.1398Z" fill="#F9B122"/>
<path d="M1029.21 0L1042.03 10.7944L1054.84 0H1029.21Z" fill="#F9B122"/>
<path d="M1010.19 23.1398H1036L1023.1 12.2725L1010.19 23.1398Z" fill="#F9B122"/>
<path d="M972.34 23.1398H998.14L985.24 12.2725L972.34 23.1398Z" fill="#F9B122"/>
<path d="M1048.05 23.1398H1073.85L1060.95 12.2725L1048.05 23.1398Z" fill="#F9B122"/>
<path d="M991.36 0L1004.17 10.7944L1016.98 0H991.36Z" fill="#F9B122"/>
<path d="M953.5 0L966.31 10.7944L979.12 0H953.5Z" fill="#F9B122"/>
<path d="M1067.07 0L1079.88 10.7944L1092.7 0H1067.07Z" fill="#F9B122"/>
<path d="M1104.93 0L1117.74 10.7944L1130.55 0H1104.93Z" fill="#F9B122"/>
<path d="M1085.91 23.1398H1111.71L1098.81 12.2725L1085.91 23.1398Z" fill="#F9B122"/>
<path d="M1137.14 12.2725L1124.24 23.1398H1137.14H1150.04L1137.14 12.2725Z" fill="#F9B122"/>
<path d="M802.07 0L814.88 10.7944L827.69 0H802.07Z" fill="#F9B122"/>
<path d="M783.05 23.1398H808.85L795.95 12.2725L783.05 23.1398Z" fill="#F9B122"/>
<path d="M934.48 23.1398H960.28L947.38 12.2725L934.48 23.1398Z" fill="#F9B122"/>
<path d="M839.92 0L852.73 10.7944L865.55 0H839.92Z" fill="#F9B122"/>
<path d="M764.21 0L777.02 10.7944L789.83 0H764.21Z" fill="#F9B122"/>
<path d="M820.91 23.1398H846.71L833.81 12.2725L820.91 23.1398Z" fill="#F9B122"/>
<path d="M896.62 23.1398H922.42L909.52 12.2725L896.62 23.1398Z" fill="#F9B122"/>
<path d="M915.64 0L928.45 10.7944L941.26 0H915.64Z" fill="#F9B122"/>
<path d="M877.78 0L890.59 10.7944L903.41 0H877.78Z" fill="#F9B122"/>
<path d="M858.76 23.1398H884.57L871.67 12.2725L858.76 23.1398Z" fill="#F9B122"/>
<path d="M1408.26 0L1421.07 10.7944L1433.88 0H1408.26Z" fill="#F9B122"/>
<path d="M1389.24 23.1398H1415.04L1402.14 12.2725L1389.24 23.1398Z" fill="#F9B122"/>
<path d="M1351.38 23.1398H1377.18L1364.29 12.2725L1351.38 23.1398Z" fill="#F9B122"/>
<path d="M1370.4 0L1383.21 10.7944L1396.03 0H1370.4Z" fill="#F9B122"/>
<path d="M1332.54 0L1345.35 10.7944L1358.17 0H1332.54Z" fill="#F9B122"/>
<path d="M1181.11 0L1193.92 10.7944L1206.74 0H1181.11Z" fill="#F9B122"/>
<path d="M1162.09 23.1398H1187.89L1174.99 12.2725L1162.09 23.1398Z" fill="#F9B122"/>
<path d="M1313.53 23.1398H1339.33L1326.43 12.2725L1313.53 23.1398Z" fill="#F9B122"/>
<path d="M1218.97 0L1231.78 10.7944L1244.59 0H1218.97Z" fill="#F9B122"/>
<path d="M1143.26 0L1156.07 10.7944L1168.88 0H1143.26Z" fill="#F9B122"/>
<path d="M1199.95 23.1398H1225.75L1212.85 12.2725L1199.95 23.1398Z" fill="#F9B122"/>
<path d="M1275.67 23.1398H1301.47L1288.57 12.2725L1275.67 23.1398Z" fill="#F9B122"/>
<path d="M1294.69 0L1307.5 10.7944L1320.31 0H1294.69Z" fill="#F9B122"/>
<path d="M1256.83 0L1269.64 10.7944L1282.45 0H1256.83Z" fill="#F9B122"/>
<path d="M1237.81 23.1398H1263.61L1250.71 12.2725L1237.81 23.1398Z" fill="#F9B122"/>
<path d="M1427.1 23.1398H1440V12.2725L1427.1 23.1398Z" fill="#F9B122"/>
<path d="M719.77 5.13702L738.7 21.0868L757.62 5.13702L776.55 21.0868L795.48 5.13702L814.41 21.0868L833.34 5.13702L852.27 21.0868L871.2 5.13702L890.13 21.0868L909.05 5.13702L927.98 21.0868L946.92 5.13702L965.84 21.0868L984.77 5.13702L1003.7 21.0868L1022.63 5.13702L1041.56 21.0868L1060.49 5.13702L1079.41 21.0868L1098.34 5.13702L1117.27 21.0868L1136.2 5.13702L1155.13 21.0868L1174.06 5.13702L1192.99 21.0868L1211.92 5.13702L1230.85 21.0868L1249.77 5.13702L1268.7 21.0868L1287.64 5.13702L1306.56 21.0868L1325.49 5.13702L1344.42 21.0868L1363.35 5.13702L1382.28 21.0868L1401.21 5.13702L1420.13 21.0868L1439.53 4.74467V0.839355L1420.13 17.1814L1401.21 1.23171L1382.28 17.1814L1363.35 1.23171L1344.42 17.1814L1325.49 1.23171L1306.56 17.1814L1287.64 1.23171L1268.7 17.1814L1249.77 1.23171L1230.85 17.1814L1211.92 1.23171L1192.99 17.1814L1174.06 1.23171L1155.13 17.1814L1136.2 1.23171L1117.27 17.1814L1098.34 1.23171L1079.41 17.1814L1060.49 1.23171V1.24084L1041.56 17.1814L1022.63 1.23171L1003.7 17.1814L984.77 1.23171L965.84 17.1814L946.92 1.23171L927.98 17.1814L909.05 1.23171L890.13 17.1814L871.2 1.23171L852.27 17.1814L833.34 1.23171L814.41 17.1814L795.48 1.23171L776.55 17.1814L757.62 1.23171L738.7 17.1814L719.77 1.23171V1.21346L700.37 17.5556L681.44 1.60582L662.51 17.5556L643.58 1.60582L624.65 17.5556L605.73 1.60582L586.79 17.5556L567.87 1.60582L548.94 17.5556L530.01 1.60582L511.08 17.5556L492.15 1.60582L473.22 17.5556L454.29 1.60582L435.36 17.5556L416.44 1.60582L397.51 17.5556L378.58 1.60582L359.65 17.5556L340.72 1.60582V1.61494L321.79 17.5556L302.86 1.60582L283.93 17.5556L265.01 1.60582L246.07 17.5556L227.15 1.60582L208.22 17.5556L189.29 1.60582L170.36 17.5556L151.43 1.60582L132.5 17.5556L113.57 1.60582L94.64 17.5556L75.72 1.60582L56.79 17.5556L37.86 1.60582L18.93 17.5556L0 1.60582V5.51113L18.93 21.4609L37.86 5.51113L56.79 21.4609L75.72 5.51113L94.64 21.4609L113.57 5.51113L132.5 21.4609L151.43 5.51113L170.36 21.4609L189.29 5.51113L208.22 21.4609L227.15 5.51113L246.07 21.4609L265.01 5.51113L283.93 21.4609L302.86 5.51113L321.79 21.4609L340.72 5.51113L359.65 21.4609L378.58 5.51113L397.51 21.4609L416.44 5.51113L435.36 21.4609L454.29 5.51113L473.22 21.4609L492.15 5.51113L511.08 21.4609L530.01 5.51113L548.94 21.4609L567.87 5.51113L586.79 21.4609L605.73 5.51113L624.65 21.4609L643.58 5.51113L662.51 21.4609L681.44 5.51113L700.37 21.4609L719.77 5.11878V5.13702Z" fill="#F9B122"/>
</g>
</svg>
