<svg width="20" height="20" viewBox="0 0 20 20" fill="none" xmlns="http://www.w3.org/2000/svg">
<path d="M19.9568 9.01002C19.4102 3.51657 14.5101 -0.49684 9.01661 0.0498374C3.52317 0.596515 -0.496912 5.49661 0.0497656 10.9901C0.596443 16.4835 5.49654 20.4969 10.99 19.9502C16.4834 19.4036 20.4968 14.5035 19.9502 9.01002H19.9568ZM14.7834 13.6834L14.31 14.2635C13.63 15.1035 13.05 15.1568 12.1567 14.9435C8.74327 14.0501 6.22322 11.6367 5.1232 8.22333C4.75653 6.90997 5.2832 5.80995 6.38323 5.12327C6.96324 4.7566 7.32991 5.0166 7.53658 5.59661L8.06326 6.96331C8.06326 6.96331 8.42993 7.69666 7.48325 8.43667C7.37658 8.50778 7.34102 8.63001 7.37658 8.80335C7.58992 9.43669 8.42993 11.3234 11.1033 12.7968C11.3633 12.9568 11.4167 12.9568 11.6833 12.7434C11.8967 12.5368 12.1567 12.2701 12.3633 12.0634C12.8367 11.6434 13.0967 11.4834 13.5167 11.8034C13.83 12.0101 14.15 12.2767 14.4634 12.4834C14.7767 12.7434 15.3034 13.0634 14.7767 13.6901L14.7834 13.6834Z" fill="#295E4D"/>
</svg>
