<svg width="210" height="159" viewBox="0 0 210 159" fill="none" xmlns="http://www.w3.org/2000/svg">
<g clip-path="url(#clip0_724_705)">
<path d="M7.42358 125.967C7.42358 126.231 7.26131 126.393 6.99763 126.393H0.425943C0.162264 126.393 0 126.231 0 125.967L0.233254 115.035L0 103.636C0 103.372 0.162264 103.21 0.425943 103.21H6.98749C7.25117 103.21 7.41343 103.372 7.41343 103.636L7.18018 115.035L7.41343 125.967H7.42358Z" fill="white"/>
<path d="M28.3252 125.968C28.3252 126.262 28.1629 126.393 27.8993 126.393H21.6724C21.4087 126.393 21.2464 126.262 21.2464 125.968L21.3479 119.173V116.029C21.3479 114.568 20.7191 113.94 19.7556 113.94C18.0316 113.94 17.0681 115.998 17.0377 119.244L17.1391 125.968C17.1391 126.262 16.9769 126.393 16.703 126.393H10.4762C10.2125 126.393 10.0401 126.231 10.0401 125.968L10.2023 117.783L10.1009 109.761C10.1009 109.467 10.2632 109.335 10.5269 109.335H16.3887C16.6523 109.335 16.7842 109.498 16.7842 109.761L16.7132 111.323C17.8693 109.538 19.9585 108.94 22.0172 108.94C26.0637 108.94 28.2136 111.587 28.2136 115.238V119.183L28.3151 125.978L28.3252 125.968Z" fill="white"/>
<path d="M30.4144 117.925C30.4144 112.429 34.0551 108.849 39.562 108.849C44.5009 108.849 47.6143 111.465 48.0808 115.339C48.1113 115.633 47.9186 115.806 47.6549 115.806H42.0872C41.8235 115.806 41.6917 115.674 41.6207 115.41C41.3875 113.95 40.7283 113.453 39.7648 113.453C38.3044 113.453 37.5438 114.548 37.5438 117.854C37.5438 121.16 38.3044 122.327 39.7344 122.327C40.7283 122.327 41.5599 121.769 41.7525 120.339C41.783 120.045 41.9148 119.913 42.1886 119.913H47.8882C48.1518 119.913 48.3547 120.045 48.3141 120.278C47.8882 124.122 44.3386 126.9 39.6025 126.9C34.0653 126.9 30.4245 123.422 30.4245 117.925H30.4144Z" fill="white"/>
<path d="M62.4209 109.802C62.3905 109.538 62.5832 109.336 62.8469 109.336H69.0433C69.307 109.336 69.4693 109.498 69.4693 109.761L69.2664 117.743L69.4693 125.957C69.4693 126.221 69.307 126.383 69.0433 126.383H63.0091C62.7455 126.383 62.5832 126.221 62.5832 125.957L62.644 124.568C61.4879 125.927 59.7943 126.718 57.6443 126.718C52.8372 126.718 50.1903 122.874 50.1903 117.905C50.1903 112.936 53.3037 108.991 58.0804 108.991C59.9363 108.991 61.4271 109.619 62.5223 110.776L62.4209 109.782V109.802ZM60.0681 113.453C58.3136 113.453 57.2893 114.842 57.2893 117.956C57.2893 121.069 58.2832 122.266 59.9363 122.266C61.5893 122.266 62.6238 121.11 62.6542 117.956C62.6846 114.842 61.8226 113.453 60.0681 113.453Z" fill="white"/>
<path d="M90.9489 125.968C90.9489 126.262 90.7867 126.394 90.523 126.394H83.7992C83.5355 126.394 83.3732 126.262 83.3732 125.968L83.5761 114.67L83.4746 108.342H77.5115C77.2478 108.342 77.0855 108.179 77.0855 107.916V103.646C77.0855 103.382 77.2478 103.22 77.5115 103.22H96.831C97.0947 103.22 97.2569 103.382 97.2569 103.646V107.916C97.2569 108.179 97.0947 108.342 96.831 108.342H90.8678L90.7664 114.67L90.9692 125.968H90.9489Z" fill="white"/>
<path d="M102.946 125.967C102.946 126.262 102.784 126.393 102.52 126.393H96.3949C96.1313 126.393 95.9589 126.231 95.9589 125.967L96.2225 118.017L95.9589 109.771C95.9589 109.508 96.1211 109.346 96.3949 109.346H102.46C102.723 109.346 102.855 109.508 102.855 109.771L102.754 111.962C104.113 110.137 105.969 109.244 108.159 109.244C108.291 109.244 108.453 109.275 108.585 109.275C108.849 109.305 108.981 109.477 108.981 109.741V113.95C108.981 114.213 108.879 114.416 108.717 114.376H108.453C104.873 114.376 102.693 116.495 102.916 120.471L102.946 125.967Z" fill="white"/>
<path d="M109.974 117.925C109.974 112.429 113.483 108.849 119.416 108.849C125.349 108.849 128.797 112.297 128.797 117.793C128.797 123.29 125.379 126.9 119.416 126.9C113.453 126.9 109.974 123.422 109.974 117.925ZM121.698 117.925C121.698 114.548 120.937 113.382 119.376 113.382C117.722 113.453 117.023 114.609 117.023 117.986C117.023 121.363 117.814 122.327 119.406 122.327C120.998 122.327 121.688 121.404 121.688 117.925H121.698Z" fill="white"/>
<path d="M150.196 117.824C150.196 122.763 147.082 126.738 142.306 126.738C140.521 126.738 139.03 126.14 137.965 125.045L138.066 131.606C138.066 131.9 137.904 132.032 137.64 132.032H131.343C131.079 132.032 130.917 131.9 130.917 131.606L131.119 120.045L130.917 109.772C130.917 109.508 131.079 109.346 131.343 109.346H137.377C137.64 109.346 137.803 109.508 137.803 109.772L137.742 111.161C138.898 109.802 140.592 109.011 142.742 109.011C147.549 109.011 150.196 112.855 150.196 117.824ZM143.107 117.783C143.107 114.64 142.113 113.473 140.46 113.473C138.807 113.473 137.772 114.629 137.742 117.783C137.711 120.897 138.573 122.286 140.328 122.286C142.082 122.286 143.107 120.897 143.107 117.783Z" fill="white"/>
<path d="M159.475 103.646V107.916C159.475 108.179 159.313 108.342 159.049 108.342H152.853C152.589 108.342 152.427 108.179 152.427 107.916V103.646C152.427 103.382 152.589 103.22 152.853 103.22H159.049C159.313 103.22 159.475 103.382 159.475 103.646ZM159.475 125.968C159.475 126.262 159.313 126.394 159.049 126.394H152.883C152.619 126.394 152.457 126.262 152.457 125.968L152.559 118.179L152.457 109.761C152.457 109.467 152.619 109.336 152.883 109.336H159.049C159.313 109.336 159.475 109.467 159.475 109.761L159.374 118.179L159.475 125.968Z" fill="white"/>
<path d="M161.726 117.925C161.726 112.429 165.367 108.849 170.874 108.849C175.813 108.849 178.926 111.465 179.393 115.339C179.423 115.633 179.231 115.806 178.957 115.806H173.389C173.126 115.806 172.994 115.674 172.923 115.41C172.689 113.95 172.03 113.453 171.067 113.453C169.606 113.453 168.846 114.548 168.846 117.854C168.846 121.16 169.606 122.327 171.036 122.327C172.03 122.327 172.862 121.769 173.055 120.339C173.085 120.045 173.217 119.913 173.48 119.913H179.18C179.444 119.913 179.647 120.045 179.606 120.278C179.18 124.122 175.63 126.9 170.894 126.9C165.357 126.9 161.716 123.422 161.716 117.925H161.726Z" fill="white"/>
<path d="M193.733 109.802C193.703 109.538 193.895 109.336 194.159 109.336H200.355C200.619 109.336 200.792 109.498 200.792 109.761L200.589 117.743L200.792 125.957C200.792 126.221 200.629 126.383 200.355 126.383H194.321C194.058 126.383 193.895 126.221 193.895 125.957L193.966 124.568C192.81 125.927 191.117 126.718 188.967 126.718C184.159 126.718 181.513 122.874 181.513 117.905C181.513 112.936 184.626 108.991 189.403 108.991C191.258 108.991 192.749 109.619 193.845 110.776L193.743 109.782L193.733 109.802ZM191.38 113.453C189.626 113.453 188.601 114.842 188.601 117.956C188.601 121.069 189.595 122.266 191.248 122.266C192.901 122.266 193.936 121.11 193.966 117.956C193.997 114.842 193.135 113.453 191.38 113.453Z" fill="white"/>
<path d="M210 125.967C210 126.262 209.838 126.393 209.574 126.393H203.611C203.347 126.393 203.185 126.262 203.185 125.967L203.317 114.934L203.185 103.636C203.185 103.342 203.347 103.21 203.611 103.21H209.574C209.838 103.21 210 103.342 210 103.636L209.868 114.964L210 125.967Z" fill="white"/>
<path d="M150.936 47.513H132.478C132.103 46.4988 132.387 45.4238 132.245 44.4198C131.789 41.0326 130.622 37.554 129.071 34.5217C128.726 33.8423 126.789 31.1548 127.174 30.6882C128.868 30.1406 138.431 22.2201 139.151 22.3418C139.831 22.4635 143.168 28.7918 143.624 29.8059C144.577 31.9052 145.561 34.5522 146.109 36.7833C146.2 37.1484 146.676 39.2984 146.636 39.4404C146.545 39.7243 146.149 39.7852 145.906 39.8562C144.253 40.3024 141.616 40.7588 139.882 41.0326C139.517 41.0934 137.955 41.3064 137.782 41.0529C137.681 40.9007 137.154 38.0003 136.971 37.4121C136.728 36.6514 135.075 32.9599 135.308 32.5847L137.742 31.6111C138.137 32.392 139.01 35.7793 139.628 36.0632C139.851 36.1647 142.397 35.4243 142.488 34.9173C142.63 34.0958 140.399 29.4206 139.851 28.4571C139.486 27.8182 139.151 26.6824 138.259 26.9055L131.312 30.9621C131.079 31.1142 130.785 31.4691 130.764 31.7328C130.744 32.0269 132.549 35.1911 132.813 35.8604C133.706 38.0713 134.375 40.921 134.882 43.2637C134.963 43.6694 134.76 44.3894 134.973 44.6835C135.44 45.363 140.612 44.3894 141.616 44.2981C142.742 44.1967 150.246 43.7505 150.53 43.3651C151.007 42.7161 149.759 37.9901 149.526 36.9658C148.086 30.8404 145.885 25.7392 142.245 20.567C141.677 19.7557 140.277 17.697 139.638 17.1189C139.273 16.7944 138.999 16.6828 138.584 17.0175C134.223 20.922 129.76 24.7757 125.308 28.5382C124.669 28.5991 122.743 26.2767 122.114 25.7392C119.913 23.8732 116.658 21.8956 114.011 20.78C113.078 20.3845 111.344 20.0904 110.613 19.6746C110.451 19.5833 110.4 19.4717 110.36 19.2993L113.98 5.27365C114.163 5.02011 114.447 5.06068 114.721 5.0911C115.197 5.14181 117.276 5.88214 117.895 6.09511C120.278 6.92671 123.229 8.29582 125.41 9.5635C126.099 9.96916 130.886 13.1536 130.896 13.5085C129.973 14.3706 126.272 19.7861 125.491 20.0092C124.69 20.2425 122.672 18.4069 121.82 17.8795C121.171 17.484 117.804 15.8715 117.672 15.6788C117.611 15.5977 118.392 13.8939 118.473 13.7418C118.605 13.4984 118.595 13.4578 118.909 13.397C119.943 13.2246 122.438 15.4557 123.219 15.2732C123.696 15.1616 125.014 12.8696 124.791 12.4538C124.73 12.3423 123.189 11.4397 122.915 11.2876C121.921 10.7501 118.635 9.09699 117.723 8.91445C117.357 8.84346 116.465 8.72176 116.252 9.03615C116.161 10.1517 113.24 17.3522 113.524 17.7477C113.605 17.8592 115.643 18.4475 116.11 18.6706C118.808 19.9281 121.597 21.6927 123.939 23.5385C124.578 24.0456 125.014 25.1408 126.018 24.6743L136.413 13.8432C136.545 12.9609 128.635 7.4845 127.448 6.77459C123.574 4.48261 116.698 1.50101 112.277 0.922948C111.739 0.851957 111.151 0.892523 110.613 0.933089L107.439 18.8734C102.764 18.4475 98.3522 18.6199 93.8596 19.9687C93.1801 20.1715 90.4723 21.571 90.0869 21.1147L83.8803 8.09299C84.0223 7.70761 86.4258 6.67318 86.9633 6.46021C90.2796 5.12153 94.5188 4.11752 98.0784 3.75243C98.8897 3.67129 101.222 3.38733 101.841 3.59016C102.094 3.67129 102.105 3.80313 102.155 4.03639C102.338 5.02011 102.105 6.72388 102.155 7.82931C102.216 9.29982 102.683 10.9732 102.135 12.4335L93.4438 13.5187C93.2105 13.113 92.5716 11.5715 92.8556 11.2267C93.4133 10.5574 96.9933 10.4255 97.2468 10.0706C97.5206 9.69534 97.2874 6.95714 96.7296 6.80502C96.5876 6.76445 94.1232 7.13969 93.7784 7.21068C92.0544 7.56563 90.2188 8.37695 88.4643 8.71162C88.0282 8.8536 88.0891 9.50266 88.1499 9.89817C88.3629 11.0746 90.1376 15.5571 90.7157 16.8045C91.2025 17.8592 91.2025 18.0519 92.3789 17.768C95.8574 16.9161 98.1596 16.1555 101.871 15.8817C102.764 15.8107 104.315 16.0541 105.046 15.8411C105.887 15.5977 105.492 13.5288 105.563 12.7581C105.776 10.1517 105.969 7.59605 106.131 4.98969C106.212 3.78285 107.317 0.365165 105.664 0.152194C99.914 -0.608418 90.807 1.29818 85.3914 3.37719C84.286 3.80313 78.5256 6.23709 78.3126 7.10926C78.2721 7.26138 78.2924 7.40336 78.3836 7.5352C79.2964 9.43166 87.5516 22.0375 87.3994 22.9503C87.3791 23.0821 85.6957 23.9847 85.3914 24.2078C81.5883 27.1083 78.2822 31.2055 76.3046 35.5765L75.5947 35.7286L62.7759 30.171C62.5021 29.9479 62.1065 29.6842 62.2181 29.2684C64.5608 25.0597 67.2077 20.9828 70.524 17.484C70.9398 17.0479 73.1405 14.8269 73.4954 14.7661C74.0836 14.6647 74.5907 15.8208 74.895 16.1555C76.3249 17.7578 77.7752 19.3399 79.1544 20.993C79.2457 21.135 79.2761 21.2871 79.2558 21.4493C79.2355 21.6217 77.0957 23.3762 76.69 23.8326C75.6556 24.9786 74.7124 26.2564 73.891 27.5647C73.5056 28.2746 71.3454 26.5404 71.3252 26.3984C71.244 25.7595 74.2155 23.214 74.1141 22.4635C74.0836 22.2302 72.461 20.6279 72.2379 20.5265C71.9438 20.3845 71.7815 20.3845 71.4874 20.5265C70.8079 20.8408 67.7959 25.3031 67.3193 26.2057C66.9542 26.8852 66.2341 27.6762 66.9643 28.2746C68.1813 28.5687 73.9315 32.4934 74.5806 32.3413C75.0167 32.2399 76.8016 29.2279 77.2884 28.5991C78.6372 26.8446 80.5843 24.938 82.2577 23.4776C83.0386 22.7982 84.5091 22.4432 83.86 21.2465C81.1928 17.7578 78.7284 14.1069 76.0612 10.6385C75.5947 10.03 75.4933 8.86374 74.2865 9.47223C73.7287 9.75619 71.5584 11.6527 70.9398 12.2003C66.6601 15.9932 63.0598 20.8611 60.4535 25.9522C59.7537 27.3213 58.3238 30.0493 57.9587 31.4184C57.8674 31.7632 57.7964 32.0878 57.8877 32.4427L74.824 38.4262C75.2296 38.984 74.1546 42.0974 74.0127 42.9392C73.5259 45.7585 73.3027 48.3649 73.5867 51.2146C73.749 52.8576 74.2155 54.4802 74.3473 56.1333L59.9464 60.0276C58.912 56.1637 58.5773 52.1679 58.2325 48.1823L58.8308 41.4889C59.3075 41.0833 64.9259 42.209 65.9299 42.3915C66.4471 42.4828 67.3294 42.209 67.6134 42.7972C67.8872 43.355 67.3598 44.6227 67.3193 45.3427C67.2381 46.9349 67.3193 48.6691 67.3193 50.2816C67.3193 51.0929 67.9176 51.2958 66.7716 51.6102C66.5688 51.6609 65.078 51.9043 64.9867 51.8941C64.8752 51.8738 64.6825 51.4783 64.6723 51.4073C64.5202 50.4642 64.6723 48.8517 64.6723 47.8071C64.6723 46.651 62.137 46.5394 61.3865 46.7929C61.0822 46.8944 60.9301 47.5028 60.92 47.8071C60.8693 49.6224 61.1735 51.7319 61.4372 53.5168C61.569 54.4193 61.2039 56.3462 62.6745 56.2448C64.8245 55.6363 67.0049 55.251 69.1752 54.7844C69.4895 54.7135 71.0209 54.6222 71.102 54.541C71.4671 54.1658 70.7775 51.6507 70.7369 51.0422C70.6355 49.592 70.9195 48.1113 70.5443 46.6915L71.4164 40.3429C71.3049 40.1908 69.9256 39.775 69.6011 39.6838C66.4065 38.7507 63.0903 38.0814 59.8957 37.2701C59.2872 37.118 57.0459 36.2559 56.6605 36.3878C56.2752 36.5196 55.5551 39.5418 55.4436 40.1097C54.4903 45.4036 54.7337 52.675 55.8289 57.9993C56.3259 60.4231 57.1676 62.7759 57.8674 65.149L59.1858 65.0679C64.2768 63.6075 69.6619 60.5245 74.6718 59.1453C74.8848 59.0844 75.1282 59.0337 75.3412 59.0844C75.5643 59.1351 77.0348 62.4717 77.3391 63.0092C78.6879 65.3823 80.7162 67.8974 82.6938 69.7634C83.1704 70.2097 86.0202 72.4205 86.0608 72.6639L77.836 84.6816C77.7751 84.7424 77.7042 84.8033 77.6129 84.8236C77.3695 84.8743 75.2398 83.2516 74.8544 82.9474C73.0593 81.5276 70.9601 79.4384 69.4388 77.7245C68.6174 76.7915 64.9157 72.2075 64.8447 71.3049C64.8245 70.9703 64.9563 71.0818 65.078 70.9703C65.6662 70.4632 66.9846 69.9358 67.7148 69.4896C67.8872 69.3781 67.9278 69.1955 68.1204 69.084C68.7898 68.6884 71.528 67.0658 72.0452 66.934C72.1872 66.9035 72.2987 66.8123 72.4306 66.934L77.7244 73.7389C76.8016 74.4792 76.4669 75.9295 75.3006 74.8747C74.8848 74.5097 73.0391 72.1264 72.7348 72.1365C72.1872 72.1365 71.1527 72.9783 70.7369 73.3839C70.0676 74.033 70.0372 74.1851 70.6355 75.0066C71.1122 75.6556 75.4629 80.0165 75.9801 80.3005C76.2336 80.4323 76.7002 80.5946 76.9435 80.4526C78.2721 78.3939 80.4322 76.5684 81.7912 74.6009C83.1299 72.674 81.7608 72.7045 80.4626 71.3252C77.9273 68.6377 75.7367 65.7981 74.0634 62.4818L73.1506 62.35C69.2259 64.5811 64.3478 66.1936 60.5245 68.4856C59.9971 68.8 59.632 68.9014 59.8957 69.6215C60.1999 70.4733 61.5488 72.6132 62.0964 73.4955C66.2138 80.1483 72.5624 86.4056 79.5398 89.9653L88.728 74.317C90.1478 74.6516 91.5169 75.4934 92.9367 75.9903C96.0907 77.0957 99.6909 77.7042 103.027 77.7245C103.91 77.7245 104.894 77.5927 105.776 77.4507C105.958 79.7021 106.313 81.9332 106.536 84.1745C106.749 86.4462 107.054 89.0931 107.115 91.3648C107.155 92.8556 106.526 92.6934 105.127 92.7948C101.598 93.0483 95.7966 92.3891 92.3282 91.5677C91.6183 91.3952 89.4176 90.7868 88.8699 90.4825C88.6773 90.3811 88.515 90.3101 88.5454 90.0464C89.1032 89.1641 91.1011 82.2476 91.5169 82.1665C91.8211 82.1056 95.2084 83.1198 95.898 83.2618C96.689 83.424 99.8633 83.5457 100.086 84.1948L99.914 86.5375C99.2346 86.4158 95.5938 85.7769 95.2692 85.9493C94.5188 86.3448 94.2551 89.0526 94.5999 89.296C94.8839 89.4886 95.4822 89.3061 95.827 89.3872C97.4902 89.7726 99.407 90.0667 101.141 90.1276C101.577 90.1479 103.697 90.2695 103.697 89.8436V81.5073C103.697 81.3653 103.443 80.9495 103.464 80.696C101.699 80.199 99.5489 80.3714 97.7438 80.0773C95.6952 79.7427 93.6872 78.9314 91.7704 78.2823C89.732 77.5927 89.732 77.187 88.7077 79.195C87.1256 82.278 85.1784 86.7099 83.9412 89.9552C83.6572 90.6955 82.998 91.7198 83.8296 92.2877C84.3266 92.6325 87.0445 93.5452 87.8051 93.8089C94.3261 96.0096 104.64 97.2165 111.333 95.5735C111.668 95.4924 112.013 95.3302 112.043 94.9448L108.707 77.2479C108.869 76.9132 113.99 75.4832 114.903 75.108C116.607 74.3981 118.716 73.171 120.227 72.1061C120.836 71.67 123.615 69.1955 123.889 69.1448C124.183 69.084 124.497 69.4186 124.72 69.5809C126.282 70.7776 128.696 73.3839 130.217 74.8849C131.606 76.254 132.935 77.7245 134.385 79.0429C134.537 79.195 134.598 79.3674 134.547 79.5804C134.456 79.9252 131.596 82.491 131.059 82.9271C129.507 84.1948 127.256 85.858 125.542 86.8721C124.71 87.3589 119.974 89.732 119.345 89.7422C119.142 89.7422 118.767 89.6306 118.666 89.4177L115.958 82.3288C115.856 82.0144 115.704 81.4971 115.907 81.2132C116.039 81.0306 119.548 79.7122 120.156 79.408C120.907 79.0226 123.229 77.2681 123.838 77.4608C124.243 77.5927 125.217 79.2559 125.004 79.7122C124.781 80.2092 121.363 81.9434 121.333 82.2679C121.323 82.3997 122.357 84.5396 122.469 84.6106C122.621 84.7019 122.895 84.6512 123.077 84.6207C124.01 84.499 128.868 81.2335 129.679 80.4729C129.963 80.2092 130.339 79.7122 130.115 79.337L124.649 72.9479C124.527 72.8566 124.193 72.7653 124.041 72.7856C123.645 72.8262 120.593 75.2906 119.883 75.7368C118.301 76.7306 116.242 77.8158 114.518 78.5155C113.788 78.8096 111.81 78.8604 111.861 79.9354C113.027 84.1441 114.112 88.3629 115.37 92.5412C115.461 92.8455 115.4 93.2106 115.512 93.5452C115.907 94.7318 116.911 94.1537 117.773 93.9002C124.842 91.7908 134.436 85.4625 139.212 79.8339C139.547 79.4384 140.429 78.6372 140.145 78.2012L126.241 66.7108L126.312 66.2849C129.933 61.7314 131.779 56.3158 132.489 50.5859L147.315 51.6811C147.751 51.9955 147.133 53.5979 147.062 54.0847C146.869 55.5248 146.768 56.9344 146.423 58.3745C146.078 59.8451 142.813 69.4491 141.819 69.6924L134.588 65.6663C134.486 65.5851 134.415 65.3722 134.426 65.2403C134.466 64.7434 136.038 61.6908 136.363 60.8186C136.789 59.6929 137.336 58.3644 137.377 57.188L140.044 57.8776C140.196 59.0236 138.411 61.6198 138.807 62.4818C138.989 62.8875 141.028 63.6988 141.454 63.638C142.072 63.5366 142.579 61.9443 142.782 61.3561C143.218 60.0986 144.111 56.7925 144.202 55.5552C144.314 53.963 142.437 54.4802 141.484 54.3382C140.663 54.2165 139.861 54.0745 139.03 53.9528C138.117 53.821 135.561 52.9488 134.781 53.4356C134.568 53.5675 134.588 54.6323 134.507 54.967C134.03 57.0663 133.117 59.8958 132.164 61.9038C131.718 62.8469 129.416 66.0415 129.862 66.8123L142.417 75.1587C143.188 75.1993 143.685 73.6476 144.05 73.0594C148.319 66.1429 150.409 58.5976 151.037 50.454C151.078 49.9875 151.118 47.7462 150.956 47.513H150.936ZM122.773 33.1425C122.935 33.3859 123.229 33.5177 123.361 33.7408C123.574 34.0856 123.493 34.6536 123.574 34.7448C123.655 34.8463 123.949 34.8158 124.091 34.8564C123.574 35.6779 124.243 35.9618 124.609 36.6717C125.237 37.9293 126.586 41.0224 126.708 42.3205C126.728 42.5741 126.556 42.8885 126.647 43.0609C126.738 43.2536 127.032 43.355 127.154 43.5578C127.438 43.9939 127.337 44.9066 127.418 45.4847C127.489 45.9208 127.874 46.7118 127.752 47.1276C127.712 47.2696 126.201 48.0505 125.988 48.0911C124.619 48.3446 125.197 47.6347 124.943 46.7625C124.852 46.4481 124.558 46.225 124.527 46.012C124.467 45.6165 124.832 45.3224 124.73 44.9878C124.659 44.7444 124.213 44.1054 124.041 43.7404C123.523 42.5842 123.037 41.347 122.641 40.0489C122.205 38.6392 121.668 37.0875 121.12 35.7387C120.988 35.404 120.369 34.4913 120.126 34.1161C120.055 34.0045 119.842 34.0147 119.842 33.9944C119.71 33.68 120.217 33.4873 120.38 33.2743C120.714 32.8484 121.018 32.4934 121.323 32.0878C121.444 31.9255 121.302 31.7937 121.678 31.8748C122.448 32.0269 122.408 32.6456 122.753 33.1628L122.773 33.1425ZM97.835 68.871C95.6242 68.3639 91.882 66.6399 89.9957 65.1288C88.4541 63.9016 86.0608 62.137 87.4806 60.5854C90.1275 60.0276 93.3728 65.0476 96.3747 65.3113C97.2063 65.646 98.5855 65.504 98.8289 66.7311C98.8897 67.0658 98.7985 67.4208 98.8999 67.7453C99.0013 68.0698 100.015 69.1752 100.056 68.4248C100.076 68.0394 99.6909 66.2646 100.198 66.3457C101.111 66.4877 102.946 66.9542 103.727 66.9035C104.853 66.8325 107.256 66.3965 108.443 66.1429C110.451 65.7068 115.289 62.9788 116.739 61.3967C117.53 60.5347 118.656 57.1981 120.227 58.8816C120.491 57.9182 119.781 58.2427 119.751 58.192C119.589 57.8472 120.258 57.4212 119.041 57.6951C118.99 57.1677 119.507 57.3198 119.68 57.046C120.806 55.2408 121.252 51.3566 121.049 49.1965C121.008 48.7503 120.765 48.2026 120.765 47.8071C120.765 47.4217 120.988 47.1479 120.978 46.9146C120.978 46.6611 120.288 45.5557 120.146 45.0993C119.923 44.43 119.923 43.5172 119.599 42.858C119.355 42.3408 117.976 40.5052 117.55 40.0387C117.185 39.6432 115.278 38.1625 115.248 37.9597C115.197 37.6656 115.299 37.5743 115.491 37.4121C116.009 37.0064 117.073 36.8239 117.672 36.3269C118.818 35.3838 118.645 34.2479 119.822 36.5906C120.958 38.8522 122.357 42.4828 123.027 44.9168C123.189 45.505 123.148 46.225 123.341 46.8031C123.473 47.2087 123.838 47.4927 123.889 47.9795C123.949 48.6387 123.584 49.0038 123.594 49.45C123.625 50.7988 124.304 52.5635 124.132 54.1861C123.878 56.5288 122.195 60.3116 120.522 61.9139C119.7 62.705 119.791 62.1776 119.213 63.3236C118.95 63.8509 115.816 66.3762 115.167 66.8021C114.832 67.0252 114.467 67.0049 114.153 67.2179C113.544 67.6337 113.94 68.2321 113.199 67.3802C113.149 68.516 111.83 68.1712 111.06 68.4045C109.275 68.9318 108.544 69.8344 106.323 70.0474C105.188 70.159 102.52 70.5748 101.618 70.3719C101.243 70.2908 101.09 69.4288 100.685 69.3882C100.117 69.3172 99.3157 69.8141 99.2143 68.9724L98.6869 69.4896C98.8695 68.7493 98.261 68.9623 97.835 68.871ZM104.62 44.3793C103.413 43.4158 103.697 42.4321 102.135 41.6816L100.026 40.8703C98.7985 40.5661 98.5652 36.6312 100.411 36.8543C101.729 37.0064 103.93 37.8684 104.589 38.5175C104.975 38.8927 105.289 39.5925 105.786 39.8866C105.989 40.0083 106.202 39.8866 106.415 40.0691C107.551 41.1036 108.22 42.9595 108.92 44.2271C109.224 44.7748 110.826 45.6977 111.364 46.4583C112.946 48.7198 112.368 51.0422 111.79 53.4458C111.668 53.963 111.911 54.7135 111.161 54.6019C110.948 54.5715 109.356 53.4965 109.224 53.2936C109.092 53.0908 109.123 52.7663 108.97 52.5127C108.636 51.9651 107.835 51.5392 107.469 50.8597C106.932 49.8557 106.962 48.9937 107.135 47.9085C107.185 47.5738 107.429 47.2696 107.439 46.9654C107.48 46.0019 105.269 44.8863 104.64 44.3894L104.62 44.3793ZM106.445 52.9083C106.973 53.4052 110.431 55.8899 110.492 56.2752C110.563 56.7316 109.366 58.2123 109.011 58.5064C108.555 58.8613 108.098 58.8106 107.804 58.9932C107.155 59.3887 107.419 59.9972 106.141 60.2203C102.723 60.8288 99.8025 59.5814 96.8817 57.7762C95.3199 56.8432 94.9751 55.8087 96.5876 54.967C98.91 53.75 100.512 55.2002 102.977 55.3828C104.772 55.5146 105.877 54.6425 106.465 52.9184L106.445 52.9083ZM96.2834 43.497C95.2287 44.9168 94.7824 46.7118 94.9041 48.4764C95.036 50.5453 96.7093 52.959 95.7662 53.75C92.9874 56.0724 91.7704 51.1436 91.9124 47.1885C92.0747 42.7059 96.4152 36.6312 97.6119 40.3125C97.9263 41.3977 96.8919 42.6958 96.2935 43.5071L96.2834 43.497ZM94.5695 58.1616C95.2997 58.6889 97.9263 60.342 98.6768 60.8491C98.8999 61.0012 99.1636 61.2446 99.5794 61.7719C99.8938 62.2486 100.117 62.6441 100.279 62.9889C100.289 62.3094 100.228 61.63 100.157 60.9403C100.553 60.9606 100.806 61.3561 101.161 61.4373C102.378 61.7111 104.326 61.9139 105.543 61.6807C106.425 61.5083 107.358 60.991 108.311 61.0113C108.91 60.6767 110.796 57.908 111.161 57.9283C111.293 57.9283 111.546 58.1818 111.617 58.121C111.82 57.9689 110.938 57.046 111.678 56.9446C112.195 56.8635 112.885 57.6342 113.473 57.8066C114.305 58.05 115.116 57.6646 115.958 58.2123C116.09 58.334 115.136 59.7741 114.984 59.9363C112.814 62.2892 107.003 65.0578 103.768 64.7028C103.322 64.6521 103.078 64.2566 102.896 64.2363C102.754 64.2262 102.378 64.5406 102.034 64.5406C101.658 64.5406 101.07 64.2667 100.563 64.1755C100.157 65.9705 93.1091 61.6401 90.8881 59.6321C90.4723 59.2568 90.4824 58.6078 90.9185 58.2528C92.2775 57.1271 93.0584 57.046 94.5796 58.1616H94.5695ZM115.806 56.9953C115.481 56.9344 113.26 56.2651 113.179 56.1434C113.098 56.0217 113.26 55.687 113.23 55.5755C113.199 55.4842 112.702 55.8797 112.662 55.5856C114.001 53.2632 113.909 50.88 113.311 48.2736C113.189 47.7564 113.047 46.9654 112.834 46.509C112.287 45.3224 110.816 44.43 110.157 43.4868C109.761 42.9088 109.538 42.0467 109.173 41.4281C108.899 40.9717 106.993 38.2639 106.689 37.98C104.376 35.901 103.565 35.9213 102.733 35.6373C101.74 35.2925 100.563 35.1606 100.046 34.2885C99.8836 34.0147 99.7518 33.4873 99.7518 32.9802C99.7518 31.7632 100.695 31.7937 100.938 31.814C102.906 31.9762 104.934 32.3717 106.952 33.2135C110.187 34.5522 111.374 37.6453 114.021 39.8562C114.447 40.2213 114.934 39.8156 115.603 40.3531C116.262 40.8805 116.232 41.6816 116.485 41.9656C116.972 42.5132 117.317 42.4929 117.712 43.4767C119.355 47.6043 119.599 51.1538 118.037 55.2814C117.935 55.5552 117.956 55.9 117.844 56.1637C117.54 56.8635 116.485 57.1373 115.796 57.0054L115.806 56.9953ZM113.98 36.1241C113.838 36.2052 113.777 36.55 113.595 36.6109C113.24 36.7224 113.392 36.3472 113.301 36.2356C113.199 36.0937 112.733 35.972 112.469 35.7286C112.104 35.404 111.84 34.7651 111.475 34.3899C110.684 33.5887 109.386 32.7267 108.484 32.0066C108.372 31.9154 108.433 31.6821 108.26 31.5807C107.571 31.175 105.401 30.313 104.498 30.0798C102.48 29.5625 101.263 29.3901 100.441 29.3698C98.1291 29.2177 98.4334 26.4187 100.391 26.3477C102.48 26.4187 108.585 25.9116 112.946 30.9722C114.092 32.3007 114.345 32.0776 115.714 32.9397C116.323 33.325 116.83 34.0147 117.54 34.2378C116.901 34.7651 116.009 35.4243 115.268 35.7691C114.852 35.9618 114.153 36.0227 113.97 36.1342L113.98 36.1241ZM100.168 43.5274C101.466 43.6085 101.75 44.3996 102.602 45.1095C103.89 46.1743 105.269 46.7929 105.289 48.8415C105.289 49.7137 105.086 51.7927 104.599 52.4113C103.646 53.6283 101.709 53.6283 100.37 53.1517C99.5084 52.8474 99.336 52.959 98.5044 52.2592C96.689 50.738 96.4964 43.0913 100.157 43.5274H100.168ZM97.7235 35.5967C97.5004 35.7083 97.2671 35.8198 97.0339 35.9314C95.4315 36.7022 94.2449 38.0003 93.2612 39.4809C90.1782 44.1156 89.0322 49.9267 92.0645 54.8859C92.2876 55.2408 92.2369 55.6972 91.9327 55.9913C91.1619 56.7316 89.8232 57.4415 89.3162 56.8837C86.6591 53.9224 85.9086 48.8618 87.3589 43.426C88.6671 38.5682 91.4966 34.7854 95.5735 32.747C97.8046 31.7937 97.9872 32.5441 98.4131 34.0654C98.5855 34.684 98.3015 35.333 97.7336 35.617L97.7235 35.5967ZM96.5978 30.2826C96.182 30.668 88.0891 32.392 85.3509 42.5842C82.6228 52.7156 87.0952 57.2488 87.4501 57.6951C87.6935 57.9993 87.9572 58.3543 87.4299 58.9425C87.369 59.0134 86.2636 60.0884 86.1622 60.1493C85.7058 60.4738 85.3711 59.916 85.1683 59.4495C85.077 59.2467 83.5457 56.6505 83.0791 55.1698C81.8622 51.2451 81.9534 47.8578 82.2374 45.647C82.6735 42.2597 85.2799 35.1505 88.4237 31.8444C90.2391 29.9378 92.3485 28.2441 94.7622 27.2401C95.2895 27.0272 96.2935 26.7736 96.5369 27.4937C96.831 28.3658 97.2975 29.6335 96.5978 30.2724V30.2826ZM78.8704 41.7425C79.2862 39.8156 80.9292 35.5967 82.4504 33.0309C87.9369 23.214 98.9607 18.0824 109.772 24.0456C110.096 24.4512 110.603 24.8062 111.151 25.1611C111.911 25.6581 114.193 27.0474 114.923 27.3213C115.522 27.5444 116.85 27.5241 117.408 27.8081C117.682 27.95 117.581 28.4165 117.753 28.4571C118.037 28.5281 118.311 28.2948 118.777 28.4774C119.132 28.6194 121.556 30.5361 121.536 30.739C121.231 31.2562 120.491 31.1142 120.207 31.2866C119.913 31.459 119.193 32.9092 118.99 33.0106C118.564 33.2439 117.946 32.4833 117.591 32.321C115.887 31.5097 115.37 31.4894 113.97 30.0595C112.713 28.7715 110.37 26.3882 108.737 25.871C106.648 25.4248 103.717 24.7555 101.334 24.5324C99.3055 24.3397 95.3808 24.4107 91.5879 26.7939C87.0749 29.6234 82.2476 37.6453 81.4362 42.6856C81.2233 44.0446 80.4221 43.9432 79.5905 43.4868C78.9718 43.1521 78.7284 42.4422 78.8704 41.7526V41.7425ZM78.5662 45.9411C79.053 45.1095 80.3207 45.434 80.3612 46.3974C80.5641 51.4682 81.2435 56.975 84.0325 60.555C84.4584 61.1127 84.6612 61.8734 84.357 62.5021C80.777 69.8851 76.1119 50.1396 78.5662 45.9309V45.9411ZM127.783 52.7866C127.661 53.7703 127.671 55.2002 127.519 56.0927C126.901 59.6625 124.243 62.8368 122.428 65.788C121.455 65.433 121.84 66.0719 121.526 66.4979C121.14 67.0252 119.132 68.3335 118.808 68.8811C118.382 69.591 118.443 70.6457 117.54 71.2847C117.063 71.6295 115.055 72.1467 114.498 72.0047C114.345 71.9641 114.061 71.7005 114.041 71.7309C113.97 71.8323 114.051 72.238 113.777 72.4002C113.706 72.4408 112.469 72.8465 112.307 72.8769C110.999 73.1608 111.06 72.7856 109.843 73.5665C106.1 75.97 99.2751 74.4792 95.2287 73.3941C92.5006 72.6639 88.7178 70.6457 86.2636 68.8203C83.6471 67.0252 83.211 66.1328 84.6917 64.358C85.1379 63.8205 85.9695 63.78 86.4664 64.2769C87.6124 65.4127 88.373 66.3965 90.0159 67.4005C92.815 69.3273 97.3787 71.5585 100.644 71.9641C101.354 72.0554 102.216 71.7714 102.825 71.812C103.129 71.8323 103.362 72.0453 103.646 72.0656C104.599 72.1061 106.871 71.2238 107.966 70.9703C111.08 70.2299 113.808 70.0271 116.13 67.4613C116.374 67.1976 116.931 67.0962 117.246 66.721C117.652 66.2443 117.428 65.7068 118.432 66.2038C118.25 64.8144 119.781 64.6318 120.39 64.0132C122.144 62.2283 124.396 59.2771 124.974 56.691C125.116 56.0623 125.075 55.3727 125.227 54.7642C125.329 54.3686 125.704 53.9021 125.734 53.6385C125.744 53.5168 125.43 53.5269 125.389 53.3342C125.136 52.2592 125.694 51.1842 125.643 50.6467C125.623 50.4439 125.329 50.2208 125.389 49.9977C125.471 49.7036 127.651 48.7908 127.681 48.0302C128.29 48.3649 127.783 48.8212 127.763 49.2979C127.702 50.5453 127.955 51.2958 127.763 52.7866H127.783Z" fill="white"/>
<path d="M100.847 51.5291C101.76 52.1375 103.24 51.3668 103.585 50.3222C103.768 49.7543 103.798 48.4055 103.474 47.8984C103.403 47.7868 101.821 46.4583 101.679 46.4076C99.4171 45.6064 99.8025 47.2088 99.5794 48.6691C99.4982 49.1762 99.5794 49.6934 99.8228 50.1498C100.157 50.738 100.614 51.3972 100.847 51.5493V51.5291Z" fill="white"/>
<path d="M60.3115 153.096V157.406C60.3115 157.67 60.1492 157.832 59.8855 157.832H44.7443C44.4806 157.832 44.3082 157.67 44.3082 157.406L44.5415 146.504L44.3082 135.075C44.3082 134.811 44.4705 134.649 44.7443 134.649H51.3667C51.6304 134.649 51.7926 134.781 51.7926 135.075L51.6608 146.372L51.7622 152.67H59.8754C60.1391 152.67 60.3013 152.832 60.3013 153.096H60.3115Z" fill="white"/>
<path d="M73.1709 141.2C73.1709 140.906 73.3332 140.774 73.5968 140.774H79.8237C80.0874 140.774 80.2497 140.936 80.2497 141.2L80.0874 149.384L80.1888 157.406C80.1888 157.7 80.0266 157.832 79.7629 157.832H73.9011C73.6374 157.832 73.5056 157.67 73.5056 157.406L73.5766 155.844C72.319 157.67 70.3313 158.228 68.2726 158.228C64.2362 158.228 62.0761 155.642 62.0761 151.605V147.995L61.9747 141.2C61.9747 140.906 62.1369 140.774 62.4108 140.774H68.6376C68.9013 140.774 69.0737 140.906 69.0737 141.2L68.9723 147.995V151.413C68.9723 152.609 69.5402 153.238 70.4935 153.238C71.7815 153.238 73.2419 152.112 73.2723 147.934L73.1709 141.21V141.2Z" fill="white"/>
<path d="M109.782 157.406C109.782 157.67 109.619 157.832 109.356 157.832H103.098C102.835 157.832 102.662 157.67 102.662 157.406L102.794 150.611V147.467C102.794 146.007 102.368 145.378 101.699 145.378C100.543 145.378 99.7822 146.798 99.6402 149.617V150.611L99.7416 157.406C99.7416 157.7 99.5793 157.832 99.3157 157.832H93.0888C92.8251 157.832 92.6628 157.7 92.6628 157.406L92.7643 150.611V147.467C92.7643 146.007 92.3383 145.378 91.669 145.378C90.381 145.378 89.6103 147.102 89.5798 150.642L89.6812 157.396C89.6812 157.69 89.519 157.822 89.2553 157.822H83.0284C82.7647 157.822 82.6025 157.66 82.6025 157.396L82.7647 149.212L82.6633 141.19C82.6633 140.896 82.8256 140.764 83.0893 140.764H88.9511C89.2147 140.764 89.3466 140.926 89.3466 141.19L89.2857 142.752C90.4114 140.967 92.4702 140.368 94.4579 140.368C96.6485 140.368 98.0987 141.129 98.9303 142.589C99.8937 141.028 101.709 140.368 103.798 140.368C107.642 140.368 109.66 143.015 109.66 146.666V150.611L109.792 157.406H109.782Z" fill="white"/>
<path d="M131.251 149.252C131.251 154.191 128.138 158.167 123.361 158.167C121.475 158.167 119.984 157.538 118.889 156.341L118.99 157.366C119.021 157.629 118.828 157.832 118.564 157.832H112.398C112.135 157.832 111.962 157.67 111.962 157.406L112.165 147.133L111.962 135.075C111.962 134.781 112.124 134.649 112.398 134.649H118.656C118.919 134.649 119.081 134.781 119.081 135.075L118.98 142.366C120.136 141.139 121.759 140.45 123.787 140.45C128.594 140.45 131.241 144.293 131.241 149.263L131.251 149.252ZM124.162 149.222C124.162 146.078 123.168 144.912 121.515 144.912C119.862 144.912 118.828 146.068 118.797 149.222C118.767 152.335 119.629 153.725 121.384 153.725C123.138 153.725 124.162 152.335 124.162 149.222Z" fill="white"/>
<path d="M144.638 152.437C144.739 152.204 144.902 152.072 145.135 152.072H150.936C151.23 152.072 151.362 152.234 151.301 152.538C150.642 155.327 147.721 158.339 142.62 158.339C136.92 158.339 133.239 154.759 133.239 149.364C133.239 143.969 137.012 140.287 142.316 140.287C148.248 140.287 151.524 143.634 151.656 150.358C151.656 150.622 151.494 150.784 151.23 150.784H140.135C140.368 153.268 141.261 153.796 142.549 153.796C143.543 153.796 144.273 153.37 144.638 152.437ZM140.226 147.062H144.597C144.597 145.601 143.837 144.608 142.539 144.608C141.443 144.608 140.581 145.074 140.216 147.062H140.226Z" fill="white"/>
<path d="M160.702 157.406C160.702 157.7 160.54 157.832 160.276 157.832H154.151C153.887 157.832 153.715 157.67 153.715 157.406L153.978 149.455L153.715 141.21C153.715 140.947 153.877 140.784 154.151 140.784H160.215C160.479 140.784 160.611 140.947 160.611 141.21L160.509 143.401C161.868 141.575 163.724 140.683 165.915 140.683C166.047 140.683 166.209 140.713 166.341 140.713C166.605 140.744 166.736 140.916 166.736 141.18V145.389C166.736 145.652 166.635 145.855 166.473 145.814H166.209C162.629 145.814 160.449 147.934 160.672 151.909L160.702 157.406Z" fill="white"/>
</g>
<defs>
<clipPath id="clip0_724_705">
<rect width="210" height="158.329" fill="white"/>
</clipPath>
</defs>
</svg>
