<?xml version="1.0" encoding="UTF-8"?>
<svg id="Capa_1" xmlns="http://www.w3.org/2000/svg" version="1.1" viewBox="0 0 200 200">
  <!-- Generator: Adobe Illustrator 29.1.0, SVG Export Plug-In . SVG Version: 2.1.0 Build 142)  -->
  <defs>
    <style>
      .st0 {
        fill: #2b2b2b;
      }
    </style>
  </defs>
  <path class="st0" d="M199.6,90.1C194.1,35.2,145.1-5,90.2.5,35.2,6-5,55,.5,109.9c5.5,54.9,54.5,95.1,109.4,89.6,54.9-5.5,95.1-54.5,89.6-109.4h0ZM147.8,136.8l-4.7,5.8c-6.8,8.4-12.6,8.9-21.5,6.8-34.1-8.9-59.3-33.1-70.3-67.2-3.7-13.1,1.6-24.1,12.6-31,5.8-3.7,9.5-1.1,11.5,4.7l5.3,13.7s3.7,7.3-5.8,14.7c-1.1.7-1.4,1.9-1.1,3.7,2.1,6.3,10.5,25.2,37.3,39.9,2.6,1.6,3.1,1.6,5.8-.5,2.1-2.1,4.7-4.7,6.8-6.8,4.7-4.2,7.3-5.8,11.5-2.6,3.1,2.1,6.3,4.7,9.5,6.8,3.1,2.6,8.4,5.8,3.1,12.1h0Z"/>
</svg>