<svg width="480" height="40" viewBox="0 0 480 40" fill="none" xmlns="http://www.w3.org/2000/svg">
<g opacity="0.2" clip-path="url(#clip0_484_2067)">
<path d="M271.903 14.6706L286.626 -0.0858765L257.187 -0.0858765L271.903 14.6706Z" fill="#295E4D"/>
<path d="M317.223 14.6706L331.939 -0.0858765L302.5 -0.0858765L317.223 14.6706Z" fill="#295E4D"/>
<path d="M226.589 14.6706L241.312 -0.0858765L211.866 -0.0858765L226.589 14.6706Z" fill="#295E4D"/>
<path d="M362.537 14.6706L377.26 -0.0858765L347.821 -0.0858765L362.537 14.6706Z" fill="#295E4D"/>
<path d="M135.948 14.6706L150.671 -0.0858765L121.232 -0.0858765L135.948 14.6706Z" fill="#295E4D"/>
<path d="M45.3204 14.6706L60.0433 -0.0858765L30.5974 -0.0858765L45.3204 14.6706Z" fill="#295E4D"/>
<path d="M181.269 14.6706L195.991 -0.0858765L166.552 -0.0858765L181.269 14.6706Z" fill="#295E4D"/>
<path d="M90.6342 14.6706L105.357 -0.0858765L75.918 -0.0858765L90.6342 14.6706Z" fill="#295E4D"/>
<path d="M385.201 39.8382C387.519 39.8382 389.399 37.9587 389.399 35.6402C389.399 33.3217 387.519 31.4423 385.201 31.4423C382.882 31.4423 381.003 33.3217 381.003 35.6402C381.003 37.9587 382.882 39.8382 385.201 39.8382Z" fill="#295E4D"/>
<path d="M339.9 39.8382C342.219 39.8382 344.098 37.9587 344.098 35.6402C344.098 33.3217 342.219 31.4423 339.9 31.4423C337.582 31.4423 335.702 33.3217 335.702 35.6402C335.702 37.9587 337.582 39.8382 339.9 39.8382Z" fill="#295E4D"/>
<path d="M294.6 39.8382C296.918 39.8382 298.798 37.9587 298.798 35.6402C298.798 33.3217 296.918 31.4423 294.6 31.4423C292.281 31.4423 290.402 33.3217 290.402 35.6402C290.402 37.9587 292.281 39.8382 294.6 39.8382Z" fill="#295E4D"/>
<path d="M249.299 39.8382C251.618 39.8382 253.497 37.9587 253.497 35.6402C253.497 33.3217 251.618 31.4423 249.299 31.4423C246.981 31.4423 245.101 33.3217 245.101 35.6402C245.101 37.9587 246.981 39.8382 249.299 39.8382Z" fill="#295E4D"/>
<path d="M203.999 39.8382C206.317 39.8382 208.197 37.9587 208.197 35.6402C208.197 33.3217 206.317 31.4423 203.999 31.4423C201.681 31.4423 199.801 33.3217 199.801 35.6402C199.801 37.9587 201.681 39.8382 203.999 39.8382Z" fill="#295E4D"/>
<path d="M158.692 39.8382C161.011 39.8382 162.89 37.9587 162.89 35.6402C162.89 33.3217 161.011 31.4423 158.692 31.4423C156.374 31.4423 154.494 33.3217 154.494 35.6402C154.494 37.9587 156.374 39.8382 158.692 39.8382Z" fill="#295E4D"/>
<path d="M113.392 39.8382C115.71 39.8382 117.59 37.9587 117.59 35.6402C117.59 33.3217 115.71 31.4423 113.392 31.4423C111.073 31.4423 109.194 33.3217 109.194 35.6402C109.194 37.9587 111.073 39.8382 113.392 39.8382Z" fill="#295E4D"/>
<path d="M68.0913 39.8382C70.4097 39.8382 72.2892 37.9587 72.2892 35.6402C72.2892 33.3217 70.4097 31.4423 68.0913 31.4423C65.7728 31.4423 63.8933 33.3217 63.8933 35.6402C63.8933 37.9587 65.7728 39.8382 68.0913 39.8382Z" fill="#295E4D"/>
<path d="M22.7907 39.8382C25.1092 39.8382 26.9887 37.9587 26.9887 35.6402C26.9887 33.3217 25.1092 31.4423 22.7907 31.4423C20.4723 31.4423 18.5928 33.3217 18.5928 35.6402C18.5928 37.9587 20.4723 39.8382 22.7907 39.8382Z" fill="#295E4D"/>
<path d="M0 -0.0858765L0 14.6706L14.723 -0.0858765L0 -0.0858765Z" fill="#295E4D"/>
<path d="M407.851 -0.0858765L393.135 -0.0858765L407.851 14.6706V-0.0858765Z" fill="#295E4D"/>
<path d="M407.851 22.6313L385.201 -0.0858765L362.537 22.6313L339.88 -0.0858765L317.223 22.6313L294.566 -0.0858765L271.903 22.6313L249.253 -0.0858765L226.589 22.6313L203.932 -0.0858765L181.268 22.6313L158.612 -0.0858765L135.948 22.6313L113.291 -0.0858765L90.6342 22.6313L67.9774 -0.0858765L45.3205 22.6313L22.6636 -0.0858765L0 22.6313L0 28.1817L22.6636 5.46453L45.3205 28.1817L67.9774 5.46453L90.6342 28.1817L113.291 5.46453L135.948 28.1817L158.612 5.46453L181.268 28.1817L203.932 5.46453L226.589 28.1817L249.253 5.46453L271.903 28.1817L294.566 5.46453L317.223 28.1817L339.88 5.46453L362.537 28.1817L385.201 5.46453L407.851 28.1817V22.6313Z" fill="#295E4D"/>
<path d="M407.851 34.5356L385.201 11.8118L362.537 34.5356L339.88 11.8118L317.223 34.5356L294.566 11.8118L271.903 34.5356L249.253 11.8118L226.589 34.5356L203.932 11.8118L181.268 34.5356L158.612 11.8118L135.948 34.5356L113.291 11.8118L90.6342 34.5356L67.9774 11.8118L45.3205 34.5356L22.6636 11.8118L0 34.5356L0 40.086L22.6636 17.3622L45.3205 40.086L67.9774 17.3622L90.6342 40.086L113.291 17.3622L135.948 40.086L158.612 17.3622L181.268 40.086L203.932 17.3622L226.589 40.086L249.253 17.3622L271.903 40.086L294.566 17.3622L317.223 40.086L339.88 17.3622L362.537 40.086L385.201 17.3622L407.851 40.086V34.5356Z" fill="#295E4D"/>
<path d="M453.171 14.6706L467.894 -0.0858765L438.455 -0.0858765L453.171 14.6706Z" fill="#295E4D"/>
<path d="M475.949 39.8382C478.267 39.8382 480.147 37.9587 480.147 35.6402C480.147 33.3217 478.267 31.4423 475.949 31.4423C473.63 31.4423 471.751 33.3217 471.751 35.6402C471.751 37.9587 473.63 39.8382 475.949 39.8382Z" fill="#295E4D"/>
<path d="M430.642 39.8382C432.96 39.8382 434.839 37.9587 434.839 35.6402C434.839 33.3217 432.96 31.4423 430.642 31.4423C428.323 31.4423 426.444 33.3217 426.444 35.6402C426.444 37.9587 428.323 39.8382 430.642 39.8382Z" fill="#295E4D"/>
<path d="M407.851 -0.0858765V14.6706L422.574 -0.0858765L407.851 -0.0858765Z" fill="#295E4D"/>
<path d="M815.708 22.6313L793.051 -0.0858765L770.395 22.6313L747.738 -0.0858765L725.074 22.6313L702.417 -0.0858765L679.754 22.6313L657.103 -0.0858765L634.44 22.6313L611.783 -0.0858765L589.119 22.6313L566.462 -0.0858765L543.806 22.6313L521.149 -0.0858765L498.492 22.6313L475.835 -0.0858765L453.171 22.6313L430.514 -0.0858765L407.851 22.6313V28.1817L430.514 5.46453L453.171 28.1817L475.835 5.46453L498.492 28.1817L521.149 5.46453L543.806 28.1817L566.462 5.46453L589.119 28.1817L611.783 5.46453L634.44 28.1817L657.103 5.46453L679.754 28.1817L702.417 5.46453L725.074 28.1817L747.738 5.46453L770.395 28.1817L793.051 5.46453L815.708 28.1817V22.6313Z" fill="#295E4D"/>
<path d="M815.709 34.5356L793.052 11.8118L770.395 34.5356L747.738 11.8118L725.074 34.5356L702.417 11.8118L679.754 34.5356L657.104 11.8118L634.44 34.5356L611.783 11.8118L589.12 34.5356L566.463 11.8118L543.806 34.5356L521.149 11.8118L498.492 34.5356L475.835 11.8118L453.172 34.5356L430.515 11.8118L407.851 34.5356V40.086L430.515 17.3622L453.172 40.086L475.835 17.3622L498.492 40.086L521.149 17.3622L543.806 40.086L566.463 17.3622L589.12 40.086L611.783 17.3622L634.44 40.086L657.104 17.3622L679.754 40.086L702.417 17.3622L725.074 40.086L747.738 17.3622L770.395 40.086L793.052 17.3622L815.709 40.086V34.5356Z" fill="#295E4D"/>
</g>
<defs>
<clipPath id="clip0_484_2067">
<rect width="480" height="40" fill="white"/>
</clipPath>
</defs>
</svg>
