<?xml version="1.0" encoding="UTF-8"?>
<svg id="a" data-name="Capa 1" xmlns="http://www.w3.org/2000/svg" viewBox="0 0 363.16 260.53">
  <defs>
    <style>
      .b {
        fill: #295e4d;
      }

      .c {
        fill: #672d10;
      }
    </style>
  </defs>
  <g>
    <path class="b" d="M53.26,186.5c0,.35-.22.57-.57.57h-8.63c-.35,0-.57-.22-.57-.57l.3-14.39-.3-15c0-.35.22-.57.57-.57h8.63c.35,0,.57.22.57.57l-.31,15,.31,14.39Z"/>
    <path class="b" d="M80.78,186.5c0,.39-.22.57-.57.57h-8.2c-.35,0-.57-.17-.57-.57l.13-8.94v-4.14c0-1.92-.83-2.75-2.09-2.75-2.27,0-3.53,2.7-3.58,6.98l.13,8.85c0,.39-.22.57-.57.57h-8.2c-.35,0-.57-.22-.57-.57l.22-10.77-.13-10.55c0-.39.22-.57.57-.57h7.72c.35,0,.52.22.52.57l-.09,2.05c1.53-2.36,4.27-3.14,6.98-3.14,5.32,0,8.15,3.49,8.15,8.29v5.19l.13,8.94Z"/>
    <path class="b" d="M83.53,175.91c0-7.24,4.8-11.95,12.04-11.95,6.5,0,10.6,3.45,11.21,8.55.04.39-.22.61-.57.61h-7.33c-.35,0-.52-.17-.61-.52-.31-1.92-1.18-2.57-2.44-2.57-1.92,0-2.92,1.44-2.92,5.8s1,5.89,2.88,5.89c1.31,0,2.4-.74,2.66-2.62.04-.39.22-.57.57-.57h7.5c.35,0,.61.17.57.48-.57,5.06-5.23,8.72-11.47,8.72-7.28,0-12.08-4.58-12.08-11.82Z"/>
    <path class="b" d="M125.66,165.22c-.04-.35.22-.61.57-.61h8.16c.35,0,.57.22.57.57l-.26,10.51.26,10.82c0,.35-.22.57-.57.57h-7.94c-.35,0-.57-.22-.57-.57l.09-1.83c-1.53,1.79-3.75,2.83-6.58,2.83-6.32,0-9.81-5.06-9.81-11.6s4.1-11.73,10.38-11.73c2.44,0,4.4.83,5.84,2.35l-.13-1.31ZM122.56,170.02c-2.31,0-3.66,1.83-3.66,5.93s1.31,5.67,3.49,5.67,3.53-1.53,3.58-5.67c.04-4.1-1.09-5.93-3.4-5.93Z"/>
    <path class="b" d="M163.21,186.5c0,.39-.22.57-.57.57h-8.85c-.35,0-.57-.17-.57-.57l.26-14.87-.13-8.33h-7.85c-.35,0-.57-.22-.57-.57v-5.63c0-.35.22-.57.57-.57h25.42c.35,0,.57.22.57.57v5.63c0,.35-.22.57-.57.57h-7.85l-.13,8.33.26,14.87Z"/>
    <path class="b" d="M179,186.5c0,.39-.22.57-.57.57h-8.07c-.35,0-.57-.22-.57-.57l.35-10.47-.35-10.86c0-.35.22-.57.57-.57h7.98c.35,0,.52.22.52.57l-.13,2.88c1.79-2.4,4.23-3.58,7.11-3.58.17,0,.39.04.57.04.35.04.52.26.52.61v5.54c0,.35-.13.61-.35.57h-.35c-4.71,0-7.59,2.79-7.28,8.02l.04,7.24Z"/>
    <path class="b" d="M188.25,175.91c0-7.24,4.62-11.95,12.43-11.95s12.34,4.54,12.34,11.78-4.49,11.99-12.34,11.99-12.43-4.58-12.43-11.82ZM203.69,175.91c0-4.45-1-5.97-3.05-5.97-2.18.09-3.1,1.61-3.1,6.06s1.05,5.71,3.14,5.71,3.01-1.22,3.01-5.8Z"/>
    <path class="b" d="M241.2,175.77c0,6.5-4.1,11.73-10.38,11.73-2.35,0-4.32-.79-5.71-2.22l.13,8.63c0,.39-.22.57-.57.57h-8.29c-.35,0-.57-.17-.57-.57l.26-15.22-.26-13.52c0-.35.22-.57.57-.57h7.94c.35,0,.57.22.57.57l-.09,1.83c1.53-1.79,3.75-2.83,6.58-2.83,6.32,0,9.81,5.06,9.81,11.6ZM231.87,175.73c0-4.14-1.31-5.67-3.49-5.67s-3.53,1.53-3.58,5.67c-.04,4.1,1.09,5.93,3.4,5.93s3.66-1.83,3.66-5.93Z"/>
    <path class="b" d="M253.41,157.11v5.63c0,.35-.22.57-.57.57h-8.16c-.35,0-.57-.22-.57-.57v-5.63c0-.35.22-.57.57-.57h8.16c.35,0,.57.22.57.57ZM253.41,186.5c0,.39-.22.57-.57.57h-8.11c-.35,0-.57-.17-.57-.57l.13-10.25-.13-11.08c0-.39.22-.57.57-.57h8.11c.35,0,.57.17.57.57l-.13,11.08.13,10.25Z"/>
    <path class="b" d="M256.38,175.91c0-7.24,4.8-11.95,12.04-11.95,6.5,0,10.6,3.45,11.21,8.55.04.39-.22.61-.57.61h-7.33c-.35,0-.52-.17-.61-.52-.3-1.92-1.18-2.57-2.44-2.57-1.92,0-2.92,1.44-2.92,5.8s1,5.89,2.88,5.89c1.31,0,2.4-.74,2.66-2.62.04-.39.22-.57.57-.57h7.5c.35,0,.61.17.57.48-.57,5.06-5.23,8.72-11.47,8.72-7.28,0-12.08-4.58-12.08-11.82Z"/>
    <path class="b" d="M298.51,165.22c-.04-.35.22-.61.57-.61h8.16c.35,0,.57.22.57.57l-.26,10.51.26,10.82c0,.35-.22.57-.57.57h-7.94c-.35,0-.57-.22-.57-.57l.09-1.83c-1.53,1.79-3.75,2.83-6.58,2.83-6.32,0-9.81-5.06-9.81-11.6s4.1-11.73,10.38-11.73c2.44,0,4.4.83,5.84,2.35l-.13-1.31ZM295.41,170.02c-2.31,0-3.66,1.83-3.66,5.93s1.31,5.67,3.49,5.67,3.53-1.53,3.58-5.67c.04-4.1-1.09-5.93-3.4-5.93Z"/>
    <path class="b" d="M319.93,186.5c0,.39-.22.57-.57.57h-7.85c-.35,0-.57-.17-.57-.57l.17-14.52-.17-14.87c0-.39.22-.57.57-.57h7.85c.35,0,.57.17.57.57l-.17,14.92.17,14.48Z"/>
  </g>
  <g>
    <path class="c" d="M178.85,88.45c1.19.79,3.11-.21,3.56-1.58.24-.74.28-2.49-.14-3.16-.09-.14-2.16-1.87-2.34-1.95-2.95-1.05-2.44,1.05-2.73,2.94-.1.66-.01,1.34.32,1.92.43.76,1.03,1.62,1.34,1.82Z"/>
    <path class="c" d="M244.02,83.23h-24.01c-.49-1.32-.12-2.71-.3-4.02-.59-4.4-2.11-8.93-4.13-12.87-.45-.88-2.97-4.38-2.46-4.98,2.21-.71,14.64-11.02,15.58-10.85.89.16,5.23,8.39,5.82,9.71,1.24,2.74,2.52,6.17,3.24,9.08.12.47.74,3.27.68,3.45-.12.37-.63.45-.96.54-2.15.58-5.58,1.18-7.84,1.53-.47.07-2.51.36-2.73.02-.13-.2-.81-3.98-1.05-4.74-.31-.99-2.47-5.79-2.16-6.28l3.17-1.26c.51,1.02,1.66,5.42,2.46,5.8.29.14,3.61-.83,3.72-1.49.18-1.07-2.71-7.16-3.43-8.41-.48-.84-.91-2.31-2.07-2.02l-9.04,5.28c-.31.19-.68.65-.71,1-.03.39,2.32,4.5,2.67,5.37,1.16,2.88,2.04,6.58,2.69,9.63.11.52-.15,1.46.12,1.85.61.88,7.33-.38,8.64-.5,1.46-.14,11.23-.72,11.59-1.22.62-.85-1-7-1.31-8.33-1.87-7.97-4.74-14.61-9.47-21.33-.74-1.06-2.57-3.74-3.4-4.49-.47-.42-.83-.56-1.38-.13-5.67,5.09-11.48,10.1-17.27,14.99-.83.08-3.34-2.94-4.16-3.64-2.86-2.43-7.09-5-10.54-6.46-1.22-.51-3.48-.89-4.42-1.43-.21-.12-.27-.26-.33-.49l4.71-18.24c.23-.33.61-.28.97-.24.62.07,3.33,1.02,4.13,1.3,3.09,1.08,6.94,2.87,9.78,4.51.9.52,7.13,4.68,7.13,5.14-1.21,1.12-6.01,8.16-7.03,8.46-1.04.3-3.66-2.09-4.77-2.77-.84-.52-5.22-2.61-5.4-2.86-.08-.11.93-2.32,1.04-2.52.17-.32.15-.38.56-.44,1.35-.22,4.6,2.68,5.61,2.45.62-.14,2.34-3.13,2.04-3.67-.08-.14-2.08-1.32-2.44-1.51-1.29-.69-5.57-2.85-6.76-3.09-.47-.1-1.63-.25-1.91.16-.12,1.46-3.92,10.82-3.56,11.33.1.14,2.76.91,3.37,1.2,3.51,1.64,7.14,3.93,10.18,6.33.84.66,1.4,2.09,2.7,1.48l13.52-14.09c.17-1.15-10.12-8.28-11.67-9.2-5.04-2.98-13.98-6.86-19.73-7.61-.7-.09-1.46-.03-2.16.01l-4.12,23.35c-6.09-.55-11.82-.34-17.67,1.43-.88.27-4.41,2.08-4.91,1.49l-8.07-16.94c.19-.5,3.31-1.85,4.02-2.13,4.32-1.74,9.84-3.05,14.46-3.52,1.05-.11,4.09-.48,4.89-.21.33.11.35.28.4.58.24,1.29-.07,3.49-.01,4.94.07,1.91.68,4.09-.03,5.99l-11.31,1.41c-.31-.53-1.14-2.54-.76-2.99.72-.87,5.38-1.04,5.72-1.5.35-.48.05-4.05-.67-4.25-.19-.05-3.39.43-3.85.52-2.25.46-4.63,1.51-6.91,1.96-.56.19-.49,1.03-.4,1.54.27,1.53,2.59,7.36,3.34,8.98.64,1.38.64,1.63,2.16,1.25,4.53-1.11,7.52-2.09,12.35-2.45,1.16-.09,3.18.23,4.14-.05,1.1-.32.58-3.01.67-4.01.28-3.39.52-6.72.74-10.1.1-1.57,1.55-6.01-.61-6.3-7.48-.98-19.33,1.49-26.38,4.2-1.43.55-8.93,3.72-9.21,4.86-.05.2-.02.38.09.55,1.19,2.47,11.93,18.87,11.73,20.06-.03.17-2.22,1.34-2.61,1.64-4.95,3.78-9.25,9.1-11.83,14.78l-.92.2-16.68-7.23c-.36-.29-.87-.64-.72-1.17,3.04-5.48,6.49-10.77,10.8-15.33.54-.57,3.4-3.46,3.87-3.54.77-.13,1.42,1.37,1.82,1.81,1.86,2.08,3.75,4.14,5.54,6.29.12.18.16.38.14.59-.02.23-2.81,2.51-3.34,3.1-1.34,1.49-2.58,3.16-3.64,4.86-.5.92-3.32-1.33-3.34-1.52-.11-.83,3.76-4.14,3.63-5.12-.04-.3-2.16-2.39-2.44-2.52-.39-.18-.59-.18-.97,0-.89.41-4.81,6.22-5.43,7.39-.47.88-1.42,1.92-.47,2.69,1.58.39,9.06,5.49,9.9,5.29.57-.14,2.89-4.06,3.52-4.87,1.76-2.29,4.29-4.76,6.46-6.66,1.01-.88,2.93-1.35,2.08-2.91-3.48-4.54-6.67-9.29-10.15-13.8-.61-.79-.74-2.31-2.31-1.51-.72.37-3.55,2.83-4.35,3.55-5.57,4.94-10.26,11.26-13.64,17.9-.91,1.78-2.77,5.33-3.24,7.11-.12.45-.21.87-.09,1.33l22.04,7.78c.53.73-.87,4.78-1.06,5.88-.63,3.67-.93,7.05-.56,10.77.21,2.13.82,4.25.99,6.39l-18.74,5.07c-1.34-5.03-1.78-10.23-2.23-15.41l.77-8.71c.62-.53,7.93.94,9.24,1.18.67.12,1.82-.23,2.19.52.36.72-.34,2.38-.38,3.32-.11,2.07,0,4.32,0,6.43,0,1.05.78,1.32-.71,1.73-.26.07-2.2.39-2.32.37-.14-.02-.39-.54-.41-.63-.19-1.22,0-3.33,0-4.68,0-1.51-3.3-1.65-4.28-1.32-.4.14-.59.93-.61,1.32-.07,2.36.32,5.11.67,7.42.18,1.18-.3,3.68,1.61,3.54,2.8-.79,5.64-1.29,8.46-1.91.41-.09,2.4-.21,2.51-.32.47-.49-.42-3.76-.48-4.55-.13-1.88.24-3.82-.25-5.66l1.13-8.26c-.14-.2-1.93-.73-2.36-.86-4.15-1.22-8.47-2.09-12.63-3.14-.79-.2-3.71-1.32-4.21-1.15-.5.17-1.44,4.1-1.58,4.85-1.24,6.89-.93,16.35.5,23.28.65,3.15,1.74,6.22,2.65,9.3l1.72-.11c6.62-1.9,13.63-5.92,20.15-7.7.27-.07.59-.14.86-.08.29.07,2.2,4.4,2.6,5.1,1.75,3.09,4.39,6.36,6.97,8.79.62.58,4.33,3.46,4.39,3.77l-10.69,15.63c-.08.07-.17.16-.29.19-.31.06-3.08-2.04-3.59-2.44-2.34-1.85-5.06-4.56-7.05-6.8-1.07-1.21-5.88-7.18-5.97-8.36-.03-.43.15-.3.31-.43.76-.66,2.48-1.34,3.43-1.92.23-.14.28-.38.52-.53.87-.52,4.44-2.63,5.1-2.79.18-.04.33-.16.5,0l6.88,8.85c-1.2.96-1.63,2.85-3.16,1.48-.54-.48-2.94-3.57-3.34-3.57-.72,0-2.06,1.1-2.6,1.62-.87.84-.9,1.05-.13,2.11.62.85,6.28,6.52,6.96,6.89.33.17.94.39,1.26.2,1.73-2.67,4.54-5.05,6.31-7.61,1.74-2.51-.03-2.47-1.73-4.26-3.3-3.49-6.16-7.19-8.33-11.51l-1.19-.17c-5.11,2.91-11.45,5.01-16.43,7.99-.69.41-1.16.54-.82,1.48.39,1.11,2.15,3.89,2.86,5.04,5.36,8.66,13.62,16.79,22.69,21.42l11.96-20.36c1.85.43,3.63,1.54,5.47,2.18,4.1,1.44,8.79,2.23,13.13,2.26,1.15,0,2.43-.17,3.57-.35.23,2.92.71,5.83.98,8.75.28,2.96.68,6.4.76,9.35.05,1.95-.76,1.73-2.59,1.87-4.59.33-12.14-.52-16.65-1.6-.93-.22-3.79-1.02-4.5-1.41-.25-.14-.46-.22-.42-.56.72-1.14,3.33-10.14,3.86-10.25.39-.08,4.8,1.24,5.7,1.43,1.03.22,5.16.36,5.45,1.21l-.22,3.04c-.88-.16-5.62-.98-6.04-.76-.98.52-1.32,4.04-.87,4.35.37.25,1.14.01,1.6.12,2.16.5,4.65.88,6.92.97.57.02,3.32.18,3.32-.37v-10.84c0-.18-.33-.73-.3-1.05-2.3-.64-5.1-.42-7.45-.81-2.66-.44-5.28-1.49-7.77-2.33-2.65-.9-2.65-1.43-3.99,1.19-2.05,4.01-4.59,9.78-6.21,14-.37.96-1.22,2.29-.15,3.04.64.44,4.18,1.64,5.17,1.98,8.48,2.87,21.9,4.43,30.62,2.29.43-.11.88-.31.93-.82l-4.34-23.03c.22-.43,6.87-2.29,8.06-2.79,2.22-.93,4.96-2.52,6.93-3.91.8-.56,4.4-3.78,4.76-3.86.38-.08.79.35,1.08.57,2.03,1.56,5.18,4.95,7.15,6.9,1.81,1.79,3.53,3.69,5.42,5.42.2.2.28.42.21.7-.12.45-3.84,3.79-4.54,4.36-2.03,1.65-4.95,3.82-7.18,5.14-1.08.64-7.24,3.72-8.06,3.73-.27,0-.75-.15-.89-.43l-3.53-9.22c-.13-.41-.33-1.09-.06-1.45.18-.24,4.74-1.95,5.53-2.35.98-.5,4-2.79,4.79-2.53.53.17,1.8,2.34,1.52,2.93-.3.64-4.74,2.91-4.77,3.33-.01.17,1.34,2.95,1.48,3.04.2.13.55.05.79.02,1.21-.16,7.53-4.4,8.59-5.4.37-.34.85-.99.57-1.48l-7.11-8.31c-.16-.12-.59-.24-.79-.21-.51.06-4.49,3.26-5.41,3.84-2.05,1.29-4.74,2.71-6.98,3.62-.96.39-3.53.45-3.45,1.85,1.52,5.47,2.93,10.96,4.57,16.4.12.4.04.87.18,1.3.51,1.55,1.82.8,2.95.46,9.2-2.74,21.68-10.98,27.89-18.31.43-.51,1.58-1.56,1.21-2.13l-18.09-14.95.09-.56c4.72-5.93,7.11-12.97,8.04-20.43l19.29,1.42c.56.41-.24,2.5-.32,3.13-.25,1.88-.39,3.7-.83,5.58-.45,1.91-4.7,14.41-5.98,14.72l-9.41-5.24c-.13-.11-.23-.38-.22-.55.05-.65,2.1-4.62,2.52-5.75.55-1.47,1.27-3.19,1.32-4.72l3.46.9c.2,1.49-2.12,4.87-1.61,5.99.24.53,2.89,1.58,3.44,1.5.81-.13,1.46-2.21,1.73-2.97.56-1.64,1.73-5.94,1.84-7.55.14-2.07-2.29-1.4-3.54-1.59-1.06-.16-2.11-.34-3.2-.5-1.19-.17-4.52-1.31-5.53-.68-.28.17-.25,1.56-.35,1.99-.63,2.73-1.81,6.41-3.04,9.03-.58,1.23-3.58,5.38-2.99,6.39l16.33,10.86c1,.06,1.65-1.96,2.12-2.73,5.56-9,8.28-18.82,9.09-29.41.05-.61.11-3.53-.1-3.83ZM207.38,64.53c.21.32.59.49.77.78.27.45.18,1.18.27,1.3.11.13.49.1.68.14-.67,1.07.2,1.43.67,2.36.82,1.64,2.58,5.66,2.73,7.34.03.33-.19.73-.08.97.12.24.5.38.67.64.37.57.23,1.76.35,2.51.09.56.6,1.6.44,2.14-.05.18-2.02,1.2-2.29,1.25-1.78.33-1.02-.59-1.35-1.73-.12-.4-.5-.7-.54-.98-.07-.52.4-.9.26-1.33-.1-.31-.68-1.14-.89-1.62-.67-1.51-1.3-3.12-1.82-4.81-.57-1.83-1.26-3.85-1.98-5.61-.18-.44-.98-1.63-1.29-2.11-.09-.14-.36-.13-.37-.15-.18-.41.48-.66.7-.93.44-.55.84-1.01,1.23-1.54.16-.21-.02-.38.46-.28,1,.2.96,1,1.4,1.67ZM174.94,111.02c-2.88-.66-7.74-2.91-10.2-4.87-2.01-1.6-5.11-3.9-3.27-5.91,3.44-.73,7.66,5.81,11.58,6.15,1.09.43,2.88.25,3.19,1.85.08.44-.04.89.09,1.32.13.42,1.45,1.86,1.5.89.03-.51-.47-2.81.18-2.71,1.19.19,3.57.79,4.59.72,1.47-.1,4.59-.66,6.14-.99,2.61-.57,8.9-4.12,10.8-6.18,1.03-1.12,2.49-5.46,4.54-3.27.34-1.26-.59-.83-.62-.89-.22-.45.66-1-.92-.65-.07-.69.61-.49.83-.84,1.47-2.35,2.04-7.4,1.79-10.22-.05-.58-.37-1.3-.38-1.81,0-.5.29-.86.28-1.16-.01-.33-.9-1.77-1.09-2.36-.28-.88-.29-2.06-.71-2.92-.32-.67-2.12-3.06-2.66-3.67-.47-.52-2.95-2.44-3-2.71-.06-.38.06-.5.32-.71.67-.53,2.06-.76,2.84-1.41,1.49-1.22,1.27-2.7,2.8.34,1.48,2.95,3.29,7.66,4.17,10.83.21.76.16,1.71.41,2.46.18.53.65.9.71,1.53.08.85-.39,1.34-.38,1.91.04,1.75.92,4.05.69,6.16-.32,3.05-2.53,7.97-4.69,10.06-1.07,1.03-.95.35-1.7,1.84-.34.68-4.42,3.97-5.27,4.53-.44.29-.92.26-1.32.54-.79.55-.28,1.32-1.23.22-.07,1.48-1.78,1.03-2.79,1.33-2.32.69-3.27,1.86-6.16,2.14-1.47.14-4.95.68-6.13.42-.48-.11-.69-1.22-1.22-1.28-.74-.09-1.78.55-1.91-.54l-.69.67c.23-.96-.56-.69-1.1-.81ZM183.76,79.15c-1.57-1.26-1.2-2.54-3.23-3.51l-2.75-1.06c-1.6-.39-1.91-5.51.5-5.23,1.71.2,4.57,1.32,5.44,2.16.51.49.91,1.4,1.55,1.78.27.16.54,0,.82.24,1.48,1.35,2.34,3.76,3.26,5.41.4.72,2.48,1.91,3.17,2.91,2.05,2.95,1.31,5.96.55,9.08-.16.68.16,1.65-.82,1.5-.28-.04-2.35-1.44-2.52-1.71-.17-.27-.13-.69-.33-1.01-.43-.71-1.47-1.27-1.95-2.15-.7-1.3-.66-2.43-.44-3.84.07-.43.38-.83.4-1.23.05-1.25-2.82-2.7-3.64-3.36ZM186.14,90.25c.69.64,5.18,3.88,5.26,4.38.09.59-1.46,2.52-1.93,2.9-.6.47-1.19.4-1.58.64-.85.52-.5,1.3-2.17,1.6-4.44.79-8.25-.83-12.05-3.18-2.03-1.22-2.48-2.56-.39-3.65,3.02-1.58,5.1.3,8.32.54,2.33.17,3.77-.96,4.54-3.21ZM172.92,78c-1.38,1.85-1.95,4.18-1.8,6.48.18,2.69,2.35,5.84,1.12,6.86-3.62,3.02-5.2-3.39-5.02-8.54.21-5.83,5.85-13.73,7.41-8.95.4,1.41-.94,3.11-1.72,4.16ZM170.69,97.08c.95.69,4.37,2.84,5.34,3.5.3.2.63.52,1.17,1.2.41.62.7,1.14.91,1.59.02-.89-.07-1.77-.16-2.67.51.02.84.55,1.31.65,1.59.36,4.12.62,5.71.31,1.15-.22,2.36-.9,3.61-.87.78-.43,3.24-4.03,3.71-4.01.18,0,.5.33.59.26.27-.2-.89-1.39.08-1.54.67-.1,1.57.9,2.33,1.12,1.08.31,2.13-.18,3.24.52.17.16-1.07,2.03-1.27,2.24-2.83,3.06-10.38,6.67-14.6,6.2-.58-.06-.9-.59-1.13-.6-.19-.02-.67.39-1.12.39-.49,0-1.25-.36-1.92-.48-.5,2.35-9.7-3.29-12.59-5.9-.54-.49-.52-1.33.04-1.79,1.77-1.46,2.79-1.57,4.77-.12ZM198.32,95.57c-.43-.08-3.31-.95-3.41-1.11-.1-.16.11-.59.06-.74-.04-.12-.69.39-.74.01,1.74-3.02,1.62-6.12.85-9.51-.15-.68-.34-1.71-.61-2.3-.72-1.54-2.63-2.7-3.49-3.93-.52-.75-.8-1.88-1.29-2.68-.36-.6-2.84-4.12-3.24-4.48-3-2.7-4.06-2.68-5.14-3.05-1.29-.44-2.82-.62-3.5-1.75-.21-.35-.39-1.05-.39-1.71,0-1.58,1.22-1.54,1.54-1.52,2.56.21,5.2.72,7.83,1.82,4.2,1.75,5.76,5.76,9.2,8.65.56.47,1.18-.05,2.06.65.86.68.82,1.72,1.15,2.09.63.71,1.08.68,1.59,1.97,2.14,5.36,2.45,9.99.43,15.36-.13.35-.1.81-.24,1.14-.39.91-1.77,1.26-2.66,1.09ZM195.95,68.41c-.18.11-.27.56-.51.63-.47.14-.27-.35-.38-.49-.13-.18-.74-.34-1.08-.66-.47-.43-.81-1.25-1.3-1.74-1.03-1.04-2.72-2.17-3.89-3.1-.14-.11-.07-.42-.29-.55-.9-.53-3.72-1.65-4.9-1.96-2.62-.68-4.21-.89-5.28-.93-3.01-.2-2.61-3.84-.07-3.93,2.72.09,10.66-.57,16.34,6.02,1.49,1.73,1.82,1.44,3.61,2.56.79.5,1.45,1.4,2.38,1.69-.83.68-2,1.55-2.95,1.99-.54.25-1.45.33-1.69.48ZM177.97,78.04c1.69.11,2.06,1.14,3.17,2.06,1.68,1.39,3.47,2.19,3.49,4.86.01,1.14-.26,3.84-.89,4.65-1.24,1.59-3.76,1.59-5.5.96-1.12-.4-1.35-.26-2.43-1.17-2.36-1.99-2.61-11.92,2.15-11.36ZM174.79,67.73c-.28.14-.59.29-.9.44-2.08,1.01-3.63,2.69-4.91,4.61-4.01,6.03-5.5,13.59-1.55,20.05.28.46.22,1.06-.17,1.43-1,.96-2.75,1.89-3.41,1.16-3.45-3.85-4.44-10.44-2.54-17.51,1.7-6.33,5.38-11.24,10.69-13.9,2.9-1.24,3.14-.27,3.69,1.71.22.8-.15,1.65-.89,2.02ZM173.32,60.81c-.54.5-11.06,2.75-14.63,16.01-3.55,13.18,2.27,19.09,2.73,19.66.32.4.66.85-.03,1.62-.08.09-1.52,1.49-1.65,1.57-.6.42-1.02-.3-1.29-.91-.11-.26-2.11-3.64-2.71-5.57-1.59-5.11-1.47-9.51-1.1-12.39.57-4.41,3.96-13.66,8.05-17.95,2.36-2.48,5.11-4.69,8.24-5.99.68-.28,1.99-.61,2.3.33.38,1.13.99,2.78.08,3.62ZM150.26,75.73c.54-2.51,2.68-7.99,4.66-11.34,7.14-12.77,21.48-19.45,35.55-11.69.42.53,1.08.99,1.8,1.46.99.65,3.95,2.45,4.91,2.81.78.29,2.51.26,3.23.64.35.18.22.79.45.85.37.09.73-.22,1.33.02.46.18,3.62,2.68,3.59,2.94-.39.67-1.35.49-1.73.71-.38.22-1.32,2.1-1.59,2.25-.55.3-1.36-.68-1.82-.9-2.22-1.06-2.88-1.08-4.71-2.95-1.64-1.67-4.68-4.78-6.81-5.45-2.71-.58-6.53-1.45-9.63-1.74-2.63-.25-7.75-.15-12.68,2.94-5.87,3.68-12.15,14.11-13.2,20.67-.28,1.77-1.32,1.63-2.4,1.05-.8-.44-1.12-1.36-.93-2.25ZM149.87,81.18c.63-1.09,2.29-.67,2.34.59.27,6.59,1.15,13.76,4.77,18.43.56.72.81,1.72.42,2.54-4.66,9.61-10.72-16.08-7.53-21.55ZM213.9,90.09c-.16,1.28-.15,3.14-.35,4.3-.81,4.64-4.26,8.78-6.62,12.62-1.27-.46-.76.37-1.17.92-.5.69-3.11,2.39-3.54,3.1-.56.92-.48,2.3-1.65,3.13-.63.45-3.24,1.12-3.96.93-.2-.05-.57-.39-.59-.35-.09.13.02.65-.34.87-.09.05-1.7.57-1.91.62-1.7.37-1.63-.11-3.21.9-4.87,3.12-13.75,1.19-19.01-.22-3.56-.95-8.47-3.58-11.67-5.95-3.4-2.33-3.98-3.5-2.04-5.81.59-.7,1.66-.75,2.31-.11,1.5,1.48,2.48,2.76,4.62,4.07,3.65,2.51,9.58,5.41,13.83,5.94.92.11,2.04-.25,2.83-.19.4.03.69.31,1.07.33,1.24.05,4.2-1.09,5.62-1.43,4.05-.97,7.59-1.23,10.63-4.56.31-.34,1.04-.48,1.46-.96.53-.62.24-1.32,1.54-.67-.24-1.81,1.76-2.04,2.55-2.85,2.29-2.33,5.21-6.16,5.97-9.52.18-.82.13-1.71.33-2.51.13-.52.62-1.12.66-1.46.01-.16-.39-.15-.45-.4-.33-1.4.39-2.8.33-3.5-.02-.26-.41-.55-.33-.84.11-.38,2.95-1.57,2.99-2.56.79.43.14,1.02.11,1.65-.08,1.62.25,2.59,0,4.54Z"/>
  </g>
  <g>
    <path class="b" d="M122.8,220.27v5.67c0,.35-.22.57-.57.57h-19.93c-.35,0-.57-.22-.57-.57l.3-14.35-.3-15.05c0-.35.22-.57.57-.57h8.72c.35,0,.57.17.57.57l-.17,14.87.13,8.29h10.68c.35,0,.57.22.57.57Z"/>
    <path class="b" d="M139.73,204.61c0-.39.22-.57.57-.57h8.2c.35,0,.57.22.57.57l-.22,10.77.13,10.55c0,.39-.22.57-.57.57h-7.72c-.35,0-.52-.22-.52-.57l.09-2.05c-1.66,2.4-4.27,3.14-6.98,3.14-5.32,0-8.15-3.4-8.15-8.72v-4.75l-.13-8.94c0-.39.22-.57.57-.57h8.2c.35,0,.57.17.57.57l-.13,8.94v4.49c0,1.57.74,2.4,2.01,2.4,1.7,0,3.62-1.48,3.66-6.98l-.13-8.85Z"/>
    <path class="b" d="M187.92,225.94c0,.35-.22.57-.57.57h-8.24c-.35,0-.57-.22-.57-.57l.17-8.94v-4.14c0-1.92-.57-2.75-1.44-2.75-1.53,0-2.53,1.88-2.7,5.58v1.31l.13,8.94c0,.39-.22.57-.57.57h-8.2c-.35,0-.57-.17-.57-.57l.13-8.94v-4.14c0-1.92-.57-2.75-1.44-2.75-1.7,0-2.7,2.27-2.75,6.93l.13,8.9c0,.39-.22.57-.57.57h-8.2c-.35,0-.57-.22-.57-.57l.22-10.77-.13-10.55c0-.39.22-.57.57-.57h7.72c.35,0,.52.22.52.57l-.09,2.05c1.48-2.36,4.19-3.14,6.8-3.14,2.88,0,4.8,1,5.89,2.92,1.26-2.05,3.66-2.92,6.41-2.92,5.06,0,7.72,3.49,7.72,8.29v5.19l.17,8.94Z"/>
    <path class="b" d="M216.18,215.21c0,6.5-4.1,11.73-10.38,11.73-2.49,0-4.45-.83-5.89-2.4l.13,1.35c.04.35-.22.61-.57.61h-8.11c-.35,0-.57-.22-.57-.57l.26-13.52-.26-15.87c0-.39.22-.57.57-.57h8.24c.35,0,.57.17.57.57l-.13,9.59c1.53-1.61,3.66-2.53,6.32-2.53,6.32,0,9.81,5.06,9.81,11.6ZM206.85,215.17c0-4.14-1.31-5.67-3.49-5.67s-3.53,1.53-3.58,5.67c-.04,4.1,1.09,5.93,3.4,5.93s3.66-1.83,3.66-5.93Z"/>
    <path class="b" d="M233.81,219.4c.13-.31.35-.48.65-.48h7.63c.39,0,.57.22.48.61-.87,3.66-4.71,7.63-11.43,7.63-7.5,0-12.34-4.71-12.34-11.82s4.97-11.95,11.95-11.95c7.81,0,12.12,4.4,12.3,13.26,0,.35-.22.57-.57.57h-14.61c.31,3.27,1.48,3.97,3.18,3.97,1.31,0,2.27-.57,2.75-1.79ZM228.01,212.33h5.76c0-1.92-1-3.23-2.7-3.23-1.44,0-2.57.61-3.05,3.23Z"/>
    <path class="b" d="M254.96,225.94c0,.39-.22.57-.57.57h-8.07c-.35,0-.57-.22-.57-.57l.35-10.47-.35-10.86c0-.35.22-.57.57-.57h7.98c.35,0,.52.22.52.57l-.13,2.88c1.79-2.4,4.23-3.58,7.11-3.58.17,0,.39.04.57.04.35.04.52.26.52.61v5.54c0,.35-.13.61-.35.57h-.35c-4.71,0-7.59,2.79-7.28,8.02l.04,7.24Z"/>
  </g>
</svg>