<?xml version="1.0" encoding="UTF-8"?>
<svg id="a" data-name="Capa 1" xmlns="http://www.w3.org/2000/svg" viewBox="0 0 226.5 80">
  <defs>
    <style>
      .b {
        fill: #662d12;
      }

      .c {
        fill: #295f4d;
      }
    </style>
  </defs>
  <g>
    <path class="b" d="M38.1,42.18c.59.39,1.55-.1,1.78-.79.12-.37.14-1.24-.07-1.57-.04-.07-1.08-.93-1.17-.97-1.47-.52-1.22.52-1.36,1.47-.05.33,0,.67.16.96.22.38.52.81.67.91Z"/>
    <path class="b" d="M70.6,39.57h-11.97c-.24-.66-.06-1.35-.15-2.01-.29-2.2-1.05-4.45-2.06-6.42-.22-.44-1.48-2.19-1.23-2.49,1.1-.36,7.3-5.49,7.77-5.41.44.08,2.61,4.18,2.9,4.84.62,1.37,1.26,3.08,1.62,4.53.06.23.37,1.63.34,1.72-.06.18-.32.23-.48.27-1.07.29-2.78.59-3.91.76-.24.04-1.25.18-1.36.01-.07-.1-.41-1.98-.52-2.36-.15-.49-1.23-2.89-1.08-3.13l1.58-.63c.26.51.83,2.7,1.22,2.89.14.07,1.8-.41,1.86-.74.09-.53-1.35-3.57-1.71-4.19-.24-.42-.45-1.15-1.03-1l-4.51,2.63c-.15.1-.34.33-.35.5-.02.19,1.16,2.24,1.33,2.68.58,1.43,1.02,3.28,1.34,4.8.06.26-.08.73.06.92.31.44,3.66-.19,4.31-.25.73-.07,5.6-.36,5.78-.61.31-.42-.5-3.49-.65-4.15-.93-3.97-2.36-7.28-4.72-10.64-.37-.53-1.28-1.86-1.69-2.24-.23-.21-.41-.28-.69-.07-2.83,2.54-5.73,5.03-8.61,7.48-.41.04-1.67-1.47-2.07-1.81-1.43-1.21-3.54-2.49-5.26-3.22-.61-.26-1.73-.44-2.2-.71-.11-.06-.14-.13-.17-.24l2.35-9.1c.12-.17.31-.14.48-.12.31.03,1.66.51,2.06.65,1.54.54,3.46,1.43,4.87,2.25.45.26,3.55,2.33,3.56,2.56-.6.56-3,4.07-3.51,4.22-.52.15-1.83-1.04-2.38-1.38-.42-.26-2.6-1.3-2.69-1.43-.04-.05.46-1.16.52-1.26.09-.16.08-.19.28-.22.67-.11,2.29,1.34,2.8,1.22.31-.07,1.17-1.56,1.02-1.83-.04-.07-1.04-.66-1.22-.76-.64-.35-2.78-1.42-3.37-1.54-.24-.05-.81-.12-.95.08-.06.73-1.96,5.4-1.77,5.65.05.07,1.37.45,1.68.6,1.75.82,3.56,1.96,5.08,3.16.42.33.7,1.04,1.35.74l6.74-7.03c.08-.57-5.04-4.13-5.82-4.59-2.51-1.49-6.97-3.42-9.84-3.8-.35-.05-.73-.02-1.08,0l-2.06,11.64c-3.04-.28-5.89-.17-8.81.71-.44.13-2.2,1.04-2.45.74l-4.02-8.45c.09-.25,1.65-.92,2-1.06,2.15-.87,4.9-1.52,7.21-1.76.52-.05,2.04-.24,2.44-.11.16.05.17.14.2.29.12.64-.03,1.74,0,2.46.04.95.34,2.04-.01,2.99l-5.64.7c-.15-.27-.57-1.27-.38-1.49.36-.43,2.68-.52,2.85-.75.18-.24.02-2.02-.34-2.12-.09-.03-1.69.21-1.92.26-1.12.23-2.31.75-3.45.98-.28.09-.25.51-.2.77.14.76,1.29,3.67,1.67,4.48.32.69.32.81,1.08.62,2.26-.56,3.75-1.04,6.16-1.22.58-.04,1.58.11,2.06-.03.55-.16.29-1.5.33-2,.14-1.69.26-3.35.37-5.04.05-.78.77-3-.3-3.14-3.73-.49-9.64.74-13.15,2.09-.71.27-4.45,1.86-4.59,2.42-.03.1-.01.19.05.27.59,1.23,5.95,9.41,5.85,10-.01.08-1.11.67-1.3.82-2.47,1.88-4.61,4.54-5.9,7.37l-.46.1-8.32-3.61c-.18-.14-.43-.32-.36-.58,1.52-2.73,3.23-5.37,5.39-7.65.27-.29,1.69-1.72,1.93-1.76.38-.06.71.68.91.9.93,1.04,1.87,2.06,2.76,3.14.06.09.08.19.07.3-.01.11-1.4,1.25-1.67,1.54-.67.74-1.29,1.57-1.82,2.42-.25.46-1.65-.66-1.67-.76-.05-.41,1.88-2.06,1.81-2.55-.02-.15-1.07-1.19-1.22-1.26-.19-.09-.29-.09-.49,0-.44.21-2.4,3.1-2.71,3.69-.23.44-.71.96-.23,1.34.79.19,4.52,2.74,4.94,2.64.29-.07,1.44-2.02,1.76-2.43.88-1.14,2.14-2.37,3.22-3.32.5-.44,1.46-.67,1.04-1.45-1.73-2.26-3.33-4.63-5.06-6.88-.31-.4-.37-1.15-1.15-.75-.36.18-1.77,1.41-2.17,1.77-2.78,2.46-5.12,5.62-6.8,8.92-.45.89-1.38,2.66-1.62,3.54-.06.22-.1.43-.04.66l10.99,3.88c.26.36-.43,2.38-.53,2.93-.32,1.83-.46,3.52-.28,5.37.11,1.06.41,2.12.49,3.19l-9.34,2.53c-.67-2.51-.89-5.1-1.11-7.69l.39-4.34c.31-.26,3.95.47,4.61.59.33.06.91-.12,1.09.26.18.36-.17,1.18-.19,1.65-.05,1.03,0,2.16,0,3.2,0,.53.39.66-.36.86-.13.03-1.1.19-1.16.19-.07-.01-.19-.27-.2-.32-.1-.61,0-1.66,0-2.33,0-.75-1.65-.83-2.13-.66-.2.07-.3.46-.3.66-.03,1.18.16,2.55.33,3.7.09.59-.15,1.84.8,1.77,1.4-.39,2.81-.64,4.22-.95.21-.05,1.2-.11,1.25-.16.24-.24-.21-1.87-.24-2.27-.07-.94.12-1.9-.12-2.82l.56-4.12c-.07-.1-.96-.37-1.18-.43-2.07-.61-4.22-1.04-6.3-1.56-.39-.1-1.85-.66-2.1-.58-.25.08-.72,2.04-.79,2.42-.62,3.44-.46,8.15.25,11.61.32,1.57.87,3.1,1.32,4.64l.86-.05c3.3-.95,6.8-2.95,10.05-3.84.14-.04.29-.07.43-.04.14.03,1.1,2.2,1.29,2.54.87,1.54,2.19,3.17,3.48,4.38.31.29,2.16,1.73,2.19,1.88l-5.33,7.79s-.09.08-.14.09c-.15.03-1.54-1.02-1.79-1.22-1.17-.92-2.52-2.27-3.51-3.39-.53-.6-2.93-3.58-2.98-4.17-.02-.22.07-.15.15-.22.38-.33,1.24-.67,1.71-.96.11-.07.14-.19.26-.26.43-.26,2.21-1.31,2.54-1.39.09-.02.16-.08.25,0l3.43,4.41c-.6.48-.81,1.42-1.58.74-.27-.24-1.47-1.78-1.67-1.78-.36,0-1.03.55-1.29.81-.43.42-.45.52-.07,1.05.31.42,3.13,3.25,3.47,3.43.16.09.47.19.63.1.86-1.33,2.26-2.52,3.15-3.8.87-1.25-.02-1.23-.86-2.13-1.65-1.74-3.07-3.58-4.15-5.74l-.59-.08c-2.55,1.45-5.71,2.5-8.19,3.98-.34.21-.58.27-.41.74.2.55,1.07,1.94,1.43,2.51,2.67,4.32,6.79,8.37,11.32,10.68l5.96-10.15c.92.22,1.81.77,2.73,1.09,2.04.72,4.38,1.11,6.55,1.12.57,0,1.21-.08,1.78-.18.12,1.46.35,2.91.49,4.36.14,1.48.34,3.19.38,4.66.03.97-.38.86-1.29.93-2.29.17-6.06-.26-8.3-.8-.46-.11-1.89-.51-2.24-.7-.12-.07-.23-.11-.21-.28.36-.57,1.66-5.06,1.93-5.11.2-.04,2.39.62,2.84.71.51.11,2.57.18,2.72.6l-.11,1.52c-.44-.08-2.8-.49-3.01-.38-.49.26-.66,2.02-.43,2.17.19.13.57,0,.8.06,1.08.25,2.32.44,3.45.48.28.01,1.66.09,1.66-.18v-5.41c0-.09-.16-.36-.15-.52-1.15-.32-2.54-.21-3.71-.4-1.33-.22-2.63-.74-3.87-1.16-1.32-.45-1.32-.71-1.99.6-1.02,2-2.29,4.88-3.1,6.98-.18.48-.61,1.14-.07,1.51.32.22,2.08.82,2.58.99,4.23,1.43,10.92,2.21,15.27,1.14.22-.05.44-.16.46-.41l-2.16-11.48c.11-.21,3.43-1.14,4.02-1.39,1.11-.46,2.48-1.25,3.46-1.95.4-.28,2.2-1.89,2.38-1.92.19-.04.4.18.54.29,1.01.78,2.58,2.47,3.57,3.44.9.89,1.76,1.84,2.7,2.7.1.1.14.21.1.35-.06.22-1.92,1.89-2.26,2.17-1.01.82-2.47,1.9-3.58,2.56-.54.32-3.61,1.85-4.02,1.86-.13,0-.37-.07-.44-.21l-1.76-4.6c-.07-.2-.16-.54-.03-.72.09-.12,2.36-.97,2.76-1.17.49-.25,2-1.39,2.39-1.26.26.09.9,1.17.76,1.46-.15.32-2.36,1.45-2.38,1.66,0,.08.67,1.47.74,1.52.1.06.27.03.39,0,.6-.08,3.76-2.2,4.28-2.69.18-.17.42-.49.28-.74l-3.55-4.14c-.08-.06-.3-.12-.39-.11-.25.03-2.24,1.63-2.7,1.92-1.02.64-2.36,1.35-3.48,1.8-.48.19-1.76.22-1.72.92.76,2.73,1.46,5.47,2.28,8.18.06.2.02.44.09.65.26.77.91.4,1.47.23,4.59-1.37,10.81-5.48,13.91-9.13.22-.25.79-.78.61-1.06l-9.02-7.46.05-.28c2.35-2.95,3.55-6.47,4.01-10.19l9.62.71c.28.2-.12,1.25-.16,1.56-.12.94-.19,1.85-.41,2.78-.22.95-2.34,7.19-2.98,7.34l-4.69-2.61c-.07-.06-.11-.19-.11-.27.02-.32,1.05-2.3,1.26-2.87.28-.73.63-1.59.66-2.35l1.73.45c.1.74-1.06,2.43-.81,2.99.12.26,1.44.79,1.72.75.4-.06.73-1.1.86-1.48.28-.82.86-2.96.92-3.76.07-1.03-1.14-.7-1.77-.79-.53-.08-1.05-.17-1.59-.25-.59-.08-2.25-.65-2.76-.34-.14.09-.13.78-.18.99-.31,1.36-.9,3.2-1.52,4.5-.29.61-1.79,2.69-1.49,3.19l8.14,5.42c.5.03.82-.98,1.06-1.36,2.77-4.49,4.13-9.38,4.53-14.66.02-.3.05-1.76-.05-1.91ZM52.33,30.25c.11.16.3.24.38.39.14.22.09.59.14.65.05.07.24.05.34.07-.33.53.1.71.33,1.18.41.82,1.29,2.82,1.36,3.66.01.16-.1.37-.04.48.06.12.25.19.33.32.18.29.12.88.17,1.25.04.28.3.8.22,1.07-.03.09-1.01.6-1.14.62-.89.17-.51-.29-.67-.86-.06-.2-.25-.35-.27-.49-.04-.26.2-.45.13-.67-.05-.16-.34-.57-.45-.81-.34-.75-.65-1.55-.91-2.4-.28-.91-.63-1.92-.99-2.8-.09-.22-.49-.81-.64-1.05-.05-.07-.18-.07-.19-.08-.09-.2.24-.33.35-.46.22-.27.42-.51.61-.77.08-.11-.01-.19.23-.14.5.1.48.5.7.83ZM36.15,53.43c-1.43-.33-3.86-1.45-5.09-2.43-1-.8-2.55-1.94-1.63-2.95,1.71-.36,3.82,2.9,5.77,3.07.54.22,1.44.12,1.59.92.04.22-.02.44.04.66.06.21.72.93.75.44.01-.25-.24-1.4.09-1.35.59.09,1.78.39,2.29.36.73-.05,2.29-.33,3.06-.5,1.3-.28,4.44-2.05,5.38-3.08.52-.56,1.24-2.72,2.26-1.63.17-.63-.29-.41-.31-.45-.11-.22.33-.5-.46-.33-.04-.34.3-.24.41-.42.73-1.17,1.02-3.69.89-5.1-.03-.29-.18-.65-.19-.9,0-.25.15-.43.14-.58,0-.16-.45-.88-.54-1.18-.14-.44-.15-1.03-.35-1.46-.16-.33-1.06-1.53-1.33-1.83-.23-.26-1.47-1.22-1.49-1.35-.03-.19.03-.25.16-.35.33-.27,1.02-.38,1.42-.7.74-.61.63-1.35,1.39.17.74,1.47,1.64,3.82,2.08,5.4.1.38.08.85.2,1.23.09.27.32.45.35.76.04.43-.19.67-.19.95.02.87.46,2.02.35,3.07-.16,1.52-1.26,3.97-2.34,5.02-.53.52-.48.17-.85.92-.17.34-2.2,1.98-2.63,2.26-.22.14-.46.13-.66.27-.39.27-.14.66-.62.11-.03.74-.89.52-1.39.66-1.16.35-1.63.93-3.07,1.07-.73.07-2.47.34-3.06.21-.24-.05-.34-.61-.61-.64-.37-.04-.89.28-.95-.27l-.34.34c.12-.48-.28-.34-.55-.4ZM40.55,37.54c-.78-.63-.6-1.27-1.61-1.75l-1.37-.53c-.8-.19-.95-2.75.25-2.61.85.1,2.28.66,2.71,1.08.25.25.45.7.77.89.13.08.27,0,.41.12.74.67,1.17,1.88,1.63,2.7.2.36,1.24.95,1.58,1.45,1.02,1.47.65,2.97.27,4.53-.08.34.08.82-.41.75-.14-.02-1.17-.72-1.26-.85-.09-.13-.07-.35-.16-.51-.21-.35-.73-.63-.97-1.07-.35-.65-.33-1.21-.22-1.91.03-.22.19-.42.2-.61.03-.62-1.41-1.35-1.82-1.67ZM41.74,43.07c.34.32,2.58,1.93,2.62,2.19.04.29-.73,1.26-.96,1.44-.3.23-.59.2-.79.32-.42.26-.25.65-1.08.8-2.22.39-4.11-.42-6.01-1.59-1.01-.61-1.23-1.28-.19-1.82,1.51-.79,2.54.15,4.15.27,1.16.09,1.88-.48,2.26-1.6ZM35.15,36.96c-.69.92-.97,2.08-.9,3.23.09,1.34,1.17,2.91.56,3.42-1.81,1.5-2.59-1.69-2.5-4.26.1-2.91,2.92-6.85,3.7-4.46.2.7-.47,1.55-.86,2.07ZM34.03,46.48c.47.35,2.18,1.42,2.66,1.74.15.1.31.26.58.6.2.31.35.57.45.79,0-.44-.03-.88-.08-1.33.25.01.42.27.65.33.79.18,2.05.31,2.85.16.58-.11,1.18-.45,1.8-.43.39-.22,1.61-2.01,1.85-2,.09,0,.25.16.29.13.13-.1-.44-.7.04-.77.34-.05.78.45,1.16.56.54.15,1.06-.09,1.62.26.08.08-.54,1.01-.63,1.12-1.41,1.52-5.18,3.33-7.28,3.09-.29-.03-.45-.29-.56-.3-.09,0-.33.2-.56.19-.25,0-.62-.18-.96-.23-.26,1.16-4.84-1.65-6.28-2.95-.27-.24-.26-.66.02-.89.88-.73,1.39-.78,2.38-.06ZM47.81,45.72c-.21-.04-1.65-.48-1.7-.55-.05-.08.05-.3.03-.37-.02-.06-.34.2-.37,0,.87-1.5.81-3.05.42-4.74-.08-.34-.17-.85-.31-1.14-.36-.77-1.31-1.35-1.74-1.96-.26-.37-.4-.94-.64-1.34-.18-.3-1.42-2.05-1.62-2.23-1.5-1.35-2.03-1.34-2.56-1.52-.64-.22-1.41-.31-1.75-.87-.1-.17-.19-.52-.19-.85,0-.79.61-.77.77-.76,1.28.1,2.59.36,3.9.91,2.1.87,2.87,2.87,4.59,4.31.28.23.59-.03,1.03.32.43.34.41.86.57,1.04.32.35.54.34.8.98,1.06,2.68,1.22,4.98.21,7.66-.07.18-.05.4-.12.57-.19.45-.88.63-1.33.54ZM46.63,32.18c-.09.06-.13.28-.25.31-.23.07-.13-.17-.19-.25-.07-.09-.37-.17-.54-.33-.23-.21-.41-.63-.65-.87-.51-.52-1.35-1.08-1.94-1.55-.07-.06-.04-.21-.14-.27-.45-.27-1.85-.82-2.44-.98-1.31-.34-2.1-.45-2.63-.46-1.5-.1-1.3-1.91-.03-1.96,1.36.04,5.31-.28,8.15,3,.74.86.91.72,1.8,1.28.39.25.72.7,1.19.84-.42.34-1,.77-1.47.99-.27.13-.72.16-.84.24ZM37.66,36.98c.84.05,1.03.57,1.58,1.02.84.69,1.73,1.09,1.74,2.42,0,.57-.13,1.91-.44,2.32-.62.79-1.87.79-2.74.48-.56-.2-.67-.13-1.21-.58-1.18-.99-1.3-5.95,1.07-5.66ZM36.08,31.84c-.14.07-.29.14-.45.22-1.04.5-1.81,1.34-2.45,2.3-2,3.01-2.74,6.78-.77,10,.14.23.11.53-.08.71-.5.48-1.37.94-1.7.58-1.72-1.92-2.21-5.21-1.27-8.73.85-3.15,2.68-5.61,5.33-6.93,1.44-.62,1.56-.13,1.84.85.11.4-.07.82-.44,1ZM35.34,28.39c-.27.25-5.52,1.37-7.3,7.98-1.77,6.57,1.13,9.52,1.36,9.81.16.2.33.42-.01.81-.04.04-.76.74-.82.78-.3.21-.51-.15-.65-.45-.06-.13-1.05-1.81-1.35-2.78-.79-2.55-.73-4.74-.55-6.18.28-2.2,1.98-6.81,4.01-8.95,1.18-1.24,2.55-2.34,4.11-2.99.34-.14.99-.3,1.15.16.19.56.5,1.39.04,1.8ZM23.85,35.83c.27-1.25,1.33-3.99,2.32-5.65,3.56-6.37,10.71-9.7,17.73-5.83.21.27.54.49.9.73.5.32,1.97,1.22,2.45,1.4.39.15,1.25.13,1.61.32.17.09.11.39.22.42.19.04.36-.11.66.01.23.09,1.81,1.33,1.79,1.47-.2.34-.68.24-.86.35-.19.11-.66,1.05-.79,1.12-.28.15-.68-.34-.91-.45-1.11-.53-1.44-.54-2.35-1.47-.82-.83-2.34-2.38-3.4-2.72-1.35-.29-3.26-.73-4.8-.87-1.31-.12-3.87-.08-6.32,1.46-2.93,1.84-6.06,7.04-6.58,10.31-.14.88-.66.81-1.2.52-.4-.22-.56-.68-.47-1.12ZM23.65,38.55c.32-.54,1.14-.33,1.17.3.13,3.29.57,6.86,2.38,9.19.28.36.41.86.21,1.26-2.32,4.79-5.35-8.02-3.75-10.75ZM55.58,42.99c-.08.64-.07,1.57-.17,2.14-.4,2.31-2.12,4.38-3.3,6.29-.63-.23-.38.18-.58.46-.25.34-1.55,1.19-1.77,1.54-.28.46-.24,1.14-.82,1.56-.31.22-1.61.56-1.97.47-.1-.03-.28-.2-.3-.18-.04.07,0,.33-.17.43-.04.03-.85.29-.95.31-.85.18-.81-.06-1.6.45-2.43,1.56-6.86.59-9.48-.11-1.77-.48-4.22-1.78-5.82-2.97-1.7-1.16-1.98-1.75-1.02-2.9.29-.35.83-.37,1.15-.05.75.74,1.24,1.38,2.31,2.03,1.82,1.25,4.77,2.7,6.9,2.96.46.06,1.02-.13,1.41-.1.2.01.35.15.54.16.62.03,2.09-.54,2.8-.71,2.02-.48,3.79-.61,5.3-2.27.16-.17.52-.24.73-.48.26-.31.12-.66.77-.34-.12-.9.88-1.02,1.27-1.42,1.14-1.16,2.6-3.07,2.98-4.75.09-.41.06-.85.16-1.25.06-.26.31-.56.33-.73,0-.08-.2-.07-.22-.2-.17-.7.19-1.4.17-1.75-.01-.13-.21-.28-.16-.42.05-.19,1.47-.78,1.49-1.27.4.22.07.51.05.82-.04.81.13,1.29,0,2.27Z"/>
  </g>
  <g>
    <g>
      <path class="c" d="M84.44,35.84c0,.17-.11.28-.28.28h-4.31c-.17,0-.28-.11-.28-.28l.15-7.18-.15-7.48c0-.17.11-.28.28-.28h4.31c.17,0,.28.11.28.28l-.15,7.48.15,7.18Z"/>
      <path class="c" d="M98.17,35.84c0,.2-.11.28-.28.28h-4.09c-.17,0-.28-.09-.28-.28l.07-4.46v-2.07c0-.96-.41-1.37-1.04-1.37-1.13,0-1.76,1.35-1.78,3.48l.06,4.41c0,.2-.11.28-.28.28h-4.09c-.17,0-.28-.11-.28-.28l.11-5.37-.06-5.26c0-.2.11-.28.28-.28h3.85c.17,0,.26.11.26.28l-.04,1.02c.76-1.17,2.13-1.57,3.48-1.57,2.65,0,4.07,1.74,4.07,4.13v2.59l.07,4.46Z"/>
      <path class="c" d="M99.54,30.56c0-3.61,2.39-5.96,6-5.96,3.24,0,5.28,1.72,5.59,4.26.02.2-.11.3-.28.3h-3.65c-.17,0-.26-.09-.3-.26-.15-.96-.59-1.28-1.22-1.28-.96,0-1.46.72-1.46,2.89s.5,2.94,1.44,2.94c.65,0,1.2-.37,1.33-1.3.02-.2.11-.28.28-.28h3.74c.17,0,.3.09.28.24-.28,2.52-2.61,4.35-5.72,4.35-3.63,0-6.02-2.28-6.02-5.89Z"/>
      <path class="c" d="M120.55,25.23c-.02-.17.11-.3.28-.3h4.07c.17,0,.28.11.28.28l-.13,5.24.13,5.39c0,.17-.11.28-.28.28h-3.96c-.17,0-.28-.11-.28-.28l.04-.91c-.76.89-1.87,1.41-3.28,1.41-3.15,0-4.89-2.52-4.89-5.78s2.04-5.85,5.18-5.85c1.22,0,2.2.41,2.91,1.17l-.07-.65ZM119,27.62c-1.15,0-1.83.91-1.83,2.96s.65,2.83,1.74,2.83,1.76-.76,1.78-2.83c.02-2.04-.54-2.96-1.7-2.96Z"/>
      <path class="c" d="M139.27,35.84c0,.2-.11.28-.28.28h-4.41c-.17,0-.28-.09-.28-.28l.13-7.41-.07-4.15h-3.91c-.17,0-.28-.11-.28-.28v-2.81c0-.17.11-.28.28-.28h12.68c.17,0,.28.11.28.28v2.81c0,.17-.11.28-.28.28h-3.91l-.07,4.15.13,7.41Z"/>
      <path class="c" d="M147.15,35.84c0,.2-.11.28-.28.28h-4.02c-.17,0-.28-.11-.28-.28l.17-5.22-.17-5.41c0-.17.11-.28.28-.28h3.98c.17,0,.26.11.26.28l-.07,1.44c.89-1.2,2.11-1.78,3.54-1.78.09,0,.2.02.28.02.17.02.26.13.26.3v2.76c0,.17-.06.3-.17.28h-.17c-2.35,0-3.78,1.39-3.63,4l.02,3.61Z"/>
      <path class="c" d="M151.76,30.56c0-3.61,2.3-5.96,6.2-5.96s6.15,2.26,6.15,5.87-2.24,5.98-6.15,5.98-6.2-2.28-6.2-5.89ZM159.46,30.56c0-2.22-.5-2.98-1.52-2.98-1.09.04-1.54.8-1.54,3.02s.52,2.85,1.57,2.85,1.5-.61,1.5-2.89Z"/>
      <path class="c" d="M178.16,30.49c0,3.24-2.04,5.85-5.18,5.85-1.17,0-2.15-.39-2.85-1.11l.06,4.31c0,.2-.11.28-.28.28h-4.13c-.17,0-.28-.09-.28-.28l.13-7.59-.13-6.74c0-.17.11-.28.28-.28h3.96c.17,0,.28.11.28.28l-.04.91c.76-.89,1.87-1.41,3.28-1.41,3.15,0,4.89,2.52,4.89,5.78ZM173.51,30.47c0-2.07-.65-2.83-1.74-2.83s-1.76.76-1.78,2.83c-.02,2.04.54,2.96,1.7,2.96s1.83-.91,1.83-2.96Z"/>
      <path class="c" d="M184.25,21.19v2.81c0,.17-.11.28-.28.28h-4.07c-.17,0-.28-.11-.28-.28v-2.81c0-.17.11-.28.28-.28h4.07c.17,0,.28.11.28.28ZM184.25,35.84c0,.2-.11.28-.28.28h-4.04c-.17,0-.28-.09-.28-.28l.07-5.11-.07-5.52c0-.2.11-.28.28-.28h4.04c.17,0,.28.09.28.28l-.06,5.52.06,5.11Z"/>
      <path class="c" d="M185.73,30.56c0-3.61,2.39-5.96,6-5.96,3.24,0,5.28,1.72,5.59,4.26.02.2-.11.3-.28.3h-3.65c-.17,0-.26-.09-.3-.26-.15-.96-.59-1.28-1.22-1.28-.96,0-1.46.72-1.46,2.89s.5,2.94,1.44,2.94c.65,0,1.2-.37,1.33-1.3.02-.2.11-.28.28-.28h3.74c.17,0,.3.09.28.24-.28,2.52-2.61,4.35-5.72,4.35-3.63,0-6.02-2.28-6.02-5.89Z"/>
      <path class="c" d="M206.74,25.23c-.02-.17.11-.3.28-.3h4.07c.17,0,.28.11.28.28l-.13,5.24.13,5.39c0,.17-.11.28-.28.28h-3.96c-.17,0-.28-.11-.28-.28l.04-.91c-.76.89-1.87,1.41-3.28,1.41-3.15,0-4.89-2.52-4.89-5.78s2.04-5.85,5.17-5.85c1.22,0,2.2.41,2.91,1.17l-.07-.65ZM205.2,27.62c-1.15,0-1.83.91-1.83,2.96s.65,2.83,1.74,2.83,1.76-.76,1.78-2.83c.02-2.04-.54-2.96-1.7-2.96Z"/>
      <path class="c" d="M217.42,35.84c0,.2-.11.28-.28.28h-3.91c-.17,0-.28-.09-.28-.28l.09-7.24-.09-7.41c0-.2.11-.28.28-.28h3.91c.17,0,.28.09.28.28l-.09,7.44.09,7.22Z"/>
    </g>
    <g>
      <path class="c" d="M89.97,52.97v2.83c0,.17-.11.28-.28.28h-9.94c-.17,0-.28-.11-.28-.28l.15-7.15-.15-7.5c0-.17.11-.28.28-.28h4.35c.17,0,.28.09.28.28l-.09,7.41.06,4.13h5.33c.17,0,.28.11.28.28Z"/>
      <path class="c" d="M98.41,45.16c0-.2.11-.28.28-.28h4.09c.17,0,.28.11.28.28l-.11,5.37.07,5.26c0,.2-.11.28-.28.28h-3.85c-.17,0-.26-.11-.26-.28l.04-1.02c-.83,1.2-2.13,1.57-3.48,1.57-2.65,0-4.07-1.7-4.07-4.35v-2.37l-.06-4.46c0-.2.11-.28.28-.28h4.09c.17,0,.28.09.28.28l-.06,4.46v2.24c0,.78.37,1.2,1,1.2.85,0,1.8-.74,1.83-3.48l-.07-4.41Z"/>
      <path class="c" d="M122.44,55.79c0,.17-.11.28-.28.28h-4.11c-.17,0-.28-.11-.28-.28l.09-4.46v-2.07c0-.96-.28-1.37-.72-1.37-.76,0-1.26.94-1.35,2.78v.65l.06,4.46c0,.2-.11.28-.28.28h-4.09c-.17,0-.28-.09-.28-.28l.07-4.46v-2.07c0-.96-.28-1.37-.72-1.37-.85,0-1.35,1.13-1.37,3.46l.06,4.44c0,.2-.11.28-.28.28h-4.09c-.17,0-.28-.11-.28-.28l.11-5.37-.06-5.26c0-.2.11-.28.28-.28h3.85c.17,0,.26.11.26.28l-.04,1.02c.74-1.17,2.09-1.57,3.39-1.57,1.44,0,2.39.5,2.94,1.46.63-1.02,1.83-1.46,3.2-1.46,2.52,0,3.85,1.74,3.85,4.13v2.59l.09,4.46Z"/>
      <path class="c" d="M136.53,50.44c0,3.24-2.04,5.85-5.18,5.85-1.24,0-2.22-.41-2.93-1.2l.06.67c.02.17-.11.3-.28.3h-4.04c-.17,0-.28-.11-.28-.28l.13-6.74-.13-7.91c0-.2.11-.28.28-.28h4.11c.17,0,.28.09.28.28l-.07,4.78c.76-.8,1.83-1.26,3.15-1.26,3.15,0,4.89,2.52,4.89,5.78ZM131.88,50.42c0-2.07-.65-2.83-1.74-2.83s-1.76.76-1.78,2.83c-.02,2.04.54,2.96,1.7,2.96s1.83-.91,1.83-2.96Z"/>
      <path class="c" d="M145.32,52.53c.07-.15.17-.24.33-.24h3.81c.2,0,.28.11.24.3-.44,1.83-2.35,3.8-5.7,3.8-3.74,0-6.15-2.35-6.15-5.89s2.48-5.96,5.96-5.96c3.89,0,6.04,2.2,6.13,6.61,0,.17-.11.28-.28.28h-7.28c.15,1.63.74,1.98,1.59,1.98.65,0,1.13-.28,1.37-.89ZM142.43,49.01h2.87c0-.96-.5-1.61-1.35-1.61-.72,0-1.28.3-1.52,1.61Z"/>
      <path class="c" d="M155.87,55.79c0,.2-.11.28-.28.28h-4.02c-.17,0-.28-.11-.28-.28l.17-5.22-.17-5.41c0-.17.11-.28.28-.28h3.98c.17,0,.26.11.26.28l-.07,1.43c.89-1.2,2.11-1.78,3.54-1.78.09,0,.2.02.28.02.17.02.26.13.26.3v2.76c0,.17-.06.3-.17.28h-.17c-2.35,0-3.78,1.39-3.63,4l.02,3.61Z"/>
    </g>
  </g>
</svg>